<svg preserveAspectRatio="none" width="100%" height="100%" overflow="visible" style="display: block;" viewBox="0 0 226.853 234.211" fill="none" xmlns="http://www.w3.org/2000/svg">
<g id="&#235;&#160;&#136;&#236;&#157;&#180;&#236;&#150;&#180; 1">
<path id="Vector" d="M73.3595 155.345C74.6003 155.145 75.5733 155.96 76.6973 156.213C77.6213 156.424 77.3045 157.235 77.2479 157.766C76.8255 161.704 76.9198 165.649 76.8707 169.598C76.8272 175.917 77.1938 182.232 77.9683 188.504C77.9748 188.868 78.0983 189.22 78.3204 189.508C78.5426 189.796 78.8515 190.004 79.2015 190.103C88.453 193.694 94.3366 200.177 96.3128 209.998C97.1615 213.991 97.1615 218.119 96.3128 222.112C95.1173 227.539 91.1534 230.319 86.0544 231.541C80.3971 232.898 74.589 233.374 68.7997 233.853C68.2227 233.902 67.5363 233.543 67.0799 234.211H53.9136C53.6119 233.585 53.0386 233.89 52.586 233.834C47.8076 233.34 43.0894 232.589 38.5825 230.817C34.7695 229.308 32.0879 226.834 31.36 222.693C30.4134 217.315 30.6963 211.997 32.6423 206.852C35.3842 199.607 40.5625 194.557 47.1966 190.812C47.7925 190.477 48.5732 190.379 48.6599 189.338C49.0559 184.635 49.5575 179.939 50.0252 175.164C49.4293 175.409 48.9239 175.651 48.3921 175.821C47.8604 175.99 47.1815 176.281 46.5931 176.243C45.4919 176.168 45.1562 176.703 44.8318 177.642C43.1007 182.67 38.7974 185.064 33.6041 183.959C32.9554 183.824 32.4726 183.688 31.9295 184.288C28.6634 187.931 24.7411 188.142 20.4793 186.354C19.9135 186.121 19.476 185.83 18.7557 186.109C14.1733 187.882 10.4584 186.931 7.12814 183.296C4.55813 180.46 2.64004 177.096 1.5086 173.441C0.901391 171.521 0.482755 169.537 2.4706e-06 167.58V161.923C0.490298 160.293 0.976821 158.66 1.47843 157.02C1.7143 156.446 1.9158 155.859 2.08187 155.262C2.50805 152.958 4.98216 151.426 4.62386 148.903C4.30329 146.64 3.54144 144.43 3.20955 142.16C0.399782 122.925 4.58992 105.659 17.8505 90.9919C17.9712 90.8599 18.1221 90.7506 18.4276 90.4866C18.873 92.3079 19.1508 94.1662 19.2573 96.0382C16.4513 99.0554 14.3166 102.503 12.5402 106.168C6.4455 118.724 5.40079 131.883 8.14267 145.354C8.814 148.666 8.67446 151.238 6.87168 154.248C2.27045 161.911 3.44716 172.392 9.16475 179.219C11.175 181.617 13.6076 183.164 17.149 182.971C16.5305 181.73 15.9497 180.708 15.5009 179.634C15.0521 178.559 14.9842 177.257 16.2552 176.711C17.5262 176.164 18.5784 176.812 19.0612 178.14C19.4208 179.276 19.9746 180.342 20.698 181.289C22.6064 183.616 25.5142 184.099 27.9204 182.545C29.082 181.791 29.5195 181.067 28.3428 179.905C27.4452 179.024 26.7323 177.972 26.2459 176.812C25.7367 175.594 25.782 174.319 27.0605 173.72C28.2523 173.158 29.2216 173.814 29.7534 175.032C30.2572 176.181 30.9269 177.25 31.741 178.204C34.3546 181.282 38.2619 180.942 40.3513 177.499C41.0038 176.428 41.0377 175.73 39.8308 174.915C38.1299 173.784 36.5081 172.441 36.082 170.193C35.916 169.315 35.8934 168.466 36.7269 168.059C37.1496 167.833 37.6404 167.769 38.1067 167.88C38.573 167.992 38.9824 168.27 39.2576 168.662C39.8488 169.469 40.4939 170.235 41.1886 170.955C43.9342 173.554 47.6001 172.577 48.7089 168.949C49.4632 166.422 48.9654 164.004 47.7812 161.696C47.404 160.942 46.9288 160.84 46.0991 161.014C44.5905 161.334 43.5872 160.399 43.4326 159.045C43.295 157.807 42.8532 156.623 42.1465 155.598C41.4186 154.5 41.2489 153.376 42.4973 152.697C43.7456 152.019 44.7602 152.716 45.4391 153.893C45.7551 154.57 46.1154 155.225 46.5177 155.854C46.9175 156.397 47.5171 157.118 48.1734 156.906C48.9654 156.646 48.5845 155.692 48.5505 155.074C48.2752 150.023 44.0625 144.89 38.7446 143.144C34.5069 141.694 29.9388 141.508 25.5972 142.609C23.0476 143.254 22.9006 143.125 22.2405 140.598C21.2891 136.892 20.8076 133.081 20.8074 129.254C20.7772 123.529 21.3467 117.879 24.4959 112.84C25.8197 114.53 27.019 116.152 26.4382 118.607C24.99 124.736 24.594 130.925 26.0196 137.136C26.3213 138.456 26.6758 139.022 28.3994 138.709C36.6665 137.261 43.7532 139.377 48.9729 146.305C50.3609 148.145 51.2359 150.291 52.2956 152.498C53.4837 151.064 53.6798 149.356 54.2342 147.828C54.5435 146.972 54.8753 146.859 55.524 147.297C56.4858 147.953 57.753 148.115 58.4884 149.133C56.8177 155.545 55.8823 162.096 55.1205 168.67C55.0187 169.541 55.343 169.933 56.1539 170.114C61.038 171.216 65.9334 171.517 70.8627 170.491C72.0168 170.258 72.3713 169.737 72.3336 168.606C72.262 164.155 72.8126 159.75 73.3595 155.345ZM53.3253 188.613C59.7632 186.728 65.9598 186.43 72.1828 187.916C73.1747 188.153 73.1935 187.75 73.1407 187.011C72.8579 183.213 72.3299 179.43 72.3864 175.613C72.3864 174.342 71.6661 174.783 71.04 174.915C67.0473 175.782 62.9248 175.867 58.8995 175.168C57.5229 174.919 56.1539 174.629 54.7094 174.342C54.2493 179.09 53.8042 183.677 53.3253 188.613ZM63.5913 229.655C69.0487 229.7 73.1332 229.493 77.1423 228.867C81.5964 228.169 85.9412 226.906 89.7994 224.394C90.9875 223.639 91.6852 222.598 91.6098 221.124C91.5419 220.106 91.1685 219.743 90.1766 220.37C88.0239 221.659 85.711 222.659 83.2974 223.345C79.0733 224.605 74.7436 225.001 70.3536 225.303C63.2941 225.799 56.2022 225.561 49.1917 224.594C45.4745 224.042 41.8495 222.988 38.4165 221.459C37.8206 221.199 36.9833 220.63 36.493 221.214C35.95 221.867 36.7005 222.606 37.0663 223.187C38.8993 226.08 41.7694 227.573 44.9638 228.124C51.5715 229.27 58.281 229.444 63.5913 229.655Z" fill="#003282"/>
<path id="Vector_2" d="M122.593 148.714C123.544 148.111 124.54 147.583 125.426 146.885C126.538 146.021 126.836 146.583 127.048 147.639C127.734 151.004 128.258 154.428 129.186 157.713C131.121 164.562 132.667 171.49 134.063 178.456C134.566 180.833 134.95 183.233 135.213 185.649C135.341 186.923 135.929 187.236 137.016 187.497C143.635 189.092 149.707 191.815 154.395 196.899C160.874 203.922 162.662 212.238 160.557 221.433C159.66 225.366 156.661 227.41 153.214 228.9C148.311 231.008 143.076 231.54 137.891 232.253C131.039 233.134 124.121 233.386 117.223 233.007C111.489 232.721 105.82 231.664 100.368 229.866C96.1476 228.504 94.5598 225.166 93.7075 221.146C91.8217 212.264 93.3077 204.174 99.0328 197.008C100.848 194.757 103.069 192.865 105.58 191.43C105.966 191.253 106.285 190.957 106.488 190.584C106.692 190.212 106.771 189.784 106.712 189.364C106.282 178.668 105.49 168.013 102.891 157.585C102.593 156.382 103.034 156.095 103.966 155.876C104.992 155.631 106.018 155.371 107.043 155.122C108.469 159.41 109.012 163.879 109.721 168.322C109.868 169.243 109.827 170.208 111.158 170.348C116.189 170.883 121.172 170.962 126.003 169.103C127.112 168.677 127.538 168.202 127.187 166.878C125.611 160.828 124.128 154.764 122.593 148.714ZM98.4181 220.218C98.4021 220.173 98.3806 220.13 98.354 220.09C98.354 220.09 98.2936 220.09 98.2597 220.09L98.4332 220.218C98.8518 223.273 102.073 226.313 105.629 227.007C111.852 228.199 118.158 228.568 124.487 228.844C130.061 229.124 135.649 228.744 141.134 227.712C145.815 226.799 150.438 225.638 154.248 222.474C155.127 221.765 155.802 220.834 156.201 219.777C156.477 219.053 156.79 218.295 155.975 217.755C155.24 217.273 154.708 217.835 154.165 218.283C153.55 218.816 152.897 219.302 152.211 219.739C147.165 222.79 141.617 224.22 135.779 224.348C129.367 224.487 122.955 224.416 116.57 224.348C114.515 224.322 112.463 223.997 110.415 223.782C106.187 223.318 102.227 221.961 98.4181 220.218ZM111.354 189.122C113.014 188.126 114.832 187.419 116.729 187.033C120.915 186.079 125.158 185.867 129.427 185.965C130.529 185.992 130.962 185.909 130.634 184.559C129.88 181.409 129.375 178.196 128.722 175.017C128.243 172.697 128.202 172.678 125.844 173.425C121.273 174.877 116.6 175.043 111.89 174.428C110.604 174.259 110.4 174.591 110.479 175.726C110.804 180.093 111.06 184.464 111.354 189.122Z" fill="#003282"/>
<path id="Vector_3" d="M152.977 99.7263C152.818 97.5879 153.444 95.5588 153.757 93.2318C156.435 96.2678 158.792 99.3718 162.711 100.846C162.677 96.3546 162.518 92.0701 163.789 87.8498C166.011 80.4615 170.503 76.558 178.2 75.6453C179.709 75.4642 180.946 73.5634 180.422 72.2094C180.199 71.6362 179.637 71.6701 179.166 71.5569C169.16 69.147 161.376 63.6104 156.348 54.6418C152.796 48.2981 151.521 41.2718 151.962 34.023C152.905 18.4806 161.478 8.32019 175.108 1.88601C178.004 0.520724 181.263 0.313291 184.427 0.117173C195.742 -0.584326 206.177 1.76909 214.633 9.75336C223.176 17.8206 227.652 27.751 226.736 39.6538C225.604 54.3928 217.349 63.931 204.107 69.6335C202.791 70.1992 201.403 70.5952 200.101 71.1949C199.347 71.5343 197.903 71.259 198.216 72.7261C198.529 74.1932 199.788 73.3522 200.524 73.3409C202.561 73.3107 204.495 73.4804 206.366 74.3705C210.831 76.4976 212.627 80.4954 211.035 85.1645C210.905 85.4697 210.873 85.808 210.945 86.132C211.016 86.4561 211.188 86.7495 211.435 86.9711C215.338 91.4026 214.905 96.5281 213.57 101.68C213.283 102.785 213.57 103.656 213.732 104.558C214.81 110.215 213.124 114.809 208.452 118.218C205.876 120.104 203.213 121.857 199.958 122.367C199.091 122.502 198.917 123.019 198.917 123.822C198.917 126.493 197.526 128.348 195.146 129.344C193.302 130.141 191.317 130.558 189.308 130.572C187.299 130.585 185.309 130.195 183.454 129.423C181.904 128.805 180.667 127.805 180.418 125.931C180.282 124.905 178.264 123.826 177.235 124.173C166.211 127.881 156.518 124.705 147.395 118.474C146.373 117.777 145.886 117.105 146.72 115.944C147.346 115.069 147.195 113.719 148.398 113.183C154.033 119.146 164.672 123.502 174.798 119.942C176.684 119.274 178.193 119.021 179.664 120.503C179.717 120.553 179.894 120.481 179.788 120.503V108.827C178.657 109.147 177.838 109.453 176.99 109.604C176.02 109.774 175.179 109.378 174.893 108.42C174.807 108.197 174.769 107.96 174.78 107.722C174.792 107.484 174.853 107.251 174.959 107.038C175.066 106.826 175.215 106.637 175.399 106.485C175.582 106.333 175.795 106.222 176.024 106.157C177.439 105.636 178.589 104.856 179.106 103.354C179.419 102.457 179.434 101.725 178.57 101.035C175.176 98.3271 174.798 94.4047 174.546 90.505C174.478 89.3962 174.995 88.1478 176.432 88.1214C177.868 88.095 178.472 89.151 178.555 90.4748C178.634 91.7194 178.555 92.9602 178.879 94.201C179.205 95.347 179.891 96.3575 180.836 97.083C181.781 97.8085 182.934 98.2104 184.125 98.229C185.834 98.2554 187.52 96.7958 187.972 94.4575C188.953 89.4527 187.674 84.9948 184.088 81.3553C182.3 79.5412 179.939 79.0924 177.446 79.5865C172.837 80.5331 169.903 83.4485 168.428 87.7706C166.555 93.0743 166.618 98.8696 168.606 104.131C168.983 105.116 169.334 106.096 168.229 106.79C167.123 107.484 165.92 107.48 165.027 106.375C164.51 105.745 163.808 105.292 163.02 105.082C159.363 103.95 155.954 102.132 152.977 99.7263ZM185.034 76.8559C186.132 77.8704 187.199 79.2131 188.583 77.1916C190.092 76.5504 191.551 75.8451 193.083 75.3058C194.052 74.9551 194.018 74.2837 194.007 73.5106C194.007 72.5187 193.283 72.6658 192.679 72.6658C190.541 72.6658 188.406 72.6658 186.268 72.6658C185.8 72.6658 185.155 72.4697 184.989 73.1334C184.695 74.3592 184.129 75.6264 185.034 76.8559ZM184.657 122.227C184.114 124.335 184.544 125.569 186.298 125.901C188.444 126.312 190.707 126.5 192.755 125.523C194.026 124.924 195.349 124.049 194.474 122.201C194.935 120.813 194.931 119.866 192.966 119.889C191.584 119.853 190.226 119.513 188.991 118.893C185.483 117.29 183.82 113.345 185.834 110.596C186.965 109.087 186.724 108.389 185.396 107.473C185.083 107.254 184.97 106.745 184.642 106.16L184.657 122.227ZM190.069 68.9584C199.411 69.2337 207.852 64.5721 213.547 59.3448C218.895 54.4419 221.776 48.2868 222.715 41.1247C223.202 37.4249 223.432 33.7288 222.451 30.1308C218.42 15.3427 207.43 4.86172 191.05 3.82079C179.637 3.1042 169.967 6.75502 162.733 15.9801C153.704 27.4983 153.15 41.2492 160.504 53.318C167.131 64.2252 177.755 68.3813 190.058 68.9584H190.069ZM202.515 117.011C204.26 116.305 205.839 115.246 207.154 113.9C210.051 110.803 211.103 106.775 209.462 103.981C208.802 102.849 208.991 102.238 209.594 101.265C211.48 98.2479 211.276 92.5454 208.708 90.1882C206.573 88.2308 206.204 86.6958 207.264 84.018C208.516 80.865 206.245 78.0666 202.926 77.3764C199.185 76.5994 196.051 77.8252 192.958 79.6167C190.729 80.9103 189.941 82.8187 190.695 85.1344C191.22 86.6731 193.185 87.5934 195.459 87.2577C196.636 87.076 197.797 86.805 198.932 86.4468C200.177 86.0697 201.165 86.4996 201.478 87.5783C201.791 88.6569 201.033 89.464 199.887 89.7243C199.094 89.9091 198.306 90.2297 197.51 90.2561C194.078 90.3767 191.91 91.6666 192.279 95.5362C192.271 95.7241 192.231 95.9092 192.159 96.083C191.902 96.9392 192.287 97.1654 193.09 97.1466C195.206 97.0938 197.311 97.2296 199.313 96.1622C200.192 95.6983 201.444 95.5663 202.33 96.4036C202.979 97.0297 202.885 97.9122 202.413 98.6665C202.245 98.9699 202.017 99.236 201.743 99.4486C201.468 99.6612 201.154 99.816 200.818 99.9036C197.707 100.594 194.584 101.344 191.367 100.982C189.975 100.824 189.262 101.457 188.704 102.529C188.146 103.6 188.602 104.452 189.398 105.191C190.56 106.262 192.004 106.341 193.456 106.259C195.267 106.174 197.066 105.922 198.83 105.504C200.052 105.199 201.41 105.504 201.704 106.881C201.777 107.172 201.786 107.475 201.73 107.77C201.675 108.065 201.557 108.345 201.384 108.59C201.212 108.836 200.988 109.041 200.729 109.193C200.47 109.344 200.181 109.438 199.883 109.468C197.394 109.732 194.957 110.505 192.423 110.29C190.891 110.162 189.764 110.705 189.556 112.293C189.349 113.881 190.152 115.046 191.778 115.499C193.898 116.117 196.161 116.03 198.227 115.25C200.663 114.356 201.32 114.654 202.504 117.011H202.515Z" fill="#003282"/>
<path id="Vector_4" d="M24.4973 112.84C21.3631 117.886 20.7937 123.536 20.8201 129.261C20.8147 133.084 21.2899 136.893 22.2344 140.598C22.8944 143.125 23.0415 143.238 25.591 142.608C29.9327 141.508 34.5007 141.694 38.7385 143.144C44.06 144.897 48.2728 150.023 48.5444 155.073C48.5783 155.691 48.9592 156.646 48.1672 156.906C47.511 157.117 46.9113 156.397 46.5115 155.854C46.1092 155.224 45.7489 154.569 45.4329 153.892C44.7691 152.716 43.7621 152.007 42.4911 152.697C41.2201 153.387 41.4124 154.5 42.1403 155.597C42.847 156.622 43.2888 157.807 43.4264 159.044C43.5811 160.398 44.5767 161.334 46.0929 161.013C46.9226 160.84 47.4016 160.96 47.775 161.696C48.9592 164.004 49.4646 166.421 48.7028 168.948C47.6128 172.576 43.928 173.553 41.1824 170.955C40.4877 170.235 39.8426 169.469 39.2514 168.662C38.9762 168.269 38.5668 167.991 38.1005 167.88C37.6342 167.769 37.1434 167.832 36.7207 168.058C35.8872 168.465 35.9098 169.314 36.0758 170.193C36.502 172.456 38.1237 173.764 39.8246 174.915C41.0315 175.729 40.9976 176.423 40.3451 177.498C38.2557 180.942 34.3484 181.27 31.7348 178.204C30.9207 177.249 30.251 176.18 29.7472 175.032C29.2154 173.813 28.2386 173.146 27.0543 173.719C25.7758 174.319 25.7305 175.605 26.2397 176.812C26.7261 177.972 27.439 179.023 28.3367 179.904C29.5134 181.066 29.091 181.79 27.9142 182.545C25.508 184.098 22.6002 183.616 20.6918 181.289C19.9684 180.341 19.4146 179.276 19.055 178.139C18.5722 176.812 17.5464 176.156 16.249 176.71C14.9516 177.264 15.027 178.509 15.4947 179.633C15.9624 180.757 16.5243 181.73 17.1428 182.971C13.6014 183.163 11.1688 181.617 9.15857 179.218C3.44098 172.392 2.26427 161.911 6.8655 154.247C8.66828 151.23 8.80782 148.665 8.1365 145.354C5.39461 131.882 6.43932 118.723 12.5152 106.194C14.2916 102.528 16.4263 99.0661 19.2323 96.064C20.603 101.395 22.3266 106.629 24.3917 111.731C24.4836 112.093 24.5192 112.467 24.4973 112.84Z" fill="#C5E6F0"/>
<path id="Vector_5" d="M152.977 99.7266C155.954 102.131 159.361 103.947 163.017 105.078C163.805 105.289 164.507 105.741 165.024 106.372C165.917 107.477 167.087 107.503 168.226 106.787C169.365 106.07 168.98 105.112 168.603 104.128C166.615 98.8661 166.552 93.0708 168.425 87.7671C169.889 83.445 172.834 80.5296 177.443 79.583C179.925 79.0738 182.297 79.5377 184.085 81.3518C187.671 84.9913 188.95 89.4492 187.969 94.454C187.509 96.7999 185.831 98.2594 184.122 98.2255C182.931 98.2069 181.778 97.805 180.833 97.0795C179.888 96.354 179.202 95.3435 178.876 94.1975C178.541 92.9567 178.631 91.7159 178.552 90.4713C178.469 89.1475 177.888 88.0877 176.429 88.1179C174.969 88.1481 174.475 89.3851 174.55 90.5166C174.796 94.4163 175.192 98.3387 178.575 101.047C179.438 101.737 179.423 102.468 179.11 103.366C178.593 104.875 177.443 105.648 176.029 106.168C175.8 106.233 175.587 106.345 175.403 106.497C175.22 106.649 175.07 106.837 174.964 107.05C174.857 107.263 174.796 107.496 174.785 107.734C174.773 107.971 174.812 108.209 174.897 108.431C175.184 109.389 176.029 109.785 176.994 109.615C177.843 109.465 178.669 109.159 179.793 108.839V120.5C179.898 120.5 179.721 120.56 179.668 120.5C178.186 119.018 176.696 119.27 174.803 119.938C164.695 123.498 154.06 119.142 148.403 113.18C148.915 110.419 150.322 107.971 151.167 105.32C151.767 103.457 151.808 101.405 152.977 99.7266Z" fill="#C5E6F0"/>
<path id="Vector_6" d="M122.593 148.714C124.102 154.748 125.584 160.828 127.194 166.855C127.545 168.179 127.119 168.654 126.01 169.08C121.179 170.939 116.204 170.86 111.165 170.325C109.834 170.181 109.876 169.22 109.729 168.299C109.019 163.864 108.476 159.395 107.051 155.099C111.599 153.873 115.846 151.92 120.013 149.762C120.851 149.351 121.635 148.786 122.593 148.714Z" fill="#C5E6F0"/>
<path id="Vector_7" d="M73.3595 155.344C72.8126 159.749 72.262 164.154 72.3374 168.605C72.3563 169.736 72.0206 170.264 70.8665 170.491C65.9183 171.501 61.0229 171.2 56.1577 170.113C55.3468 169.932 55.0262 169.54 55.1243 168.669C55.8786 162.095 56.8214 155.552 58.4922 149.133L73.3595 155.344Z" fill="#C5E6F0"/>
<path id="Vector_8" d="M53.3253 188.613C53.8043 183.676 54.2494 179.09 54.7095 174.341C56.154 174.628 57.523 174.918 58.8996 175.167C62.9249 175.867 67.0474 175.781 71.0401 174.915C71.6662 174.783 72.4016 174.341 72.3865 175.612C72.3375 179.429 72.8655 183.212 73.1408 187.01C73.1936 187.764 73.1748 188.141 72.1829 187.915C65.9599 186.429 59.7633 186.727 53.3253 188.613Z" fill="white"/>
<path id="Vector_9" d="M63.5913 229.655C58.281 229.443 51.5715 229.278 44.9638 228.146C41.7694 227.595 38.8992 226.102 37.0663 223.209C36.6891 222.628 35.9348 221.889 36.493 221.237C36.9833 220.652 37.8206 221.237 38.4165 221.482C41.8506 223.002 45.4755 224.049 49.1917 224.593C56.2021 225.561 63.2941 225.798 70.3536 225.302C74.7436 225.001 79.0733 224.605 83.2974 223.345C85.711 222.659 88.0239 221.658 90.1766 220.369C91.1685 219.758 91.5419 220.12 91.6097 221.124C91.704 222.598 90.9874 223.62 89.7994 224.393C85.9412 226.905 81.5964 228.165 77.1423 228.866C73.1482 229.492 69.0486 229.7 63.5913 229.655Z" fill="#00A7CD"/>
<path id="Vector_10" d="M111.354 189.122C111.06 184.465 110.803 180.093 110.49 175.726C110.411 174.595 110.615 174.259 111.901 174.429C116.6 175.043 121.273 174.877 125.855 173.425C128.212 172.671 128.254 172.698 128.733 175.017C129.385 178.196 129.883 181.41 130.645 184.559C130.973 185.909 130.539 185.992 129.438 185.966C125.169 185.868 120.926 186.079 116.739 187.033C114.839 187.418 113.017 188.125 111.354 189.122Z" fill="white"/>
<path id="Vector_11" d="M98.4187 220.218C102.243 221.961 106.188 223.318 110.397 223.763C112.445 223.978 114.497 224.303 116.552 224.329C122.964 224.405 129.375 224.476 135.76 224.329C141.599 224.201 147.147 222.772 152.193 219.72C152.879 219.284 153.532 218.797 154.146 218.265C154.69 217.816 155.221 217.254 155.957 217.737C156.771 218.276 156.458 219.034 156.183 219.758C155.784 220.815 155.109 221.746 154.229 222.455C150.42 225.619 145.796 226.781 141.116 227.693C135.631 228.726 130.043 229.105 124.469 228.825C118.159 228.549 111.853 228.18 105.611 226.988C102.054 226.305 98.8223 223.266 98.415 220.199L98.4187 220.218Z" fill="#00A7CD"/>
<path id="Vector_12" d="M98.4351 220.2L98.2603 220.071C98.2945 220.071 98.3401 220.071 98.3553 220.071C98.3821 220.111 98.4038 220.154 98.4199 220.2H98.4351Z" fill="#019DDD"/>
<path id="Vector_13" d="M190.059 68.9578C177.757 68.3808 167.132 64.2246 160.494 53.325C153.14 41.2562 153.706 27.4977 162.723 15.9871C169.95 6.75447 179.627 3.10366 191.04 3.82024C207.419 4.84986 218.41 15.3422 222.441 30.1302C223.422 33.7282 223.196 37.4243 222.705 41.1242C221.766 48.29 218.885 54.4376 213.537 59.3443C207.842 64.5716 199.401 69.2332 190.059 68.9578ZM189.471 6.78842C187.536 6.58853 185.217 6.9355 182.939 7.26363C164.835 9.86973 156.429 28.8215 158.99 41.1807C160.095 46.5174 162.007 51.5524 165.82 55.5728C173.846 64.0398 183.682 67.2644 195.237 65.5409C212.115 63.0177 223.501 45.7669 218.621 29.3872C214.363 15.1083 204.202 6.76579 189.471 6.78842Z" fill="#00A7CD"/>
<path id="Vector_14" d="M202.506 117.011C201.322 114.646 200.666 114.371 198.225 115.261C196.159 116.041 193.896 116.128 191.776 115.51C190.151 115.057 189.336 113.945 189.555 112.304C189.773 110.664 190.89 110.173 192.421 110.302C194.955 110.516 197.392 109.743 199.881 109.479C200.18 109.449 200.468 109.355 200.727 109.204C200.986 109.052 201.21 108.847 201.383 108.602C201.556 108.356 201.674 108.077 201.729 107.782C201.784 107.487 201.775 107.183 201.703 106.892C201.409 105.515 200.051 105.21 198.829 105.515C197.065 105.933 195.265 106.186 193.454 106.27C192.002 106.353 190.558 106.27 189.396 105.202C188.6 104.448 188.129 103.637 188.702 102.54C189.276 101.442 189.973 100.835 191.365 100.993C194.582 101.371 197.705 100.616 200.816 99.9148C201.152 99.8273 201.467 99.6725 201.741 99.4599C202.015 99.2472 202.243 98.9812 202.412 98.6778C202.883 97.9235 202.977 97.0598 202.329 96.4149C201.461 95.5776 200.209 95.7096 199.312 96.1735C197.309 97.2408 195.204 97.105 193.089 97.1578C192.285 97.1767 191.901 96.9504 192.157 96.0943C192.229 95.9205 192.27 95.7354 192.278 95.5474C191.901 91.6929 194.077 90.4031 197.509 90.2673C198.305 90.2409 199.093 89.9203 199.885 89.7355C201.016 89.4677 201.771 88.672 201.476 87.5895C201.182 86.5071 200.175 86.0583 198.931 86.4581C197.795 86.8162 196.634 87.0873 195.457 87.269C193.194 87.6046 191.218 86.6844 190.694 85.1456C189.909 82.8299 190.713 80.9215 192.957 79.6279C196.049 77.8364 199.183 76.6107 202.925 77.3876C206.244 78.0778 208.514 80.8763 207.262 84.0292C206.202 86.707 206.572 88.242 208.706 90.1994C211.275 92.5566 211.467 98.2553 209.593 101.276C208.989 102.249 208.801 102.868 209.461 103.992C211.101 106.786 210.049 110.814 207.153 113.911C205.834 115.254 204.252 116.309 202.506 117.011Z" fill="#C5E6F0"/>
<path id="Vector_15" d="M184.658 122.227V106.176C184.979 106.76 185.092 107.27 185.413 107.488C186.74 108.405 186.967 109.091 185.85 110.611C183.836 113.357 185.499 117.302 189.007 118.908C190.235 119.524 191.583 119.862 192.956 119.9C194.913 119.878 194.917 120.824 194.464 122.209C191.194 122.495 187.921 121.858 184.658 122.227Z" fill="#FFF13F"/>
<path id="Vector_16" d="M184.659 122.227C187.932 121.85 191.206 122.495 194.465 122.208C195.34 124.06 194.016 124.935 192.745 125.534C190.697 126.5 188.434 126.311 186.288 125.912C184.534 125.568 184.104 124.335 184.659 122.227Z" fill="#00A7CD"/>
<path id="Vector_17" d="M185.036 76.856C184.12 75.6265 184.686 74.3593 184.995 73.126C185.161 72.4622 185.806 72.6621 186.273 72.6583C188.408 72.6394 190.543 72.6583 192.685 72.6583C193.288 72.6583 194.005 72.5112 194.013 73.5031C194.013 74.2763 194.058 74.9476 193.089 75.2984C191.557 75.849 190.071 76.5543 188.589 77.1841C187.424 76.9842 186.266 76.6146 185.036 76.856Z" fill="#00A7CD"/>
<path id="Vector_18" d="M185.036 76.8561C186.254 76.6147 187.412 76.9843 188.585 77.188C187.212 79.202 186.145 77.8706 185.036 76.8561Z" fill="#FFF13F"/>
<path id="Vector_19" d="M189.471 6.78886C204.203 6.78886 214.363 15.1239 218.625 29.3877C223.528 45.7673 212.13 63.0182 195.242 65.5413C183.671 67.2724 173.835 64.0327 165.824 55.5732C162.015 51.5528 160.099 46.5216 158.994 41.1812C156.433 28.822 164.855 9.87772 182.943 7.26407C185.217 6.92087 187.536 6.57389 189.471 6.78886ZM162.958 38.4318C162.958 41.2566 164.319 46.3821 167.51 50.9418C175.026 61.6718 193.533 66.2579 206.564 55.8448C213.262 50.5006 216.37 43.1386 215.751 34.796C214.363 15.9687 196.403 7.67894 182.562 11.7031C169.995 15.3464 162.976 23.6399 162.958 38.4167V38.4318Z" fill="#062F85"/>
<path id="Vector_20" d="M162.957 38.4166C162.976 23.6399 169.995 15.3464 182.569 11.6918C196.418 7.66758 214.378 15.9573 215.758 34.7847C216.373 43.1272 213.269 50.4892 206.571 55.8334C193.533 66.2428 175.034 61.6566 167.517 50.9305C164.319 46.3669 162.942 41.2415 162.957 38.4166Z" fill="#C5E6F0"/>
</g>
</svg>
