<svg preserveAspectRatio="none" width="100%" height="100%" overflow="visible" style="display: block;" viewBox="0 0 135.666 160.83" fill="none" xmlns="http://www.w3.org/2000/svg">
<g id="Group 1707483192">
<path id="Vector" d="M67.2754 109.138C94.1543 109.138 115.944 87.3592 115.944 60.4933C115.944 33.6274 94.1543 11.8483 67.2754 11.8483C40.3966 11.8483 18.6069 33.6274 18.6069 60.4933C18.6069 87.3592 40.3966 109.138 67.2754 109.138Z" fill="var(--fill-0, #00A7CD)"/>
<path id="Vector_2" d="M67.2762 110.991C57.2841 110.991 47.5163 108.029 39.2082 102.48C30.9 96.9317 24.4246 89.0452 20.6007 79.8181C16.7769 70.591 15.7764 60.4378 17.7258 50.6423C19.6751 40.8469 24.4868 31.8492 31.5523 24.7871C38.6179 17.725 47.6199 12.9156 57.42 10.9672C67.2202 9.01876 77.3783 10.0188 86.6099 13.8408C95.8414 17.6627 103.732 24.1351 109.283 32.4392C114.834 40.7434 117.797 50.5064 117.797 60.4938C117.782 73.8815 112.454 86.7164 102.983 96.183C93.5115 105.65 80.6704 110.975 67.2762 110.991ZM67.2762 13.7005C58.017 13.7005 48.9656 16.4449 41.2668 21.5866C33.568 26.7283 27.5675 34.0364 24.0241 42.5868C20.4807 51.1371 19.5536 60.5457 21.36 69.6227C23.1664 78.6997 27.6252 87.0374 34.1725 93.5816C40.7198 100.126 49.0616 104.582 58.1429 106.388C67.2243 108.193 76.6374 107.267 85.1919 103.725C93.7463 100.183 101.058 94.1858 106.202 86.4907C111.346 78.7956 114.092 69.7486 114.092 60.4938C114.081 48.0867 109.146 36.1908 100.368 27.4176C91.591 18.6445 79.6893 13.7111 67.2762 13.7005Z" fill="var(--fill-0, #003282)"/>
<path id="Vector_3" d="M52.9725 30.685C67.1168 27.2203 74.7269 13.4014 87.3771 7.42778C91.4539 5.68112 95.8616 4.84059 100.295 4.96436C104.729 5.08813 109.083 6.17324 113.056 8.14462C116.508 9.91992 119.458 12.5329 121.637 15.744C123.816 18.955 125.153 22.6615 125.527 26.5234C125.944 30.9057 125.586 35.3271 124.471 39.5857C123.547 43.7513 121.814 47.6952 119.371 51.1944C117.957 53.1856 121.164 54.9378 122.559 53.0462C127.249 46.1036 129.639 37.8639 129.392 29.4903C129.423 25.3555 128.548 21.2641 126.827 17.5039C125.106 13.7438 122.581 10.4063 119.431 7.72646C111.881 1.75286 101.163 0.120077 91.8993 2.09137C84.4486 3.66441 78.3725 8.4433 72.7745 13.3616C66.5391 18.8772 60.3236 25.0897 51.9764 27.1208C51.521 27.2677 51.1401 27.5851 50.9136 28.0065C50.687 28.4279 50.6324 28.9205 50.7612 29.3812C50.8899 29.8419 51.192 30.235 51.6043 30.478C52.0165 30.721 52.5068 30.7952 52.9725 30.685Z" fill="var(--fill-0, #003282)"/>
<path id="Vector_4" d="M52.4726 28.9135C68.0115 25.2497 76.3985 7.36875 92.0967 3.98371C96.8264 2.92864 101.731 2.92864 106.46 3.98371C109.214 4.6512 111.887 5.61943 114.429 6.87095C121.82 10.475 126.382 18.4797 127.378 26.6436C128.374 34.8075 125.625 46.0777 120.983 52.2305" fill="var(--fill-0, #003282)"/>
<path id="Vector_5" d="M123.117 29.6899C123.015 29.0374 122.778 28.4134 122.42 27.858C122.965 27.9736 123.528 27.9736 124.074 27.858C124.822 27.7123 125.485 27.2845 125.926 26.6633C126.207 26.3186 126.411 25.9181 126.524 25.4885C126.593 25.1066 126.593 24.7155 126.524 24.3336C126.445 23.6961 126.198 23.0911 125.807 22.5814C124.9 21.4353 123.849 20.4113 122.679 19.5348C121.912 18.9356 121.114 18.3772 120.288 17.8622C119.701 17.3959 118.952 17.1803 118.206 17.2624C117.46 17.3444 116.777 17.7174 116.304 18.3003C114.424 20.3546 112.705 22.5515 111.164 24.8712C110.74 25.4806 110.558 26.2262 110.654 26.9624C110.75 27.6987 111.116 28.3729 111.682 28.8536C112.419 29.5307 113.276 30.3072 114.153 30.9842C115.155 31.7601 116.237 32.4276 117.38 32.9754C118.003 33.2686 118.684 33.4183 119.372 33.4135C119.929 33.4246 120.481 33.3088 120.986 33.075C121.472 32.8296 121.9 32.4834 122.241 32.0595C122.554 31.7542 122.794 31.3832 122.946 30.9734C123.098 30.5635 123.156 30.1252 123.117 29.6899ZM119.631 22.1234L120.826 23.0592C121.822 23.8557 121.504 24.254 121.384 24.4133C120.946 24.9708 120.229 24.4133 119.97 24.1942L118.755 23.2584L119.631 22.1234ZM118.735 28.3558C118.667 28.4428 118.579 28.5118 118.478 28.5569C118.377 28.602 118.267 28.6218 118.157 28.6147C117.81 28.5478 117.486 28.3897 117.221 28.1567L115.786 27.0417L116.762 25.7872L118.217 26.9222C118.506 27.1208 118.734 27.3968 118.874 27.7187C118.906 27.8235 118.911 27.9345 118.89 28.042C118.87 28.1495 118.823 28.2504 118.755 28.3359L118.735 28.3558Z" fill="var(--fill-0, white)"/>
<path id="Vector_6" d="M118.614 17.3239C119.247 17.3499 119.861 17.5497 120.387 17.9013C121.213 18.4164 122.011 18.9747 122.778 19.5739C123.948 20.4504 124.999 21.4744 125.906 22.6205C126.297 23.1302 126.544 23.7352 126.623 24.3727C126.691 24.7546 126.691 25.1457 126.623 25.5276C126.509 25.9572 126.306 26.3577 126.025 26.7024C125.584 27.3237 124.921 27.7514 124.172 27.8972C123.96 27.9177 123.747 27.9177 123.535 27.8972C123.193 27.8968 122.852 27.8567 122.519 27.7777C122.877 28.3331 123.114 28.9571 123.216 29.6096C123.267 30.0234 123.229 30.4432 123.106 30.8414C122.982 31.2396 122.775 31.607 122.499 31.9194C122.158 32.3433 121.73 32.6895 121.244 32.9349C120.771 33.1593 120.254 33.275 119.73 33.2734H119.63C118.942 33.2782 118.261 33.1285 117.638 32.8353C116.495 32.2875 115.413 31.62 114.411 30.8441C113.534 30.1671 112.678 29.3906 111.941 28.7136C111.374 28.2328 111.008 27.5586 110.912 26.8223C110.816 26.0861 110.998 25.3406 111.423 24.7312C112.963 22.4114 114.682 20.2145 116.562 18.1602C116.832 17.8577 117.16 17.6121 117.526 17.4377C117.892 17.2634 118.289 17.1637 118.694 17.1447M120.945 24.5121C121.038 24.5155 121.131 24.4954 121.215 24.4536C121.298 24.4119 121.37 24.3498 121.423 24.2732C121.543 24.1139 121.861 23.7156 120.865 22.9192L119.67 21.9833L118.754 23.1581L119.969 24.094C120.229 24.335 120.555 24.4942 120.905 24.5519M118.256 28.5343C118.357 28.5386 118.458 28.5171 118.548 28.4718C118.639 28.4265 118.716 28.359 118.774 28.2755C118.842 28.1899 118.889 28.0891 118.909 27.9816C118.93 27.874 118.925 27.7631 118.893 27.6582C118.753 27.3364 118.525 27.0604 118.236 26.8617L116.781 25.7268L115.805 26.9812L117.24 28.0963C117.506 28.3293 117.829 28.4874 118.176 28.5543M118.574 15.034C117.886 15.052 117.208 15.2055 116.579 15.4857C115.95 15.7659 115.383 16.1672 114.909 16.6668C112.887 18.931 111.042 21.3475 109.391 23.8948C108.761 24.9255 108.51 26.1431 108.681 27.3386C108.852 28.5341 109.434 29.6327 110.327 30.4459C111.084 31.1229 112 31.9393 112.937 32.676C114.056 33.5723 115.272 34.3403 116.562 34.9659C117.453 35.3852 118.426 35.6028 119.411 35.6031H119.571C120.424 35.6097 121.268 35.426 122.041 35.0655C122.818 34.6667 123.498 34.1026 124.033 33.4128C124.868 32.4226 125.314 31.163 125.288 29.8684C126.205 29.4987 127.004 28.886 127.599 28.0963C128.081 27.5162 128.428 26.836 128.615 26.1051C128.778 25.4545 128.818 24.7793 128.734 24.1139C128.625 23.1096 128.246 22.1534 127.639 21.3461C126.622 20.0589 125.443 18.9078 124.133 17.9212C123.276 17.2641 122.399 16.627 121.563 16.1093C120.683 15.5395 119.663 15.2226 118.614 15.1933L118.574 15.034Z" fill="var(--fill-0, #003282)"/>
<path id="Vector_7" d="M114.909 17.3039C114.987 16.2958 114.872 15.2822 114.571 14.3171C114.243 13.3424 113.737 12.4374 113.076 11.6489C111.632 9.97229 109.615 8.8933 107.419 8.62227C106.39 8.50193 105.348 8.58309 104.351 8.86122C103.371 9.12489 102.456 9.58564 101.661 10.2152C100.844 10.8627 100.167 11.6687 99.6692 12.5848C99.1822 13.5069 98.8778 14.5143 98.7727 15.5517C98.6949 16.5597 98.8098 17.5734 99.1114 18.5385C99.4386 19.5132 99.9453 20.4182 100.605 21.2067C101.318 22.0295 102.184 22.7059 103.155 23.1979C104.118 23.7248 105.173 24.0627 106.263 24.1935C107.292 24.3055 108.332 24.2244 109.331 23.9545C110.306 23.6781 111.218 23.2186 112.021 22.6005C112.843 21.9501 113.521 21.1365 114.013 20.2111C114.506 19.3129 114.811 18.3237 114.909 17.3039ZM109.291 17.9212C108.936 18.6005 108.35 19.1303 107.638 19.4146C107.29 19.554 106.916 19.6152 106.542 19.5938C106.144 19.5648 105.756 19.4493 105.407 19.2553C105.043 19.0744 104.728 18.8079 104.49 18.4787C104.266 18.1771 104.11 17.8307 104.032 17.4632C103.962 17.0881 103.962 16.7033 104.032 16.3282C104.092 15.9372 104.22 15.5597 104.411 15.2131C104.591 14.8664 104.834 14.5559 105.128 14.2972C105.402 14.0495 105.719 13.8539 106.064 13.7197C106.416 13.5975 106.788 13.5434 107.16 13.5605C107.557 13.5793 107.946 13.6883 108.295 13.879C108.65 14.0728 108.962 14.337 109.212 14.6556C109.428 14.9614 109.584 15.3063 109.67 15.6711C109.79 16.3973 109.656 17.1425 109.291 17.7818V17.9212Z" fill="var(--fill-0, white)"/>
<path id="Vector_8" d="M106.48 8.56358C106.792 8.5438 107.105 8.5438 107.417 8.56358C109.614 8.8346 111.631 9.9136 113.075 11.5902C113.735 12.3787 114.241 13.2837 114.569 14.2584C114.87 15.2235 114.985 16.2372 114.907 17.2452C114.817 18.2855 114.512 19.2958 114.011 20.2121C113.519 21.1376 112.841 21.9511 112.019 22.6015C111.216 23.2196 110.304 23.6792 109.329 23.9556C108.634 24.1401 107.917 24.2339 107.198 24.2343H106.261C105.171 24.1036 104.116 23.7657 103.154 23.2387C102.182 22.7467 101.316 22.0704 100.604 21.2475C99.9435 20.459 99.4367 19.5541 99.1095 18.5793C98.808 17.6142 98.693 16.6006 98.7708 15.5925C98.8759 14.5551 99.1803 13.5477 99.6673 12.6256C100.165 11.7096 100.842 10.9035 101.659 10.2561C102.454 9.6265 103.37 9.16575 104.349 8.90208C105.042 8.70128 105.759 8.6007 106.48 8.6034M106.66 19.5351C106.987 19.5373 107.312 19.4764 107.616 19.3559C108.326 19.0906 108.919 18.5827 109.289 17.9222C109.674 17.2388 109.794 16.4383 109.628 15.6722C109.542 15.3073 109.387 14.9625 109.17 14.6567C108.921 14.3381 108.609 14.0738 108.254 13.8801C107.904 13.6893 107.516 13.5804 107.118 13.5615H106.979C106.653 13.5643 106.331 13.618 106.022 13.7208C105.678 13.8549 105.36 14.0506 105.086 14.2982C104.793 14.557 104.55 14.8675 104.369 15.2142C104.178 15.5608 104.05 15.9382 103.99 16.3293C103.92 16.7043 103.92 17.0892 103.99 17.4642C104.068 17.8318 104.224 18.1782 104.448 18.4798C104.687 18.8089 105.001 19.0754 105.365 19.2563C105.714 19.4503 106.102 19.5658 106.5 19.5948H106.64M106.461 6.4529C105.539 6.45049 104.621 6.57103 103.731 6.81132C102.479 7.16479 101.308 7.76009 100.285 8.56358C99.2053 9.38714 98.3153 10.4329 97.6751 11.63C97.0077 12.8602 96.6072 14.2171 96.4998 15.6124C96.391 16.9178 96.5468 18.2316 96.958 19.4754C97.3958 20.7223 98.0724 21.8721 98.9501 22.8604C99.8357 23.9206 100.918 24.7995 102.138 25.449C103.37 26.1227 104.725 26.5425 106.122 26.6835C106.513 26.7124 106.906 26.7124 107.297 26.6835C108.221 26.6892 109.14 26.5618 110.027 26.3052C111.283 25.9563 112.46 25.3681 113.493 24.5728C114.566 23.7401 115.449 22.6878 116.083 21.4865C116.734 20.2926 117.134 18.9779 117.258 17.6235C117.375 16.3195 117.226 15.0054 116.82 13.7606C116.412 12.5154 115.77 11.3596 114.927 10.3557C114.034 9.30101 112.945 8.42882 111.72 7.78701C110.493 7.09806 109.136 6.67092 107.736 6.53255H106.56L106.461 6.4529ZM106.64 17.3647C106.581 17.3808 106.519 17.3808 106.461 17.3647C106.391 17.3412 106.33 17.3 106.281 17.2452C106.27 17.1793 106.27 17.112 106.281 17.0461C106.271 16.9335 106.271 16.8202 106.281 16.7076C106.301 16.5731 106.348 16.4443 106.421 16.3293C106.48 16.1925 106.569 16.0703 106.68 15.9708C106.75 15.9097 106.831 15.8624 106.919 15.8315H107.098H107.317C107.314 15.8652 107.307 15.8985 107.297 15.931C107.312 15.9898 107.312 16.0515 107.297 16.1102C107.328 16.221 107.328 16.338 107.297 16.4487C107.281 16.584 107.233 16.7135 107.158 16.8271C107.098 16.9695 107.01 17.0982 106.899 17.2054L106.66 17.3448L106.64 17.3647Z" fill="var(--fill-0, #003282)"/>
<path id="Vector_9" d="M67.8334 158.978C104.273 158.978 133.814 129.452 133.814 93.0299C133.814 56.6075 104.273 27.0813 67.8334 27.0813C31.3934 27.0813 1.85298 56.6075 1.85298 93.0299C1.85298 129.452 31.3934 158.978 67.8334 158.978Z" fill="var(--fill-0, #C5E6F0)"/>
<path id="Vector_10" d="M67.8331 160.83C54.4127 160.83 41.2939 156.851 30.1367 149.397C18.9794 141.942 10.2852 131.348 5.15399 118.953C0.0228067 106.558 -1.31468 92.9206 1.31075 79.7659C3.93619 66.6112 10.4066 54.5306 19.9032 45.0525C29.3998 35.5744 41.4958 29.1249 54.6607 26.5201C67.8255 23.9152 81.4676 25.2721 93.8608 30.419C106.254 35.566 116.841 44.2716 124.283 55.4344C131.724 66.5972 135.686 79.7155 135.666 93.1294C135.613 111.086 128.447 128.29 115.734 140.978C103.021 153.666 85.7982 160.804 67.8331 160.83ZM67.8331 28.9331C55.1507 28.937 42.7542 32.6995 32.2111 39.745C21.668 46.7904 13.4516 56.8023 8.60103 68.5148C3.75041 80.2273 2.48332 93.1144 4.95995 105.547C7.43658 117.979 13.5457 129.398 22.5149 138.36C31.4841 147.322 42.9106 153.425 55.3496 155.896C67.7886 158.368 80.6815 157.097 92.3982 152.246C104.115 147.394 114.129 139.178 121.175 128.638C128.22 118.098 131.981 105.706 131.981 93.0298C131.96 76.0333 125.194 59.7393 113.168 47.7228C101.142 35.7063 84.8378 28.9489 67.8331 28.9331Z" fill="var(--fill-0, #003282)"/>
<path id="Vector_11" d="M81.5393 102.229C89.0319 102.229 95.1059 91.745 95.1059 78.8124C95.1059 65.8798 89.0319 55.3959 81.5393 55.3959C74.0467 55.3959 67.9727 65.8798 67.9727 78.8124C67.9727 91.745 74.0467 102.229 81.5393 102.229Z" fill="var(--fill-0, white)"/>
<path id="Vector_12" d="M81.5401 104.081C72.8941 104.081 66.1208 92.9902 66.1208 78.8128C66.1208 64.6355 72.8941 53.5445 81.5401 53.5445C90.1861 53.5445 96.9395 64.6554 96.9395 78.8128C96.9395 92.9702 90.1662 104.081 81.5401 104.081ZM81.5401 57.2481C75.1851 57.2481 69.8063 67.2041 69.8063 78.8128C69.8063 90.4215 75.1851 100.397 81.5401 100.397C87.8951 100.397 93.3536 90.5211 93.3536 78.8128C93.3536 67.1045 87.8752 57.2481 81.5401 57.2481Z" fill="var(--fill-0, #003282)"/>
<path id="Vector_13" d="M86.9022 83.9886C90.8851 83.9886 94.1138 80.0393 94.1138 75.1676C94.1138 70.2959 90.8851 66.3466 86.9022 66.3466C82.9193 66.3466 79.6906 70.2959 79.6906 75.1676C79.6906 80.0393 82.9193 83.9886 86.9022 83.9886Z" fill="var(--fill-0, #003282)"/>
<path id="Vector_14" d="M86.9019 85.8405C81.9016 85.8405 77.8376 81.0417 77.8376 75.1677C77.8376 69.2936 81.8219 64.5147 86.9019 64.5147C91.982 64.5147 95.9663 69.2936 95.9663 75.1677C95.9663 81.0417 91.9023 85.8405 86.9019 85.8405ZM86.9019 68.1985C83.9336 68.1985 81.543 71.3247 81.543 75.1677C81.543 79.0107 83.9336 82.1369 86.9019 82.1369C89.8703 82.1369 92.2609 79.0107 92.2609 75.1677C92.2609 71.3247 89.8503 68.1985 86.9019 68.1985Z" fill="var(--fill-0, #003282)"/>
<path id="Vector_15" d="M54.1471 102.229C61.6397 102.229 67.7137 91.745 67.7137 78.8124C67.7137 65.8798 61.6397 55.3959 54.1471 55.3959C46.6545 55.3959 40.5805 65.8798 40.5805 78.8124C40.5805 91.745 46.6545 102.229 54.1471 102.229Z" fill="var(--fill-0, white)"/>
<path id="Vector_16" d="M54.1479 104.081C45.5019 104.081 38.7286 92.9902 38.7286 78.8128C38.7286 64.6355 45.5418 53.5445 54.1479 53.5445C62.754 53.5445 69.5672 64.6554 69.5672 78.8128C69.5672 92.9702 62.7939 104.081 54.1479 104.081ZM54.1479 57.2481C47.7929 57.2481 42.434 67.2041 42.434 78.8128C42.434 90.4215 47.7929 100.397 54.1479 100.397C60.5029 100.397 65.8618 90.4414 65.8618 78.8128C65.8618 67.1842 60.5029 57.2481 54.1479 57.2481Z" fill="var(--fill-0, #003282)"/>
<path id="Vector_17" d="M59.5316 83.9886C63.5145 83.9886 66.7433 80.0393 66.7433 75.1676C66.7433 70.2959 63.5145 66.3466 59.5316 66.3466C55.5488 66.3466 52.32 70.2959 52.32 75.1676C52.32 80.0393 55.5488 83.9886 59.5316 83.9886Z" fill="var(--fill-0, #003282)"/>
<path id="Vector_18" d="M59.5314 85.8405C54.5311 85.8405 50.4671 81.0417 50.4671 75.1677C50.4671 69.2936 54.4514 64.5147 59.5314 64.5147C64.6114 64.5147 68.5957 69.2936 68.5957 75.1677C68.5957 81.0417 64.5317 85.8405 59.5314 85.8405ZM59.5314 68.1985C56.5631 68.1985 54.1525 71.3247 54.1525 75.1677C54.1525 79.0107 56.5631 82.1369 59.5314 82.1369C62.4997 82.1369 64.8903 79.0107 64.8903 75.1677C64.8903 71.3247 62.4798 68.1985 59.5314 68.1985Z" fill="var(--fill-0, #003282)"/>
<path id="Vector_19" d="M31.1784 119.174C30.8516 119.159 30.5334 119.065 30.252 118.898C29.9706 118.731 29.7346 118.498 29.5648 118.218C29.4453 118.007 29.369 117.774 29.3404 117.533C29.3118 117.292 29.3315 117.047 29.3982 116.814C29.4649 116.58 29.5774 116.363 29.7291 116.173C29.8809 115.983 30.0688 115.826 30.282 115.709C35.1424 113.096 38.9395 108.872 41.0197 103.762C41.1025 103.528 41.2317 103.312 41.3996 103.129C41.5675 102.945 41.7707 102.797 41.997 102.694C42.2233 102.591 42.4681 102.534 42.7168 102.527C42.9655 102.521 43.213 102.564 43.4446 102.655C43.6761 102.746 43.887 102.883 44.0646 103.057C44.2421 103.231 44.3828 103.439 44.4781 103.669C44.5734 103.899 44.6215 104.145 44.6195 104.394C44.6174 104.642 44.5653 104.888 44.4661 105.116C42.0909 111.06 37.7158 115.989 32.0948 119.055C31.8029 119.166 31.489 119.207 31.1784 119.174Z" fill="var(--fill-0, #003282)"/>
<path id="Vector_20" d="M70.4247 126.661C57.2565 126.661 45.0446 121.783 37.5541 113.44C37.3888 113.261 37.2606 113.052 37.177 112.824C37.0935 112.596 37.0561 112.353 37.0673 112.11C37.0784 111.868 37.1377 111.629 37.2418 111.41C37.3459 111.19 37.4927 110.993 37.6736 110.831C38.042 110.504 38.5248 110.335 39.0171 110.361C39.5094 110.387 39.9715 110.606 40.3033 110.971C47.3356 118.796 59.0694 123.296 71.6599 122.918C81.8074 122.882 91.613 119.248 99.331 112.663C99.7061 112.336 100.196 112.171 100.693 112.204C101.19 112.238 101.653 112.467 101.981 112.842C102.308 113.217 102.473 113.707 102.44 114.203C102.406 114.7 102.176 115.163 101.801 115.491C93.4186 122.636 82.7765 126.586 71.7595 126.641L70.4247 126.661Z" fill="var(--fill-0, #003282)"/>
<path id="Vector_21" d="M102.617 9.06063C102.76 8.71424 102.834 8.34298 102.833 7.96814C102.833 7.59331 102.758 7.22227 102.614 6.87633C102.469 6.53038 102.258 6.21633 101.992 5.95218C101.726 5.68804 101.41 5.47901 101.063 5.33708C101.063 5.33708 99.3299 4.50078 97.3377 3.68438C95.3456 2.86799 93.7718 2.3901 93.7519 2.3901C93.0526 2.14211 92.2853 2.16864 91.6049 2.46433C90.9245 2.76002 90.3817 3.30282 90.0863 3.98306C89.8133 4.68934 89.8247 5.47388 90.1182 6.17191C90.4116 6.86994 90.9643 7.42715 91.6601 7.72652C91.6601 7.72652 92.5765 8.1845 93.6523 8.70221L92.955 10.4346L91.6003 13.7798C91.5333 13.9773 91.4262 14.1589 91.2856 14.3131C91.1451 14.4673 90.9741 14.5908 90.7835 14.6758C90.3498 14.855 89.8626 14.855 89.4289 14.6758C89.1739 14.5824 88.9474 14.4246 88.7714 14.2178C88.4795 13.8412 88.0952 13.5463 87.6558 13.3616C87.0698 13.1519 86.4291 13.1519 85.843 13.3616C85.4508 13.4826 85.0946 13.6986 84.8062 13.9905C84.5177 14.2823 84.3058 14.6408 84.1895 15.0342C84.0641 15.4395 84.0403 15.8694 84.1202 16.2861C84.2001 16.7028 84.3813 17.0934 84.6477 17.4237C85.0539 17.9512 85.5374 18.4144 86.082 18.7976C86.7095 19.2144 87.3768 19.568 88.0742 19.8529C88.9674 20.2179 89.9187 20.4202 90.8832 20.4503C91.7758 20.4667 92.6607 20.283 93.473 19.9127C94.2885 19.5752 95.0172 19.0579 95.6046 18.3994C96.9241 16.5497 98.0082 14.5431 98.8319 12.4258C98.9713 12.0673 99.1506 11.5098 99.3897 10.7731C100.043 10.911 100.724 10.8151 101.314 10.5021C101.904 10.1891 102.365 9.67891 102.617 9.06063Z" fill="var(--fill-0, white)"/>
<path id="Vector_22" d="M92.7565 2.21095C93.1157 2.214 93.4722 2.2745 93.8123 2.39016C93.8123 2.39016 95.3861 2.88796 97.3982 3.68444C99.4103 4.48092 101.044 5.31722 101.064 5.33714C101.411 5.47907 101.727 5.6881 101.993 5.95224C102.259 6.21638 102.47 6.53043 102.614 6.87638C102.759 7.22233 102.833 7.59336 102.834 7.9682C102.834 8.34304 102.761 8.7143 102.618 9.06068C102.409 9.59177 102.044 10.0472 101.571 10.367C101.098 10.6869 100.539 10.8562 99.9681 10.8528H99.3904C99.1513 11.5895 98.972 12.147 98.8326 12.5055C98.0089 14.6228 96.9248 16.6294 95.6053 18.4791C95.0179 19.1376 94.2892 19.6549 93.4736 19.9924C92.6979 20.3167 91.8641 20.4794 91.0233 20.4703C90.0565 20.4429 89.1035 20.2335 88.2143 19.853C87.514 19.5826 86.8458 19.2354 86.2222 18.8176C85.6776 18.4344 85.194 17.9712 84.7878 17.4436C84.5214 17.1134 84.3403 16.7227 84.2604 16.3061C84.1805 15.8894 84.2043 15.4595 84.3296 15.0542C84.446 14.6608 84.6578 14.3022 84.9463 14.0104C85.2348 13.7186 85.591 13.5026 85.9831 13.3816C86.248 13.3015 86.5232 13.2612 86.7999 13.2621C87.14 13.2619 87.4773 13.3226 87.796 13.4413C88.2354 13.626 88.6196 13.9209 88.9116 14.2975C89.0875 14.5043 89.314 14.6621 89.569 14.7555C89.7963 14.8496 90.0402 14.897 90.2862 14.8949C90.5043 14.8955 90.7206 14.855 90.9237 14.7754C91.1143 14.6904 91.2852 14.5669 91.4258 14.4127C91.5663 14.2585 91.6735 14.0769 91.7405 13.8794L93.0951 10.5342L93.7924 8.80183C92.6569 8.28411 91.8002 7.82614 91.8002 7.82614C91.4313 7.69165 91.0932 7.48437 90.806 7.21662C90.5188 6.94888 90.2885 6.62613 90.1287 6.26759C89.9688 5.90906 89.8827 5.52205 89.8756 5.12959C89.8684 4.73713 89.9403 4.34724 90.087 3.98312C90.3036 3.45628 90.6743 3.00711 91.1507 2.69445C91.627 2.38178 92.1867 2.2202 92.7565 2.23086M92.7565 0.000717387C91.7455 -0.0164009 90.7532 0.273195 89.9103 0.831302C89.0674 1.38941 88.4136 2.18981 88.0351 3.1269C87.5463 4.33979 87.5425 5.69403 88.0245 6.90962C88.5066 8.1252 89.4375 9.10916 90.6249 9.65804L90.8639 9.79743L89.9276 12.1271C89.0436 11.343 87.9022 10.9107 86.7202 10.9125C85.6923 10.9127 84.6914 11.2412 83.8635 11.8502C83.0356 12.4592 82.4242 13.3167 82.1183 14.2975C81.8937 15.0455 81.8542 15.8369 82.0035 16.6035C82.1527 17.37 82.4861 18.0889 82.975 18.6981C83.5448 19.4037 84.2162 20.0211 84.9671 20.53C85.7181 21.0744 86.5264 21.5351 87.3776 21.9039C88.523 22.3775 89.7445 22.6406 90.9834 22.6805H91.1229C92.2332 22.6386 93.3239 22.3746 94.3303 21.9039C95.4721 21.4788 96.5012 20.7976 97.3384 19.9127C98.8087 17.8948 100.02 15.7007 100.944 13.3816L101.064 13.063C102.114 12.8471 103.07 12.3043 103.793 11.5125C104.516 10.7206 104.97 9.72023 105.089 8.65475C105.209 7.58927 104.988 6.51334 104.458 5.58115C103.928 4.64895 103.116 3.90833 102.14 3.46541C101.92 3.34593 100.267 2.54945 98.2947 1.73306C96.3224 0.91667 94.4896 0.279485 94.4697 0.259573C93.9134 0.0942667 93.3368 0.00714576 92.7565 0.000717387Z" fill="var(--fill-0, #003282)"/>
<path id="Vector_23" d="M116.044 36.4C116.201 35.9599 116.249 35.4886 116.184 35.0261C116.094 34.4568 115.868 33.9173 115.527 33.4531C115.084 32.8582 114.553 32.3344 113.953 31.8999C113.337 31.4269 112.668 31.026 111.961 30.7052C111.616 30.5657 111.23 30.5657 110.885 30.7052C110.714 30.7733 110.558 30.8755 110.428 31.0056C110.298 31.1357 110.196 31.291 110.128 31.4619C110.011 31.7394 109.989 32.0475 110.064 32.3389C110.14 32.6303 110.309 32.8888 110.546 33.0747L110.805 33.2141C111.17 33.3844 111.517 33.5913 111.841 33.8314C112.167 34.0347 112.413 34.3441 112.538 34.7075C112.576 34.967 112.512 35.231 112.359 35.4443L112.239 35.3049L111.901 34.9266C111.771 34.7774 111.632 34.6376 111.482 34.5084L111.044 34.15C110.381 33.5865 109.544 33.2698 108.673 33.254C108.279 33.2669 107.892 33.3729 107.546 33.5632C107.2 33.7535 106.904 34.0227 106.681 34.3491C106.424 34.6631 106.24 35.0304 106.143 35.4244C106.054 35.7705 106.054 36.1336 106.143 36.4797C106.202 36.8399 106.346 37.1811 106.562 37.4753C106.78 37.8075 107.057 38.0975 107.379 38.3315C107.768 38.6404 108.226 38.852 108.713 38.9488C109.056 39.0083 109.407 39.0083 109.749 38.9488C109.688 39.2644 109.724 39.5912 109.852 39.8862C109.98 40.1812 110.194 40.4305 110.466 40.6015L110.825 40.8803C111.201 41.147 111.666 41.2586 112.122 41.1918C112.578 41.1251 112.991 40.8851 113.275 40.5218C114.391 39.2872 115.323 37.8992 116.044 36.4ZM111.223 36.9178C111.052 37.1738 110.788 37.3526 110.486 37.4156C110.366 37.4436 110.24 37.4439 110.119 37.4163C109.999 37.3887 109.886 37.3339 109.789 37.2563C109.728 37.1986 109.68 37.1291 109.647 37.0521C109.613 36.9751 109.596 36.8921 109.596 36.8082C109.596 36.7244 109.613 36.6414 109.647 36.5644C109.68 36.4874 109.728 36.4179 109.789 36.3602C109.848 36.2752 109.925 36.2042 110.014 36.1526C110.104 36.1009 110.204 36.0698 110.307 36.0615C110.43 36.0525 110.554 36.0691 110.671 36.1102C110.787 36.1514 110.894 36.2161 110.984 36.3005C111.097 36.3707 111.198 36.4581 111.283 36.5593L111.443 36.7585L111.223 36.9178Z" fill="var(--fill-0, white)"/>
<path id="Vector_24" d="M111.283 30.5457C111.482 30.545 111.679 30.5857 111.861 30.6651C112.569 30.9859 113.237 31.3868 113.853 31.8599C114.458 32.289 114.99 32.8135 115.427 33.413C115.769 33.8773 115.994 34.4167 116.084 34.986C116.149 35.4486 116.101 35.9198 115.945 36.36C115.189 37.8735 114.215 39.2688 113.056 40.5017C112.667 40.9178 112.131 41.1675 111.562 41.1986C111.216 41.1887 110.881 41.0703 110.606 40.8601L110.247 40.5813C109.975 40.4104 109.761 40.161 109.633 39.866C109.505 39.5711 109.469 39.2443 109.53 38.9286H109.291C109.053 38.958 108.812 38.958 108.574 38.9286C108.086 38.8318 107.629 38.6202 107.239 38.3114C106.918 38.0774 106.641 37.7873 106.422 37.4551C106.206 37.161 106.063 36.8198 106.004 36.4595C105.915 36.1134 105.915 35.7503 106.004 35.4042C106.101 35.0103 106.285 34.6429 106.542 34.3289C106.764 34.0026 107.061 33.7333 107.407 33.543C107.753 33.3527 108.139 33.2468 108.534 33.2338C109.382 33.2693 110.195 33.5844 110.845 34.1298L111.283 34.4882C111.432 34.6175 111.572 34.7572 111.702 34.9064L112.04 35.2847L112.16 35.4241C112.312 35.2109 112.377 34.9469 112.339 34.6874C112.214 34.3239 111.968 34.0146 111.642 33.8112C111.318 33.5711 110.971 33.3643 110.606 33.194L110.347 33.0546C110.11 32.8687 109.941 32.6102 109.865 32.3188C109.79 32.0274 109.812 31.7192 109.929 31.4417C109.997 31.2708 110.099 31.1156 110.229 30.9855C110.359 30.8554 110.515 30.7532 110.686 30.6851C110.845 30.6233 111.013 30.5896 111.184 30.5855M110.168 37.475H110.347C110.648 37.412 110.913 37.2333 111.084 36.9772L111.223 36.7781L111.064 36.579C110.979 36.4777 110.878 36.3904 110.765 36.3201C110.6 36.1739 110.388 36.0894 110.168 36.0812C110.065 36.0895 109.965 36.1206 109.875 36.1722C109.785 36.2239 109.708 36.2948 109.65 36.3799C109.589 36.4376 109.54 36.507 109.507 36.5841C109.474 36.6611 109.457 36.7441 109.457 36.8279C109.457 36.9118 109.474 36.9947 109.507 37.0717C109.54 37.1488 109.589 37.2182 109.65 37.2759C109.798 37.3907 109.98 37.4537 110.168 37.4551M111.184 28.3553C110.732 28.3527 110.285 28.4407 109.869 28.6142C109.416 28.7893 109.006 29.0568 108.662 29.3997C108.319 29.7426 108.052 30.1532 107.877 30.6054C107.877 30.7846 107.757 30.9439 107.697 31.1032C106.479 31.3516 105.407 32.0662 104.709 33.0944C104.276 33.6504 103.958 34.2866 103.773 34.9661C103.63 35.6222 103.63 36.3013 103.773 36.9573C103.892 37.6181 104.158 38.2439 104.55 38.7892C104.896 39.315 105.335 39.7737 105.845 40.1433C106.442 40.5899 107.118 40.9208 107.837 41.1189C108.139 41.6523 108.546 42.1195 109.032 42.4929L109.411 42.7716C110.067 43.2767 110.873 43.5498 111.702 43.5482C112.85 43.5244 113.944 43.0528 114.75 42.234C116.161 40.7281 117.325 39.0075 118.196 37.1365C118.459 36.3965 118.534 35.603 118.415 34.8267C118.286 33.8986 117.93 33.0165 117.379 32.2581C116.813 31.5034 116.142 30.8329 115.387 30.2669C114.622 29.7 113.801 29.213 112.937 28.8133C112.471 28.6135 111.969 28.5118 111.462 28.5146L111.184 28.3553Z" fill="var(--fill-0, #003282)"/>
<path id="Vector_25" d="M107.299 31.1634C107.397 30.6236 107.397 30.0704 107.299 29.5306C107.215 29.0191 107.025 28.5308 106.741 28.0969C106.463 27.6696 106.087 27.3147 105.645 27.0615C105.387 26.9126 105.113 26.7924 104.828 26.7031C104.58 26.642 104.327 26.6086 104.071 26.6035C103.846 26.5828 103.619 26.5828 103.394 26.6035H103.135L104.031 25.13C104.293 24.6857 104.371 24.1575 104.251 23.6565C104.114 23.1752 103.801 22.7629 103.374 22.5016C102.936 22.2652 102.425 22.2015 101.941 22.3231C101.458 22.4448 101.038 22.7429 100.764 23.1587C100.207 23.8158 96.9792 29.3713 96.6206 30.1877C96.4864 30.3823 96.3949 30.6031 96.3523 30.8356C96.3097 31.0681 96.3168 31.307 96.3733 31.5365C96.4298 31.7661 96.5343 31.9811 96.6799 32.1673C96.8256 32.3535 97.0091 32.5068 97.2183 32.6169L97.5968 32.836C97.8718 33.0072 98.1892 33.0979 98.5132 33.0979C98.8371 33.0979 99.1546 33.0072 99.4296 32.836C99.5212 33.1608 99.6481 33.4746 99.8081 33.7718C100.085 34.2533 100.493 34.6468 100.983 34.9068C101.422 35.1627 101.912 35.319 102.418 35.3648C102.926 35.3999 103.435 35.3252 103.912 35.1458C104.439 34.9523 104.926 34.6619 105.346 34.2895C105.826 33.87 106.23 33.3716 106.542 32.8161C106.879 32.3079 107.134 31.7503 107.299 31.1634ZM103.314 31.0638C103.146 31.3794 102.859 31.6157 102.517 31.7209C102.369 31.7946 102.205 31.8329 102.039 31.8329C101.873 31.8329 101.71 31.7946 101.561 31.7209C101.424 31.629 101.302 31.5146 101.203 31.3824C101.106 31.2541 101.045 31.1033 101.023 30.9443C100.983 30.7741 100.983 30.5969 101.023 30.4266C101.069 30.2166 101.173 30.0235 101.322 29.8691C101.491 29.5534 101.777 29.3172 102.119 29.212C102.278 29.1619 102.445 29.1467 102.61 29.1673C102.775 29.1879 102.934 29.2439 103.075 29.3315C103.219 29.4126 103.344 29.5241 103.44 29.6582C103.536 29.7923 103.602 29.9458 103.633 30.108C103.694 30.4595 103.623 30.8209 103.434 31.1235L103.314 31.0638Z" fill="var(--fill-0, white)"/>
<path id="Vector_26" d="M102.537 22.3824C102.867 22.3809 103.191 22.4705 103.473 22.6413C103.9 22.9025 104.213 23.3148 104.35 23.7962C104.47 24.2972 104.392 24.8253 104.131 25.2696L103.234 26.7431H103.493C103.719 26.7225 103.945 26.7225 104.171 26.7431C104.426 26.7482 104.68 26.7816 104.928 26.8427C105.212 26.932 105.486 27.0522 105.744 27.2011C106.187 27.4543 106.562 27.8093 106.84 28.2365C107.124 28.6704 107.314 29.1587 107.398 29.6702C107.497 30.21 107.497 30.7632 107.398 31.303C107.258 31.9071 107.022 32.4851 106.701 33.0154C106.389 33.571 105.985 34.0693 105.505 34.4889C105.085 34.8613 104.598 35.1517 104.071 35.3451C103.678 35.5026 103.259 35.5837 102.836 35.5841H102.517C102.011 35.5383 101.522 35.382 101.083 35.1261C100.592 34.866 100.184 34.4726 99.9074 33.9911C99.7474 33.6939 99.6205 33.3801 99.5289 33.0552C99.2594 33.2575 98.9295 33.3627 98.5926 33.3539C98.2776 33.3572 97.9677 33.2746 97.6961 33.115L97.3375 32.7566C97.1283 32.6464 96.9448 32.4931 96.7992 32.3069C96.6535 32.1207 96.549 31.9057 96.4925 31.6762C96.4361 31.4466 96.4289 31.2077 96.4716 30.9752C96.5142 30.7427 96.6056 30.5219 96.7399 30.3273C97.0985 29.5109 100.326 23.9555 100.884 23.2984C101.07 23.024 101.319 22.7978 101.61 22.6386C101.901 22.4793 102.225 22.3915 102.557 22.3824M102.298 31.8605H102.657C102.999 31.7553 103.285 31.5191 103.453 31.2034C103.642 30.9008 103.713 30.5394 103.653 30.1879C103.622 30.0257 103.556 29.8722 103.46 29.7381C103.363 29.6039 103.239 29.4924 103.095 29.4113C102.916 29.298 102.709 29.236 102.497 29.2321H102.139C101.793 29.328 101.499 29.5571 101.322 29.8693C101.224 30.0191 101.163 30.1896 101.143 30.3671C101.103 30.5374 101.103 30.7146 101.143 30.8848C101.164 31.0438 101.226 31.1946 101.322 31.3229C101.422 31.4551 101.543 31.5695 101.68 31.6614C101.864 31.7605 102.069 31.8151 102.278 31.8207M102.517 20.1921C101.837 20.1961 101.169 20.3649 100.568 20.6839C99.968 21.003 99.4541 21.4628 99.0707 22.024C98.1145 23.2585 95.0864 28.6746 94.668 29.4313C94.1933 30.3347 94.0836 31.3857 94.3616 32.3676C94.6397 33.3495 95.2842 34.1872 96.1622 34.7079L96.5407 34.927C97.0653 35.2298 97.6503 35.4133 98.2539 35.4646C98.7134 36.0646 99.2894 36.5658 99.9473 36.9381C100.667 37.3727 101.479 37.632 102.318 37.6947H102.756C103.436 37.6894 104.11 37.5681 104.748 37.3363C105.513 37.0413 106.22 36.617 106.84 36.0819C108.162 34.9039 109.088 33.3459 109.49 31.6216C109.639 30.812 109.639 29.982 109.49 29.1724C109.356 28.3605 109.05 27.5866 108.593 26.9024C108.133 26.1907 107.512 25.5973 106.78 25.1701L106.462 24.9909C106.605 24.165 106.491 23.3149 106.135 22.5561C105.779 21.7973 105.197 21.1666 104.469 20.7496C103.868 20.3847 103.181 20.1855 102.477 20.1722L102.517 20.1921Z" fill="var(--fill-0, #003282)"/>
<path id="Vector_27" d="M97.6576 25.3682C97.6937 24.9059 97.6185 24.4416 97.4385 24.0142C97.2245 23.4761 96.8744 23.0027 96.4225 22.6403C95.818 22.1761 95.1462 21.8067 94.4303 21.5451C93.7148 21.2398 92.9659 21.0192 92.1991 20.888C92.0179 20.8599 91.8329 20.8684 91.6549 20.9128C91.477 20.9573 91.3098 21.0369 91.1632 21.1469C91.011 21.2518 90.8827 21.3876 90.7865 21.5454C90.6904 21.7033 90.6287 21.8796 90.6054 22.0629C90.5666 22.3608 90.6252 22.6632 90.7724 22.9251C90.9195 23.1871 91.1475 23.3945 91.4221 23.5164H91.721C92.1166 23.5802 92.504 23.6871 92.8764 23.835C93.2394 23.9502 93.5499 24.19 93.753 24.512C93.8082 24.6305 93.8368 24.7596 93.8368 24.8904C93.8368 25.0211 93.8082 25.1502 93.753 25.2687L93.6135 25.1691L93.1952 24.8904L92.6772 24.5917L92.1592 24.3527C91.3768 23.982 90.4908 23.8906 89.6491 24.0939C89.2694 24.2019 88.9211 24.3992 88.6334 24.6695C88.3457 24.9397 88.127 25.2749 87.9956 25.647C87.8383 26.0126 87.7505 26.4042 87.7366 26.8019C87.7331 27.1675 87.815 27.5288 87.9757 27.8572C88.1272 28.1887 88.352 28.4814 88.6331 28.7135C88.9324 28.9626 89.2684 29.1641 89.6292 29.3108C90.086 29.5145 90.5837 29.6099 91.0835 29.5896C91.4291 29.5655 91.7704 29.4986 92.0995 29.3905C92.1237 29.7103 92.2428 30.0156 92.4415 30.2674C92.6403 30.5193 92.9096 30.7061 93.2151 30.8042L93.6334 30.9834C94.0681 31.1391 94.5454 31.1251 94.9702 30.9442C95.3949 30.7633 95.7357 30.4289 95.9244 30.0077C96.7238 28.5532 97.3076 26.9904 97.6576 25.3682ZM93.1155 27.0807C93.0204 27.3679 92.8215 27.6093 92.5577 27.7577C92.446 27.8122 92.3234 27.8406 92.1991 27.8406C92.0748 27.8406 91.9522 27.8122 91.8405 27.7577C91.7588 27.7325 91.6839 27.6889 91.6217 27.6302C91.5596 27.5715 91.5117 27.4993 91.4819 27.4192C91.4133 27.2534 91.4133 27.0672 91.4819 26.9015C91.522 26.8029 91.5814 26.7133 91.6567 26.6381C91.732 26.5629 91.8216 26.5035 91.9202 26.4634C92.0339 26.4163 92.1557 26.3921 92.2788 26.3921C92.4018 26.3921 92.5237 26.4163 92.6374 26.4634L92.9959 26.6625L93.1952 26.8019L93.1155 27.0807Z" fill="var(--fill-0, white)"/>
<path id="Vector_28" d="M91.9579 20.8484H92.1969C92.9638 20.9796 93.7126 21.2002 94.4281 21.5055C95.1441 21.7671 95.8159 22.1365 96.4203 22.6007C96.8722 22.9631 97.2223 23.4365 97.4363 23.9746C97.6163 24.402 97.6915 24.8663 97.6554 25.3286C97.3147 26.9851 96.7307 28.5821 95.9223 30.0677C95.7664 30.3787 95.5317 30.6435 95.2416 30.8356C94.9515 31.0277 94.6161 31.1406 94.2688 31.1629C94.0512 31.1581 93.8358 31.1178 93.6313 31.0434L93.2129 30.8642C92.9074 30.7661 92.6381 30.5792 92.4394 30.3274C92.2406 30.0756 92.1216 29.7702 92.0973 29.4504C91.7682 29.5586 91.4269 29.6255 91.0813 29.6496H90.9219C90.4765 29.6392 90.0372 29.5446 89.627 29.3708C89.2662 29.2241 88.9302 29.0226 88.6309 28.7734C88.3449 28.53 88.1198 28.2232 87.9735 27.8774C87.8128 27.549 87.7309 27.1876 87.7345 26.822C87.7483 26.4244 87.8362 26.0327 87.9934 25.6671C88.1248 25.295 88.3435 24.9598 88.6312 24.6896C88.9189 24.4194 89.2672 24.222 89.6469 24.114C89.9046 24.0326 90.1736 23.9922 90.4438 23.9945C91.0348 24.0017 91.618 24.1305 92.1571 24.3729L92.675 24.6118L93.193 24.9105L93.6113 25.1893L93.7508 25.2888C93.806 25.1703 93.8346 25.0412 93.8346 24.9105C93.8346 24.7798 93.806 24.6507 93.7508 24.5322C93.5477 24.2102 93.2372 23.9704 92.8742 23.8552C92.5019 23.7072 92.1144 23.6004 91.7188 23.5366H91.42C91.1453 23.4146 90.9174 23.2072 90.7702 22.9453C90.623 22.6834 90.5644 22.3809 90.6032 22.083C90.6265 21.8997 90.6883 21.7234 90.7844 21.5656C90.8805 21.4077 91.0088 21.2719 91.161 21.167C91.3894 20.9904 91.6691 20.8926 91.9579 20.8883M92.1571 27.8774C92.2954 27.8728 92.4312 27.8389 92.5555 27.7778C92.8193 27.6295 93.0182 27.388 93.1133 27.1008L93.2129 26.8818L93.0137 26.7424L92.6551 26.5433C92.5093 26.4837 92.3543 26.45 92.1969 26.4437H91.9379C91.8393 26.4838 91.7497 26.5432 91.6744 26.6184C91.5991 26.6937 91.5397 26.7832 91.4997 26.8818C91.431 27.0475 91.431 27.2337 91.4997 27.3995C91.5295 27.4796 91.5773 27.5518 91.6395 27.6105C91.7017 27.6692 91.7765 27.7128 91.8582 27.738C91.9628 27.765 92.0725 27.765 92.177 27.738M91.9778 18.5187C91.2114 18.52 90.4651 18.764 89.8462 19.2157C89.4586 19.4997 89.1332 19.86 88.8899 20.2743C88.6467 20.6886 88.4908 21.1483 88.4317 21.625C88.4219 21.7974 88.4219 21.9703 88.4317 22.1427C87.3191 22.6654 86.4543 23.6012 86.0212 24.7512C85.7435 25.379 85.5945 26.0561 85.5829 26.7424C85.5733 27.4311 85.7233 28.1126 86.0212 28.7336C86.3127 29.3423 86.7263 29.8845 87.2364 30.3266C88.2666 31.2086 89.5662 31.7142 90.9219 31.7602C91.3451 32.2025 91.8533 32.5547 92.416 32.7956L92.8543 32.9749C93.3211 33.171 93.8222 33.2725 94.3285 33.2735C95.06 33.2521 95.773 33.0384 96.3955 32.6539C97.0181 32.2693 97.5282 31.7276 97.8746 31.0832C98.8509 29.2735 99.5238 27.3161 99.8667 25.2888C99.9282 24.5145 99.8053 23.7366 99.5081 23.0189C99.1398 22.156 98.5734 21.392 97.8546 20.7887C97.0837 20.2403 96.2385 19.8045 95.3445 19.4944C94.4697 19.1213 93.5535 18.854 92.6153 18.6979H92.0176L91.9778 18.5187Z" fill="var(--fill-0, #003282)"/>
</g>
</svg>
