<svg preserveAspectRatio="none" width="100%" height="100%" overflow="visible" style="display: block;" viewBox="0 0 104.866 31.6446" fill="none" xmlns="http://www.w3.org/2000/svg">
<g id="Group">
<g id="Vector">
</g>
<g id="Vector_2">
</g>
<g id="Vector_3">
</g>
<g id="Vector_4">
</g>
<g id="Vector_5">
</g>
<g id="Vector_6">
</g>
<g id="Vector_7">
</g>
<g id="Vector_8">
</g>
<g id="Vector_9">
</g>
<g id="Vector_10">
</g>
<g id="Vector_11">
</g>
<g id="Vector_12">
</g>
<g id="Vector_13">
</g>
<g id="Vector_14">
</g>
<g id="Vector_15">
</g>
<g id="Vector_16">
</g>
<g id="Vector_17">
</g>
<g id="Vector_18">
</g>
<g id="Vector_19">
</g>
<g id="Vector_20">
</g>
<g id="Vector_21">
</g>
<g id="Vector_22">
</g>
<g id="Vector_23">
</g>
<g id="Vector_24">
</g>
<g id="Vector_25">
</g>
<g id="Vector_26">
</g>
<g id="Vector_27">
</g>
<g id="Vector_28">
</g>
<g id="Vector_29">
</g>
<g id="Vector_30">
</g>
<g id="Vector_31">
</g>
<g id="Vector_32">
</g>
<g id="Vector_33">
</g>
<g id="Vector_34">
</g>
<g id="Vector_35">
</g>
<g id="Vector_36">
</g>
<g id="Vector_37">
</g>
<g id="Vector_38">
</g>
<g id="Vector_39">
</g>
<g id="Vector_40">
</g>
<g id="Vector_41">
</g>
<g id="Vector_42">
</g>
<g id="Vector_43">
</g>
<g id="Vector_44">
</g>
<g id="Vector_45">
</g>
<g id="Vector_46">
</g>
<g id="Vector_47">
</g>
<g id="Vector_48">
</g>
<g id="Vector_49">
</g>
<path id="Vector_50" d="M5.24983 16.2255C5.24983 15.5688 5.79182 15.0353 6.45889 15.0353H10.503C10.6142 14.9669 10.7115 14.8848 10.8226 14.8164C11.3924 14.406 11.9483 13.9682 12.4764 13.5168C12.6571 13.3663 12.8239 13.2021 12.9906 13.0516C13.1574 12.8875 13.3242 12.737 13.4909 12.5591C13.4909 12.5591 13.5048 12.5455 13.5187 12.5318L13.616 12.4223C13.616 12.4223 13.616 12.4223 13.6299 12.4223C16.2843 14.9532 19.8559 16.759 23.4553 17.3883C23.4831 17.3883 23.5109 17.3883 23.5526 17.3883C23.5526 17.3883 23.5526 17.3883 23.5665 17.3883C23.5943 17.3883 23.6221 17.3883 23.6499 17.3883C23.6777 17.3883 23.7055 17.3883 23.7472 17.3747C23.7472 17.3747 23.7611 17.3747 23.7749 17.3747C23.7888 17.3747 23.8166 17.3747 23.8305 17.3473C23.8305 17.3473 23.8583 17.3473 23.8583 17.3336C23.8722 17.3336 23.9 17.3199 23.9139 17.3063C23.9139 17.3063 23.9278 17.3063 23.9417 17.2926C23.9556 17.2926 23.9695 17.2652 23.9834 17.2652C23.9834 17.2652 23.9973 17.2515 24.0112 17.2379C24.0251 17.2242 24.039 17.2105 24.0529 17.1968C24.0529 17.1968 24.0668 17.1831 24.0807 17.1695C24.0946 17.1421 24.1224 17.1147 24.1363 17.1011L26.1097 14.105V11.9846C25.5399 11.8751 24.9979 11.7657 24.4837 11.6426C24.2475 11.5878 24.0112 11.5331 23.7888 11.4647C23.6777 11.4374 23.5665 11.41 23.4553 11.369C22.2323 11.0269 21.1623 10.6302 20.2033 10.1651C20.12 10.124 20.0366 10.083 19.9532 10.042C19.7864 9.95987 19.6197 9.8641 19.4668 9.76834C18.6607 9.30321 17.9659 8.79703 17.3544 8.20877C17.2015 8.05829 17.0486 7.89412 16.9097 7.72996C17.2571 7.04593 17.5351 6.33455 17.7574 5.54109H24.9145C25.1369 5.54109 25.3175 5.36324 25.3175 5.14435V0.410925C25.3175 0.192038 25.1369 0.0141923 24.9145 0.0141923H2.44257C2.22021 0.0141923 2.03955 0.192038 2.03955 0.410925V5.14435C2.03955 5.36324 2.22021 5.54109 2.44257 5.54109H10.8226C10.2807 6.79969 9.5024 7.9078 8.46011 8.93383C6.47279 10.8901 3.79061 12.1487 0.51084 13.0516C0.288483 13.1064 0.107818 13.2842 0.0383316 13.4894C0.0383316 13.5168 0.0244343 13.5441 0.0105369 13.5715C-0.00336037 13.6536 -0.00336037 13.7357 0.0105369 13.8177C0.0105369 13.8451 0.0105369 13.8725 0.0244343 13.8998C0.0522289 13.9819 0.0939208 14.0503 0.135613 14.1187L3.15133 17.9356C3.26251 18.086 3.44317 18.1681 3.60994 18.1955C3.63774 18.1955 3.66553 18.1955 3.69333 18.1955C3.76281 18.1955 3.8323 18.1955 3.90179 18.1681C4.3465 18.0313 4.79121 17.8808 5.22203 17.7167V16.2255H5.24983Z" fill="var(--fill-0, #003282)"/>
<path id="Vector_51" d="M92.4176 0.0141923H86.8031C86.6086 0.0141923 86.4418 0.150997 86.4001 0.328843C86.4001 0.356204 86.4001 0.383564 86.4001 0.410925V11.0817H77.5753V0.410925C77.5753 0.410925 77.5753 0.356204 77.5753 0.328843C77.5336 0.150997 77.3668 0.0141923 77.1723 0.0141923H71.5578C71.3354 0.0141923 71.1547 0.192038 71.1547 0.410925V10.2882H71.5578C72.2248 10.2882 72.7668 10.8217 72.7668 11.4784V16.2118C72.7668 16.8685 72.2248 17.402 71.5578 17.402H71.1547V27.2793C71.1547 27.3887 71.1964 27.4845 71.2798 27.5666C71.3354 27.6213 71.4049 27.6623 71.4883 27.676C71.5161 27.676 71.5439 27.676 71.5717 27.676H92.4454C92.4454 27.676 92.501 27.676 92.5288 27.676C92.6817 27.6487 92.8068 27.5255 92.8485 27.3614C92.8485 27.334 92.8485 27.3067 92.8485 27.2793V0.410925C92.8485 0.410925 92.8485 0.356204 92.8485 0.328843C92.8068 0.150997 92.64 0.0141923 92.4454 0.0141923H92.4176ZM86.3862 16.6222V22.1491H77.5614V16.6222H86.3862Z" fill="var(--fill-0, #69C3BE)"/>
<path id="Vector_52" d="M104.465 11.0811H100.866V0.410413C100.866 0.30097 100.824 0.205207 100.741 0.123124C100.657 0.0410415 100.56 0 100.449 0H94.8343C94.6397 0 94.4729 0.136805 94.4313 0.314651C94.4313 0.342011 94.4313 0.369372 94.4313 0.396732V27.2788C94.4313 27.2788 94.4313 27.3335 94.4313 27.3609C94.459 27.5113 94.5841 27.6345 94.7509 27.6755C94.7787 27.6755 94.8065 27.6755 94.8343 27.6755H100.449C100.449 27.6755 100.504 27.6755 100.532 27.6755C100.713 27.6345 100.852 27.4703 100.852 27.2788V16.608H104.451C104.674 16.608 104.854 16.4302 104.854 16.2113V11.4779C104.854 11.4779 104.854 11.4232 104.854 11.3958C104.813 11.218 104.646 11.0811 104.451 11.0811H104.465Z" fill="var(--fill-0, #69C3BE)"/>
<path id="Vector_53" d="M67.9108 27.2924V16.6217H71.1211H71.5241C71.7465 16.6217 71.9272 16.4439 71.9272 16.225V11.4915C71.9272 11.4915 71.9272 11.4368 71.9272 11.4095C71.8855 11.2316 71.7187 11.0948 71.5241 11.0948H67.9108V0.424066C67.9108 0.424066 67.9108 0.328302 67.8831 0.287261C67.8275 0.136776 67.6746 0.0273334 67.5078 0.0273334H61.8933C61.6709 0.0273334 61.4903 0.205179 61.4903 0.424066V27.3061C61.4903 27.4156 61.532 27.5113 61.6154 27.5934C61.671 27.6481 61.7265 27.6755 61.796 27.6892C61.8238 27.6892 61.8655 27.7028 61.9072 27.7028H67.5217C67.5217 27.7028 67.5773 27.7028 67.6051 27.7028C67.7858 27.6618 67.9247 27.4976 67.9247 27.3061L67.9108 27.2924Z" fill="var(--fill-0, #69C3BE)"/>
<path id="Vector_54" d="M60.5608 11.0401C60.533 10.8349 60.5052 10.616 60.4635 10.4108C60.4218 10.2056 60.3801 10.0004 60.3384 9.79519C60.2689 9.49422 60.1856 9.19325 60.0883 8.89228C59.991 8.59131 59.8937 8.30402 59.7686 8.01673C59.727 7.92097 59.6853 7.82521 59.6436 7.72944C59.3239 6.97702 58.9209 6.25196 58.4623 5.58162C58.4067 5.49953 58.3511 5.41745 58.2816 5.33537C57.8925 4.80183 57.4617 4.29566 57.0031 3.81684C56.9336 3.74844 56.8641 3.66636 56.7807 3.59795C54.4599 1.36804 51.3052 0 47.817 0C43.6756 0 39.9928 1.94262 37.6441 4.93864C37.9777 5.15752 38.1861 5.51321 38.1861 5.93731V10.6707C38.1861 11.3274 37.6441 11.8609 36.977 11.8609H35.0036C34.9897 12.1209 34.9758 12.3808 34.9758 12.6407C34.9758 15.9103 36.2405 18.8927 38.3112 21.1363C38.3807 21.2047 38.4502 21.2867 38.5196 21.3552C38.7281 21.574 38.9505 21.7929 39.1867 21.9845C39.2562 22.0529 39.3396 22.1213 39.423 22.1897C39.5758 22.3265 39.7426 22.4496 39.8955 22.5727C40.0623 22.6958 40.229 22.819 40.3958 22.9421C40.5626 23.0652 40.7293 23.1747 40.91 23.2841C41.0907 23.3935 41.2574 23.503 41.4381 23.5987C41.7994 23.8039 42.1607 23.9818 42.5499 24.1596C43.0224 24.3648 43.5088 24.5564 44.0091 24.7069C44.1898 24.7616 44.3704 24.8163 44.5511 24.8573C44.5928 24.8573 44.6484 24.8847 44.6901 24.8984C45.6907 25.1446 46.7469 25.2814 47.817 25.2814C48.887 25.2814 49.9988 25.1446 51.0272 24.8847C52.1529 24.5974 53.223 24.1596 54.2097 23.6124C54.3904 23.5167 54.5711 23.4072 54.7378 23.2978C54.9185 23.1883 55.0852 23.0789 55.252 22.9558C55.4188 22.8326 55.5856 22.7232 55.7523 22.5864C56.072 22.3401 56.3916 22.0665 56.6834 21.7929C56.8363 21.6561 56.9753 21.5056 57.1143 21.3688C58.2538 20.1923 59.1572 18.8106 59.7686 17.2784C59.8798 16.9911 59.991 16.7038 60.0883 16.4028C60.1856 16.1019 60.2689 15.8009 60.3384 15.4999C60.3801 15.2947 60.4357 15.0895 60.4635 14.8843C60.5052 14.6791 60.533 14.4739 60.5608 14.255C60.5886 14.0361 60.6164 13.8309 60.6303 13.612C60.6581 13.2974 60.672 12.969 60.672 12.6407C60.672 12.3124 60.672 11.9841 60.6303 11.6694C60.6164 11.4505 60.5886 11.2453 60.5608 11.0264V11.0401ZM54.5433 13.3384C54.5155 13.5573 54.4877 13.7762 54.446 13.9951C54.4182 14.1045 54.4043 14.214 54.3765 14.3234C54.0985 15.3905 53.5565 16.3481 52.8339 17.1279C52.6949 17.2921 52.542 17.4425 52.3753 17.5794C52.2085 17.7162 52.0417 17.853 51.875 17.9898C51.7082 18.1129 51.5275 18.236 51.333 18.3455C51.055 18.5096 50.7632 18.6601 50.4574 18.7832C50.0544 18.9474 49.6236 19.0842 49.1928 19.1663C48.762 19.2484 48.3034 19.3031 47.8309 19.3031C47.4834 19.3031 47.136 19.2757 46.8024 19.221C46.5801 19.1936 46.3577 19.1389 46.1493 19.0842C45.9269 19.0295 45.7185 18.9611 45.51 18.8927C45.246 18.7969 44.9958 18.6875 44.7595 18.5643C44.6206 18.4959 44.4677 18.4139 44.3287 18.3318C44.1481 18.2223 43.9674 18.0992 43.7867 17.9761C43.62 17.853 43.4393 17.7162 43.2864 17.5657C43.1336 17.4152 42.9668 17.2784 42.8278 17.1142C42.1052 16.3208 41.5632 15.3631 41.2852 14.3097C41.2574 14.2003 41.2296 14.0908 41.2157 13.9814C41.174 13.7625 41.1323 13.5436 41.1184 13.3247C41.0907 13.1059 41.0768 12.8733 41.0768 12.6407C41.0768 10.917 41.7438 9.35741 42.8278 8.16722C42.9668 8.00305 43.1197 7.85257 43.2864 7.71576C43.4532 7.57896 43.62 7.44215 43.7867 7.30535C43.9535 7.18223 44.1342 7.0591 44.3287 6.94966C44.704 6.73077 45.0931 6.53925 45.51 6.38876C45.7185 6.32036 45.9269 6.25196 46.1493 6.19724C46.3716 6.14251 46.5801 6.10147 46.8024 6.06043C47.136 6.00571 47.4834 5.97835 47.8309 5.97835C48.3034 5.97835 48.7481 6.01939 49.1928 6.11515C49.6375 6.21092 50.0544 6.33404 50.4574 6.4982C50.6659 6.58029 50.8605 6.67605 51.0411 6.77181C51.333 6.9223 51.597 7.10014 51.8611 7.29167C52.0278 7.41479 52.2085 7.5516 52.3614 7.70208C53.7233 8.91964 54.571 10.6707 54.571 12.627C54.571 12.8596 54.571 13.0785 54.5294 13.3111L54.5433 13.3384Z" fill="var(--fill-0, #69C3BE)"/>
<path id="Vector_55" d="M26.9304 15.1169C27.0693 15.0621 27.2083 15.0348 27.3612 15.0348H32.9201C33.073 15.0348 33.2119 15.0621 33.3509 15.1169V11.0811H34.2542H35.0603H36.9642C37.1866 11.0811 37.3672 10.9033 37.3672 10.6844V5.95096C37.3672 5.73207 37.1866 5.55423 36.9642 5.55423H33.3509V0.424066C33.3509 0.424066 33.3509 0.314622 33.3231 0.27358C33.2814 0.177817 33.198 0.0957349 33.1008 0.0546936C33.0452 0.0410132 33.0035 0.0273334 32.9479 0.0273334H27.3334C27.3334 0.0273334 27.2222 0.0273327 27.1805 0.0546936C27.0832 0.0957349 26.9998 0.177817 26.9581 0.27358C26.9442 0.328302 26.9304 0.369344 26.9304 0.424066V15.1305V15.1169Z" fill="var(--fill-0, #003282)"/>
<path id="Vector_56" d="M33.363 16.2528C33.363 16.0202 33.1684 15.8287 32.9322 15.8287H27.3732C27.2621 15.8287 27.1648 15.8697 27.0953 15.9244C27.0675 15.9381 27.0536 15.9655 27.0397 15.9792C27.0258 15.9928 27.0119 16.0202 26.998 16.0339C26.9563 16.1023 26.9424 16.1707 26.9424 16.2528V18.9888H12.4892V16.2254C12.4892 16.0612 12.3919 15.9108 12.2391 15.856C12.1835 15.8424 12.1418 15.8287 12.0862 15.8287H9.27894H6.47168C6.47168 15.8287 6.3605 15.8287 6.31881 15.856C6.22153 15.8971 6.13814 15.9792 6.09645 16.0749C6.08255 16.1296 6.06866 16.1707 6.06866 16.2254V31.2465C6.06866 31.2465 6.06866 31.3423 6.09645 31.3833C6.13814 31.5064 6.24932 31.6159 6.38829 31.6432C6.41609 31.6432 6.44388 31.6432 6.47168 31.6432H32.9739C33.1684 31.6432 33.3352 31.5064 33.3769 31.3286C33.3769 31.3012 33.3769 31.2739 33.3769 31.2465V16.2528H33.363ZM26.9285 26.1027H12.4753V24.5294H26.9285V26.1027Z" fill="var(--fill-0, #003282)"/>
</g>
</svg>
