<svg width="240" height="219" viewBox="0 0 240 219" fill="none" xmlns="http://www.w3.org/2000/svg">
<g id="ilust_18" clip-path="url(#clip0_176_1825)">
<path id="Vector" d="M36.2263 73.5231C38.7396 64.6315 42.6804 56.4627 48.6352 49.3631C49.7225 48.092 50.4593 46.5581 50.7726 44.9135C53.5991 31.4867 61.7217 22.3496 74.0755 16.9241C80.5124 14.0953 87.3252 12.7389 94.4076 13.0852C97.2788 13.2269 100.126 13.6797 102.9 14.4358C103.614 14.6261 104.206 14.5443 104.763 14.0896C108.214 11.269 111.666 8.44847 115.119 5.62791C115.425 5.3787 115.48 5.08573 115.514 4.72238C115.744 2.21698 117.458 0.421149 119.956 0.0159463C120.172 -0.0166743 120.392 0.000901089 120.6 0.06731C123.417 0.887227 126.294 1.63295 128.81 3.14723C130.638 4.24679 132.566 4.88789 134.542 5.57464C140.643 7.69197 145.651 11.472 149.992 16.1974C151.104 17.4073 152.171 18.661 153.282 19.8747C155.328 22.108 155.858 24.9445 156.467 27.76C157.359 31.8805 156.467 35.8811 155.651 39.8761C154.624 44.8584 153.445 49.8045 151.501 54.5242C151.285 55.0493 151.414 55.2528 151.905 55.4317C162.558 59.2935 169.893 66.8002 175.089 76.6582C175.647 77.714 175.624 77.7178 176.607 76.9892C179.461 74.9004 182.317 72.8148 185.174 70.7323C186.343 69.8801 186.34 69.8934 185.694 68.6626C184.899 67.1407 184.641 65.4856 184.555 63.8078C184.445 61.9054 184.421 60.003 184.681 58.1178C184.726 57.7091 184.638 57.2966 184.43 56.9421C183.439 54.9656 182.469 52.9795 181.469 51.0087C180.622 49.3403 180.577 47.6244 181.03 45.8457C181.957 42.2198 186.624 41.3732 189.132 42.4214C190.398 42.9363 191.494 43.7988 192.293 44.9097C193.646 46.7912 194.76 48.7981 195.408 51.0239C196.032 50.9402 195.93 50.4094 196.019 50.0537C197.388 44.632 198.743 39.2071 200.083 33.779C200.469 32.1725 201.249 30.688 202.353 29.4607C203.821 27.8208 205.633 27.1093 207.801 27.7352C209.969 28.3611 211.446 29.7745 212.044 32.0326C212.484 33.701 212.004 35.3009 211.752 36.9141C211.431 38.9382 211.207 40.9813 210.668 42.9674C210.62 43.1405 210.533 43.3365 210.726 43.4887H210.605L210.628 43.5971L210.713 43.4696C211.826 41.5394 212.937 39.6078 214.048 37.675C215.161 35.7499 216.567 34.1062 218.581 33.0923C220.641 32.0536 222.697 32.1411 224.572 33.4918C226.539 34.9071 226.917 36.9807 226.564 39.2369C226.367 40.3573 225.967 41.4318 225.381 42.4062C223.688 45.3644 222.063 48.3606 220.415 51.3473C220.366 51.4959 220.335 51.6498 220.322 51.8058C221.14 51.4101 221.691 50.8546 222.27 50.3581C223.561 49.2414 224.829 48.1 226.104 46.9643C227.277 45.9023 228.699 45.1566 230.239 44.7975C234.935 43.6979 237.421 47.5179 236.376 51.4957C236.045 52.7532 235.333 53.7785 234.413 54.6726C232.111 56.9263 229.815 59.1888 227.526 61.4602C227.478 61.5211 227.38 61.62 227.391 61.6334C227.48 61.7494 227.581 61.6942 227.682 61.6334C229.58 61.0075 231.438 60.2009 233.456 59.9326C234.489 59.7818 235.541 59.8185 236.562 60.0411C239.1 60.6118 240.497 63.0221 239.838 65.6645C239.297 67.8274 237.877 69.2409 235.897 70.1008C233.033 71.3449 230.064 72.3303 227.093 73.2739C224.736 74.0215 222.727 75.0165 221.146 77.0881C219.092 79.78 216.256 81.6538 213.213 83.1205C210.726 84.3152 208.029 84.4236 205.33 84.0907C203.737 83.9005 202.126 83.7426 200.601 83.1871C200.222 83.052 200.013 83.2099 199.758 83.4059C194.417 87.5035 189.072 91.5968 183.724 95.6856C183.316 95.9976 183.221 96.2886 183.321 96.8061C183.652 98.4802 183.921 100.168 184.166 101.857C184.257 102.49 184.495 102.808 185.149 102.998C186.978 103.563 188.523 104.806 189.469 106.472C190.416 108.138 190.693 110.104 190.244 111.968C189.962 113.144 189.415 114.156 188.371 114.821C188.223 114.908 188.103 115.036 188.028 115.19C187.953 115.344 187.925 115.517 187.947 115.687C188.016 117.934 188.078 120.182 188.109 122.429C188.109 122.927 188.31 123.099 188.773 123.129C189.15 123.163 189.524 123.231 189.889 123.331C192.405 123.97 193.851 125.739 194.016 128.353C194.329 133.318 194.311 138.298 193.961 143.26C193.602 148.396 190.835 152.882 183.9 153.888C181.636 154.217 179.375 154.303 177.11 153.934C176.974 153.9 176.831 153.901 176.695 153.937C176.559 153.974 176.435 154.045 176.334 154.143C172.727 157.514 168.301 159.188 163.574 160.149C155.457 161.798 147.369 161.229 139.307 159.679C137.851 159.397 136.401 159.089 134.96 158.741C134.39 158.604 134.278 158.812 134.326 159.3C134.656 162.668 134.985 166.034 135.313 169.4C135.609 172.444 135.922 175.507 136.194 178.562C136.321 179.991 136.283 180.013 137.659 180.166C141.932 180.641 146.011 181.771 149.705 184.014C156.317 188.009 159.91 193.958 160.85 201.582C161.082 203.309 161.092 205.059 160.88 206.789C160.408 210.318 158.616 212.898 155.432 214.478C152.002 216.191 148.301 216.951 144.555 217.558C139.191 218.426 133.798 218.538 128.398 218.097C123.453 217.693 118.622 216.79 114.125 214.528C110.565 212.738 108.779 209.877 108.675 205.903C108.54 200.882 109.054 195.993 111.283 191.393C112.557 188.774 114.113 186.384 116.408 184.545C116.721 184.294 116.646 184.063 116.621 183.816C116.069 178.405 115.521 172.996 114.975 167.591C114.654 164.382 114.332 161.172 114.043 157.961C113.982 157.284 113.785 157.126 113.107 157.307C107.014 158.931 100.81 159.378 94.5291 159.08C92.8567 159 91.1976 158.85 89.5405 158.648C88.971 158.578 88.7109 158.745 88.6274 159.363C87.7998 165.502 86.9563 171.639 86.0971 177.774C85.8218 179.747 85.5447 181.718 85.2428 183.687C85.1968 183.876 85.2015 184.074 85.2565 184.261C85.3115 184.448 85.4148 184.616 85.5561 184.75C89.7853 189.371 92.4657 194.643 92.5948 201.08C92.6422 203.494 92.6973 205.882 92.1866 208.258C91.676 210.634 90.4478 212.392 88.3123 213.584C84.7645 215.57 80.9376 216.683 76.9703 217.364C69.5899 218.631 62.1905 218.452 54.7779 217.612C51.9191 217.286 49.1268 216.738 46.4541 215.648C46.0446 215.485 45.6436 215.301 45.2525 215.097C39.4002 212.011 37.9101 208.722 38.4473 202.511C39.3148 192.506 45.2904 186.295 54.085 182.399C57.3557 180.951 60.8219 180.285 64.383 180.152C65.1195 180.124 65.3416 179.842 65.4327 179.152C66.0655 174.403 66.721 169.658 67.3993 164.914C67.9815 160.789 68.5781 156.667 69.1894 152.549C69.2615 152.058 69.0242 151.881 68.6693 151.682C65.3986 149.829 62.1241 147.997 59.0053 145.904C58.8268 144.607 58.6478 143.309 58.4681 142.012C59.0641 142.012 59.3716 142.52 59.7703 142.832C70.7611 151.421 83.1434 156.152 97.1543 156.418C102.578 156.523 107.991 155.883 113.242 154.516C125.664 151.309 136.467 145.109 145.975 136.556C146.765 135.844 147.114 135.184 146.585 134.155C146.258 133.522 146.097 132.799 145.888 132.108C143.308 123.829 142.573 115.083 143.734 106.487C144.216 102.698 144.933 98.971 146.391 95.4231C148.555 90.1269 151.706 85.9474 157.951 85.3406C158.363 85.2987 158.263 85.0875 158.236 84.825C158.057 83.4205 157.798 82.0275 157.458 80.6531C154.328 66.5491 147.16 54.9009 135.947 45.8913C124.947 37.053 112.268 32.1944 98.2041 31.1576C92.3424 30.7341 86.4507 31.227 80.7402 32.6186C70.3929 35.1088 61.3781 39.994 53.8686 47.5787C49.052 52.4576 45.1583 58.1716 42.3766 64.4431C41.1959 67.0817 40.0836 69.7526 39.4173 72.5814C38.4321 73.1521 37.3254 73.3215 36.2263 73.5231ZM154.121 127.282C157.553 122.071 159.276 116.484 160.337 110.541C159.696 110.771 159.212 111.019 158.699 111.112C157.95 111.253 157.298 111.04 157.057 110.212C156.843 109.48 157.236 108.781 158.006 108.485C159.082 108.048 160.122 107.528 161.116 106.929C171.63 100.841 181.681 94.0477 191.41 86.773C193.878 84.922 196.406 83.1148 198.701 81.0336C199.4 80.4001 200.03 80.2194 200.916 80.5714C203.473 81.5978 206.252 81.9445 208.982 81.5777C213.158 81.0374 216.493 78.8345 219.043 75.7127C220.971 73.3576 223.219 71.9879 226.066 71.2003C228.911 70.4117 231.686 69.3892 234.363 68.1432C235.487 67.6182 236.554 67.0018 237.19 65.8604C238.177 64.1045 237.321 62.4533 235.324 62.2269C234.16 62.0956 233.08 62.4704 231.996 62.7824C228.798 63.7012 225.698 64.9168 222.547 65.9764C221.772 66.2371 221.028 66.1857 220.649 65.4286C220.269 64.7038 220.565 64.017 221.193 63.4977C221.677 63.0963 222.175 62.7063 222.646 62.2878C225.791 59.4989 229.014 56.7919 231.947 53.7785C232.896 52.8064 233.794 51.781 234.128 50.3961C234.589 48.4938 233.369 46.9548 231.417 47.0289C230.362 47.0689 229.494 47.5692 228.671 48.157C226.172 49.9415 223.957 52.0683 221.636 54.0544C220.128 55.3537 218.659 56.6986 217.141 57.9846C216.539 58.4926 215.837 58.4127 215.222 57.9561C214.567 57.4691 214.527 56.8052 214.842 56.0956C214.945 55.8657 215.062 55.6427 215.193 55.4279C216.998 52.3955 218.834 49.3803 220.609 46.3308C221.905 44.1031 223.359 41.9554 224.067 39.4271C224.846 36.6516 223.297 34.6027 220.65 34.8862C219.736 34.9851 218.995 35.4569 218.337 36.0695C217.021 37.2927 216.136 38.8336 215.261 40.365C213.2 43.9795 211.203 47.6301 209.17 51.2617C208.621 52.2414 207.944 52.523 207.093 52.1786C206.304 51.859 206.047 51.1913 206.315 50.1336C207.12 46.9605 207.968 43.7968 208.714 40.6085C209.284 38.2153 209.961 35.8317 209.764 33.3224C209.641 31.7587 208.779 30.5545 207.465 30.1626C205.988 29.7213 204.682 30.2197 203.669 31.538C202.909 32.5406 202.498 33.6934 202.15 34.871C200.468 40.6408 199.185 46.5077 197.754 52.3403C197.441 53.6168 197.329 54.6232 198.576 55.4069C198.855 55.582 199.031 55.9282 199.236 56.2078C201.404 59.1926 202.274 62.4628 201.397 66.1153C201.19 66.9695 200.575 67.3937 199.823 67.2567C198.95 67.0912 198.874 66.4615 198.935 65.7463C198.955 65.5275 199.026 65.3125 199.047 65.0938C199.115 64.3423 199.293 63.6061 199.212 62.8337C198.872 59.5864 197.27 57.1628 194.504 55.4906C194.26 55.3529 194.051 55.1615 193.892 54.9308C193.733 54.7001 193.628 54.4362 193.585 54.159C193.402 53.1734 193.161 52.1996 192.862 51.2427C192.148 49.0378 191.279 46.9091 189.405 45.3853C187.87 44.1374 185.713 44.0537 184.254 45.1951C182.898 46.2452 182.615 47.7366 183.53 49.7284C184.445 51.7202 185.419 53.6396 186.421 55.5667C186.892 56.4666 187.152 57.3816 186.972 58.3765C186.818 59.2231 186.839 60.0753 186.771 60.9238C186.52 64.0379 187.137 66.9314 188.859 69.5662C189.458 70.4793 189.293 71.1147 188.382 71.7044C187.564 72.2352 186.729 72.7469 185.947 73.3291C182.807 75.6595 179.72 78.0659 176.547 80.3526C170.586 84.6481 164.55 88.839 158.323 92.7541C157.949 92.9864 157.637 93.3063 157.414 93.6862C155.017 97.6698 153.779 102.045 153.048 106.592C152.445 110.37 152.313 114.208 152.653 118.019C152.918 121.138 153.408 124.234 154.121 127.282ZM169.157 115.748C169.261 112.647 169.088 109.552 168.997 106.455C168.976 105.776 168.758 105.783 168.284 106.074C166.964 106.881 165.653 107.703 164.297 108.458C163.728 108.783 163.538 109.259 163.471 109.839C163.077 112.837 162.413 115.792 161.486 118.67C160.208 122.782 158.318 126.677 155.878 130.223C155.356 130.984 155.189 131.724 155.499 132.624C156.258 134.907 157.266 137.083 158.27 139.261C158.696 140.184 158.906 141.114 158.629 142.105C157.765 145.194 153.967 146.188 151.556 143.948C150.203 142.693 149.434 141.055 148.709 139.398C148.445 138.789 148.255 138.491 147.595 139.092C143.463 142.86 138.93 146.162 134.077 148.936C133.614 149.201 133.451 149.49 133.508 149.988C133.66 151.491 133.809 152.994 133.931 154.499C133.994 155.286 134.43 155.606 135.155 155.796C141.499 157.465 147.919 158.285 154.5 157.936C157.946 157.746 161.334 157.366 164.673 156.529C167.319 155.869 169.87 154.973 172.124 153.367C172.549 153.065 172.754 152.869 172.162 152.503C168.644 150.327 167.334 146.977 167.293 143.024C167.23 137.018 167.203 131.01 167.661 125.014C167.72 124.253 168.08 123.763 168.756 123.509C169.219 123.334 169.402 123.051 169.326 122.572C169.02 120.304 169.28 118.021 169.157 115.748ZM54.29 42.9864C56.3648 41.3067 58.3902 39.6059 60.5751 38.1088C67.8758 33.1075 75.9509 30.1588 84.6677 28.8329C86.3457 28.578 88.1718 28.7244 89.4645 27.2482C89.7986 26.9116 90.1564 26.5994 90.5352 26.3142C93.976 23.3845 97.3081 20.3344 100.531 17.1638C100.66 17.0383 100.839 16.8442 100.818 16.7091C100.774 16.4314 100.472 16.5018 100.267 16.4733C96.9247 16.0053 93.5837 15.7009 90.1916 15.8645C84.4675 16.1214 78.8569 17.553 73.7072 20.0706C65.7023 23.9743 59.7494 29.9629 55.9244 38.0384C55.186 39.5945 54.4799 41.1849 54.29 42.9864ZM177.31 125.964C177.792 126.588 178.204 127.04 178.5 127.601C179.324 129.158 179.172 130.856 179.381 132.5C179.447 133.019 179.588 133.16 180.106 133.215C182.249 133.446 184.394 133.32 186.537 133.35C188.31 133.377 188.31 133.35 188.306 131.614C188.306 131.423 188.306 131.233 188.32 131.043C188.331 130.651 188.468 130.366 188.908 130.324C189.348 130.282 189.749 130.324 189.905 130.826C189.982 131.064 190.023 131.313 190.026 131.564C190.026 134.948 190.115 138.336 189.821 141.713C189.682 143.321 189.062 144.757 187.613 145.598C185.089 147.078 182.437 147.099 179.831 145.879C179.267 145.611 178.781 145.203 178.419 144.693C178.057 144.184 177.83 143.59 177.761 142.969C177.591 141.664 177.446 140.319 177.572 139.021C177.836 136.39 177.598 133.778 177.496 131.165C177.431 129.523 177.067 127.951 175.478 127.016C173.937 126.106 172.228 125.874 170.487 125.745C169.823 125.693 169.548 126.019 169.574 126.637C169.601 127.208 169.7 127.769 169.709 128.334C169.784 133.299 169.85 138.265 169.908 143.233V143.707C169.945 147.023 171.953 149.85 175.1 150.881C178.724 152.066 182.376 151.931 185.983 150.818C188.511 150.038 190.134 148.301 190.952 145.759C191.539 143.857 191.853 141.88 191.884 139.889C191.996 136.033 192.038 132.171 191.738 128.317C191.611 126.662 190.873 125.747 189.271 125.418C188.928 125.365 188.581 125.348 188.234 125.364C185.776 125.364 183.392 126.199 180.907 125.979C179.787 125.88 178.644 125.964 177.31 125.964ZM119.557 171.559C121.021 171.439 122.623 171.333 124.223 171.179C126.754 170.93 129.278 170.62 131.784 170.172C132.483 170.047 132.762 169.615 132.684 168.881C132.065 163.113 131.461 157.342 130.873 151.569C130.814 150.985 130.71 150.778 130.095 151.092C125.918 153.221 121.653 155.102 117.139 156.39C116.759 156.496 116.524 156.677 116.594 157.2C116.784 158.606 116.877 160.023 117.008 161.437C117.281 164.353 117.53 167.271 117.836 170.188C117.984 171.597 118.031 171.586 119.557 171.559ZM161.228 87.4313C163.005 86.6227 164.519 85.2702 166.197 84.1763C166.598 83.9138 166.404 83.5771 166.307 83.2461C165.561 80.7026 164.789 78.1668 164.098 75.61C163.908 74.9423 163.363 73.8979 164.25 73.5897C165.246 73.253 165.366 74.44 165.632 75.1344C166.509 77.4344 167.359 79.7457 168.202 82.059C168.369 82.5175 168.494 82.7039 168.982 82.3348C170.11 81.4769 171.249 80.6227 172.452 79.877C173.143 79.4509 173.132 79.0399 172.832 78.4084C170.222 72.7527 166.611 67.8807 161.693 64.0151C158.864 61.7932 155.808 60.0106 152.405 58.8236C152.147 58.7342 151.847 58.5173 151.63 58.7988C151.488 58.9891 151.7 59.2117 151.82 59.3943C154.319 63.2758 156.349 67.4414 157.866 71.8034C159.62 76.837 161.112 81.9391 161.228 87.4313ZM71.7045 153.552C71.3382 155.994 70.9699 158.378 70.6226 160.767C70.2201 163.539 69.8234 166.311 69.4589 169.086C69.3906 169.598 69.6355 169.957 70.2429 170.051C74.6601 170.718 79.1172 171.002 83.5534 171.5C84.102 171.561 84.3488 171.28 84.4209 170.755C84.9581 166.76 85.4972 162.765 86.061 158.77C86.1293 158.287 86.061 158.102 85.5352 158.043C84.8218 157.936 84.1152 157.788 83.4186 157.6C79.4019 156.664 75.5504 155.264 71.7045 153.552ZM157.885 88.4034C157.07 88.4212 156.269 88.6159 155.537 88.9741C152.94 90.2315 151.279 92.3831 150.002 94.8714C147.443 99.8632 146.613 105.283 146.268 110.788C145.768 118.704 146.809 126.42 149.54 133.885C150.489 136.501 151.573 139.063 153.039 141.441C153.578 142.316 154.544 142.678 155.29 142.299C156.036 141.921 156.102 141.382 155.62 140.239C155.584 140.151 155.541 140.068 155.497 139.982C151.852 132.829 150.252 125.13 149.694 117.205C149.328 112.025 149.669 106.849 150.96 101.779C152.221 96.8099 153.976 92.0825 157.879 88.4034H157.885ZM177.481 103.124C178.551 103.086 179.622 103.202 180.694 103.023C181.23 102.934 181.431 102.724 181.29 102.218C180.98 101.061 180.794 99.8745 180.736 98.678C180.706 98.1358 180.455 98.1282 180.06 98.4136C177.319 100.392 174.436 102.156 171.592 103.976C171.023 104.341 170.833 104.71 170.867 105.338C170.989 108.114 171.095 110.889 171.226 113.665C171.351 116.305 171.389 118.957 171.275 121.607C171.207 123.207 171.258 123.209 172.779 123.384C172.81 123.39 172.84 123.399 172.87 123.411C173.272 123.508 173.416 123.321 173.31 122.954C173.016 121.944 172.965 120.901 172.879 119.865C172.706 117.942 172.904 116.005 173.46 114.157C173.741 113.239 174.409 112.55 175.347 112.493C177.355 112.369 179.364 112.135 181.389 112.36C182.923 112.527 184.47 112.613 186.011 112.634C187.126 112.651 187.782 111.873 187.773 110.745C187.75 108.013 186.161 105.835 183.511 105.332C180.74 104.807 177.927 104.448 175.087 104.83C174.438 104.918 174.009 104.663 173.948 104.007C173.887 103.35 174.328 103.12 174.914 103.118C175.778 103.122 176.623 103.124 177.475 103.124H177.481ZM129.935 7.60255C129.876 6.72747 129.366 5.93038 128.379 5.42055C126.111 4.26776 123.764 3.27918 121.355 2.46238C119.799 1.92591 118.419 2.49282 117.802 3.86632C117.493 4.5478 117.456 5.32207 117.699 6.0298C117.942 6.73753 118.447 7.3249 119.109 7.67104C119.584 7.91544 120.073 8.13204 120.573 8.31974C120.953 8.47574 121.114 8.63554 120.901 9.09591C120.226 10.5512 119.628 12.037 118.973 13.4999C118.367 14.8486 117.162 15.0503 116.108 14.004C115.055 12.9577 113.567 12.7998 112.553 13.6635C111.539 14.5271 111.38 16.0471 112.302 17.2456C113.363 18.6248 114.895 19.304 116.478 19.8576C116.786 19.966 116.936 19.7872 117.109 19.5855C118.058 18.486 119.244 18.2253 120.615 18.5411C122.221 18.9102 122.221 18.9026 123.179 17.4891C124.461 15.602 125.294 13.4942 126.169 11.4016C126.359 10.9507 126.484 10.536 127.205 10.5778C128.718 10.6673 129.95 9.33941 129.935 7.60255ZM142.228 16.5665C142.204 11.1961 136.794 7.92405 133.003 8.65266C132.321 8.78392 131.991 8.99698 131.761 9.66852C131.382 10.7624 130.75 11.8524 129.614 12.1701C128.27 12.5506 127.716 13.4276 127.325 14.5937C127.261 14.8387 127.156 15.0709 127.014 15.2805C125.803 16.8024 126.215 18.2386 127.181 19.6673C127.253 19.7702 127.317 19.879 127.371 19.9926C127.619 20.5481 127.893 20.6489 128.51 20.3503C130.85 19.2203 133.787 20.8278 134.068 23.394C134.142 24.0808 134.423 24.1188 134.954 24.115C138.777 24.0694 142.234 20.491 142.228 16.5589V16.5665ZM149.783 27.7714C150.1 27.7542 150.309 27.7352 150.518 27.7314C152.306 27.701 153.451 26.7802 153.745 25.0434C153.984 23.6604 153.299 22.5969 152.393 21.6648C150.994 20.2005 149.397 18.9403 147.648 17.9209C147.248 17.671 146.82 17.471 146.372 17.3255C145.469 17.0725 144.474 17.5995 144.314 18.3109C143.659 21.4536 142.01 23.8639 139.077 25.2736C138.462 25.5684 138.168 25.9908 138.278 26.6052C138.396 27.2501 138.415 27.9635 139.297 28.2279C141.666 28.9413 143.61 30.2654 144.886 32.4474C145.002 32.6693 145.191 32.8445 145.421 32.9439C146.065 33.2215 146.776 33.3012 147.465 33.1728C148.154 33.0444 148.789 32.7138 149.29 32.2229C150.607 30.8988 150.744 29.4188 149.783 27.7676V27.7714ZM83.8476 174.769C83.8875 174.35 83.5933 174.243 83.1415 174.234C82.0386 174.211 80.9376 174.158 79.8366 174.105C76.4672 173.947 73.1301 173.475 69.7892 173.047C69.1932 172.971 68.9236 173.098 68.8401 173.726C68.5857 175.628 68.3086 177.531 67.9897 179.433C67.9043 179.949 68.058 180.137 68.5269 180.185C68.8097 180.213 69.0964 180.272 69.3716 180.291C73.7869 180.575 78.0105 181.528 81.8089 183.919C82.479 184.341 82.6138 184.01 82.6802 183.426C82.7732 182.61 82.889 181.798 82.9991 180.984C83.2763 178.94 83.5553 176.913 83.8476 174.769ZM133.772 179.524C133.54 177.344 133.331 175.398 133.126 173.452C133.05 172.733 132.557 172.798 132.076 172.918C127.986 173.943 123.798 174.135 119.618 174.367C118.27 174.441 118.212 174.504 118.36 175.889C118.622 178.335 118.88 180.782 119.1 183.232C119.153 183.828 119.218 184.029 119.846 183.675C123.851 181.421 128.21 180.472 132.754 180.303C133.481 180.276 133.952 180.167 133.772 179.532V179.524ZM181.216 134.68C180.618 134.68 180.303 134.69 179.988 134.68C179.608 134.665 179.428 134.785 179.392 135.207C179.229 137.159 179.115 139.118 179.261 141.064C179.438 143.427 180.005 144.432 182.374 144.886C183.151 145.033 183.948 145.042 184.728 144.911C186.235 144.66 187.596 144.038 187.9 142.371C188.312 140.106 188.109 137.785 188.321 135.496C188.369 134.983 188.092 134.859 187.63 134.859C185.398 134.87 183.16 134.985 181.216 134.68ZM180.791 123.898C181.759 123.821 182.862 123.898 183.961 123.707C184.867 123.546 185.358 123.091 185.512 122.197C185.867 120.119 185.78 118.042 185.474 115.974C185.358 115.194 184.813 114.747 184.029 114.724C181.607 114.652 179.183 114.589 176.759 114.576C176.078 114.576 175.387 114.816 175.296 115.634C175.066 117.673 174.865 119.716 175.258 121.763C175.467 122.851 176.095 123.454 177.179 123.665C178.333 123.913 179.496 123.89 180.791 123.905V123.898ZM130.867 26.5405C131.192 25.9185 131.509 25.4105 131.731 24.8646C131.896 24.4654 131.92 24.0219 131.8 23.607C131.68 23.1921 131.423 22.8305 131.07 22.5817C130.326 22.0643 129.457 22.1328 128.745 22.8233C128.147 23.394 127.642 24.0998 127.524 24.9159C127.174 27.386 126.251 29.7393 124.829 31.7872C124.592 32.1297 124.639 32.358 124.95 32.571C125.434 32.9058 126 33.195 126.539 32.9287C127.078 32.6623 127.126 32.845 127.31 33.2711C127.948 34.7416 129.373 35.4531 130.951 35.143C132.714 34.7987 133.66 33.507 134.426 32.0517C135.609 29.8164 134.666 26.1924 130.862 26.5481L130.867 26.5405ZM125.184 25.5894C125.277 23.9286 124.677 23.0668 123.815 22.3649C122.627 21.4004 121.169 21.0465 119.728 20.7136C119.09 20.5652 118.531 20.9476 118.369 21.6134C118.208 22.2793 118.267 22.9736 119.026 23.3008C119.466 23.4714 119.919 23.6038 120.381 23.6965C120.627 23.7519 120.856 23.8678 121.046 24.0339C121.236 24.2 121.382 24.4109 121.471 24.6477C121.556 24.8379 121.575 25.0282 121.414 25.1632C121.196 25.3535 121.087 25.1119 120.966 25.0072C120.289 24.4294 119.456 24.0664 118.572 23.9647C117.974 23.8717 117.362 23.9896 116.84 24.2984C116.319 24.6072 115.921 25.0876 115.714 25.6578C114.918 27.72 116.573 29.6661 118.961 29.4359C119.506 29.3827 119.818 29.3751 120.089 30.0066C120.531 31.0434 122.426 31.3383 123.065 30.4651C124.111 29.0164 124.832 27.3584 125.178 25.6046L125.184 25.5894ZM143.566 35.377C143.582 34.6593 143.356 33.9574 142.923 33.3852C142.044 32.143 140.85 31.2755 139.521 30.5983C138.783 30.2178 138.098 30.3795 137.623 31.0853C137.226 31.6731 137.477 32.4835 138.174 32.9686C138.44 33.1365 138.717 33.2884 139.001 33.4233C139.372 33.6056 139.673 33.9033 139.861 34.2717C139.981 34.5114 140.081 34.7606 139.861 34.9623C139.538 35.2552 139.44 34.8558 139.292 34.7169C138.678 34.1709 138.075 33.6097 137.3 33.2996C136.782 33.0923 136.351 33.098 136.072 33.7334C135.663 34.6294 135.039 35.4103 134.256 36.0067C133.847 36.3263 133.84 36.6211 134.015 37.0644C134.499 38.299 135.554 38.651 136.699 38.8621C137.008 38.9192 137.306 38.8393 137.312 39.3377C137.325 40.2375 137.969 40.6541 138.72 40.9091C139.421 41.1469 140.034 40.9205 140.52 40.3935C141.554 39.2866 142.461 38.0672 143.225 36.7581C143.477 36.3437 143.597 35.8616 143.566 35.377ZM220.351 51.8971C220.33 51.8781 220.305 51.84 220.282 51.8419C220.259 51.8438 220.239 51.8819 220.216 51.9047L220.314 51.9732L220.351 51.8971Z" fill="#003282"/>
<path id="Vector_2" d="M36.226 73.523C37.3251 73.3214 38.4318 73.1521 39.4207 72.5813C40.0502 72.5686 40.6755 72.4746 41.281 72.3017C43.24 71.7196 45.2079 71.1692 47.1846 70.6505C48.6861 70.2548 49.7415 71.1013 49.8934 72.6689C50.0832 74.5465 50.3281 76.4184 50.5578 78.2922C50.8956 81.0411 51.243 83.7881 51.5771 86.5371C51.8637 88.8808 52.1295 91.2264 52.4199 93.5758C52.7673 96.3856 53.1356 99.1935 53.4811 102.005C53.8265 104.817 54.1435 107.63 54.4928 110.442C54.899 113.72 55.3394 116.994 55.7457 120.272C56.1519 123.549 56.5239 126.837 56.9359 130.116C57.4332 134.083 57.9552 138.045 58.4678 142.01C58.6462 143.307 58.8253 144.605 59.005 145.902C59.2707 147.957 59.5194 150.013 59.806 152.064C60.0813 154.021 60.4229 155.967 60.6792 157.927C60.869 159.352 59.6959 160.295 58.2286 159.888C55.385 159.101 52.5497 158.282 49.7225 157.432C46.5942 156.496 43.4735 155.53 40.3566 154.552C39.1645 154.172 38.1907 154.782 37.215 155.243C32.849 157.297 28.5153 159.399 24.1664 161.48C23.6558 161.724 23.0996 161.886 22.6175 162.173C21.2887 162.961 19.8119 162.162 19.5385 160.432C18.8456 156.057 17.9668 151.721 17.1277 147.376C17.0214 146.823 16.9626 146.26 16.8829 145.7L19.7302 146.128C19.81 146.655 19.8707 147.186 19.9713 147.709C20.6471 151.194 21.3361 154.678 22.0119 158.163C22.2017 159.114 22.4865 159.226 23.485 158.753C28.1015 156.563 32.7104 154.362 37.3422 152.208C38.1394 151.828 38.4356 151.331 38.3008 150.496C38.0711 149.071 37.8414 147.643 37.6231 146.218C37.0897 142.74 36.5734 139.261 36.0267 135.785C35.7476 134.026 35.4154 132.275 35.1079 130.52C35.1077 129.577 34.9657 128.639 34.6865 127.738C34.6865 127.548 34.6865 127.369 34.4796 127.287L34.4929 127.314C34.5309 125.494 34.1132 123.736 33.7754 121.967C34.4815 119.619 34.155 117.454 32.6231 115.508C33.0464 114.557 32.7427 113.606 32.6231 112.645L31.712 105.443C31.4481 103.35 31.1729 101.258 30.9223 99.1649C30.6964 97.2911 30.499 95.4135 30.2826 93.5396C29.9921 91.0418 29.6922 88.5459 29.4018 86.0462C29.1487 83.8306 28.8956 81.6112 28.6425 79.388C28.5912 78.9409 28.3976 78.8173 27.9345 78.9504C23.0357 80.3633 18.1319 81.7583 13.223 83.1356C12.7751 83.2612 12.8434 83.4229 12.8586 83.7862C12.9326 84.8268 13.1205 85.8465 13.2724 86.8738C13.7052 89.7958 14.1171 92.7216 14.5613 95.6418C14.941 98.1605 15.3605 100.673 15.7629 103.188L14.2253 103.479C14.1627 103.099 14.0981 102.738 14.0355 102.367C13.5495 99.3571 13.0541 96.3494 12.5833 93.3399C12.1657 90.6766 11.7291 88 11.395 85.3195C11.2052 83.8338 10.9319 82.4926 9.44742 81.7317C8.37492 81.1819 7.51881 80.3201 6.56968 79.5934C5.4649 78.7488 4.34304 77.9251 3.00288 76.9301C3.91783 81.0678 4.76635 84.8991 5.61297 88.7248C6.59436 93.182 7.54728 97.6468 8.57423 102.095C8.79253 103.046 8.78683 104.102 9.53664 104.876L6.85822 106.207C5.69016 100.905 4.52147 95.6024 3.35215 90.2999C2.25117 85.3576 1.12551 80.4 0.0416116 75.433C-0.148213 74.5579 0.356721 73.7703 0.643356 72.9866C1.95694 69.3721 3.33507 65.7975 4.66764 62.1983C5.16308 60.8666 5.74015 60.1875 6.57728 60.2959C7.73141 60.4329 8.2857 61.2471 8.57613 62.301C9.25823 64.7487 9.94287 67.1964 10.63 69.6441C11.5393 72.8781 12.4637 76.1121 13.3578 79.3461C13.5476 80.0443 13.9918 80.0272 14.5138 79.875C17.8567 78.9067 21.1957 77.9175 24.5423 76.9606C28.192 75.9181 31.8461 74.8933 35.5047 73.8864C35.7856 73.816 36.0665 73.8046 36.226 73.523ZM35.0529 115.656C37.1903 115.325 39.3277 114.994 41.4652 114.663C44.5327 114.184 47.5965 113.686 50.6641 113.225C51.2335 113.142 51.3987 112.995 51.3 112.375C51.0779 111.011 50.9868 109.626 50.8273 108.252C50.5995 106.318 50.3508 104.385 50.125 102.448C49.9086 100.605 49.7054 98.7616 49.5023 96.9163C49.2897 94.9778 49.1056 93.0355 48.8721 91.0989C48.5304 88.2606 48.1508 85.4242 47.7977 82.5859C47.4788 80.0291 47.1504 77.4723 46.879 74.9079C46.7916 74.0994 46.4993 73.9967 45.7628 74.1907C40.8273 75.4901 35.9071 76.7684 30.9565 77.9955C30.2427 78.1705 30.0833 78.4939 30.1497 79.1026C30.2712 80.1965 30.4041 81.2884 30.5294 82.3823C30.7571 84.3817 30.9811 86.3773 31.2165 88.3785C31.4215 90.1287 31.6512 91.8751 31.8524 93.6233C32.1334 96.0603 32.3858 98.501 32.6744 100.936C32.9534 103.276 33.2799 105.61 33.5571 107.95C33.8342 110.29 34.0715 112.637 34.3391 114.979C34.3904 115.379 34.5479 115.725 35.0529 115.656ZM57.6211 156.129C57.3668 154.293 57.1257 152.456 56.8618 150.612C56.2525 146.509 55.6128 142.413 55.0129 138.31C54.4757 134.64 53.9803 130.967 53.4583 127.295C52.9059 123.407 52.3345 119.522 51.7897 115.634C51.6891 114.911 51.3873 114.682 50.6508 114.808C47.4617 115.318 44.2632 115.759 41.0722 116.258C39.174 116.552 37.2928 116.844 35.387 117.038C34.901 117.087 34.5233 117.173 34.658 117.989C35.3813 122.296 35.9716 126.625 36.636 130.942C37.5851 137.06 38.5343 143.174 39.4834 149.292C39.6732 150.483 39.7624 151.598 41.3209 151.982C43.8531 152.604 46.3323 153.453 48.8341 154.206C51.5183 155.012 54.2043 155.813 56.8827 156.631C57.3801 156.791 57.6914 156.747 57.6211 156.129ZM6.55829 64.8502L6.32671 64.8273C5.21054 67.932 4.10196 71.0385 2.97061 74.1356C2.82634 74.5275 2.98959 74.7424 3.24395 74.9441C5.61803 76.8122 7.99147 78.6771 10.3643 80.5389C10.5142 80.6569 10.6832 80.7805 10.8654 80.6245C11.0476 80.4685 10.8825 80.3335 10.8445 80.1889C10.5161 78.9409 10.201 77.7006 9.85365 76.4679C8.76406 72.5909 7.66813 68.7183 6.56589 64.8502H6.55829Z" fill="#D6C4A0"/>
<path id="Vector_3" d="M14.2215 103.497L15.7591 103.206C18.335 102.994 20.9033 102.808 23.4944 103.128C26.6854 103.52 29.0297 105.475 29.5062 108.391C29.6669 109.265 29.6435 110.162 29.4375 111.026C29.2316 111.889 28.8476 112.7 28.3103 113.406C30.0604 113.623 31.4974 114.256 32.625 115.499C34.1588 117.445 34.4834 119.61 33.7772 121.957C33.3046 123.03 32.6781 123.989 31.6208 124.746C32.9989 125.218 33.7753 126.232 34.4948 127.305L34.4815 127.278C34.478 127.364 34.4949 127.45 34.5309 127.528C34.5668 127.607 34.6208 127.676 34.6884 127.729C34.9708 128.632 35.1155 129.572 35.1174 130.518C34.9086 132.991 33.7165 134.798 31.3835 135.844C32.5832 137.197 33.0919 138.698 32.9021 140.38C32.5528 143.309 30.7495 145.065 27.5605 145.706C24.975 146.226 22.3631 146.262 19.7435 146.129L16.8961 145.701C15.9944 145.436 15.0814 145.208 14.1949 144.902C8.28566 142.86 4.73214 138.54 2.67444 132.837C0.863515 127.816 0.379462 122.596 0.806567 117.314C1.0989 113.699 2.20558 110.349 4.96942 107.781C5.56547 107.227 6.22796 106.744 6.86767 106.228L9.5461 104.897C11.0743 104.334 12.6357 103.866 14.2215 103.497ZM22.2283 143.431C23.1432 143.431 24.0677 143.513 24.9713 143.412C26.3 143.264 27.6819 143.163 28.8968 142.486C30.7742 141.441 30.9697 138.57 29.21 137.48C28.2324 136.877 27.1068 136.883 25.983 137.024C23.6007 137.324 21.1994 137.334 18.8076 137.448C18.6165 137.458 18.4254 137.428 18.2464 137.361C18.0673 137.293 17.9042 137.189 17.7674 137.055C17.6306 136.921 17.523 136.76 17.4514 136.582C17.3799 136.404 17.3459 136.213 17.3517 136.021C17.3517 135.26 17.8984 134.779 18.7944 134.714C19.6429 134.655 20.4914 134.591 21.338 134.511C23.9956 134.264 26.674 134.054 29.3315 133.74C31.3683 133.499 32.568 132.028 32.5092 130.052C32.4503 128.128 31.1804 126.85 29.1265 126.694C28.6209 126.66 28.1135 126.66 27.6079 126.694C24.4359 126.884 21.2659 127.086 18.0958 127.284C17.1315 127.343 16.4083 126.861 16.3323 126.106C16.2659 125.448 16.9151 124.794 17.7655 124.632C21.2298 123.97 24.7435 123.681 28.2438 123.317C30.3718 123.076 31.5107 121.898 31.5221 119.775C31.5335 117.683 30.2958 116.254 28.2856 116.062C26.5468 115.896 24.8289 116.145 23.1072 116.351C20.7325 116.634 18.3616 116.908 15.9774 117.14C15.2617 117.211 14.6486 116.885 14.4417 116.151C14.2348 115.417 14.5252 114.833 15.1725 114.47C15.5543 114.253 15.9637 114.09 16.3893 113.984C18.8076 113.398 21.2811 113.142 23.745 112.843C25.4857 112.638 26.5354 112.002 26.8923 110.733C27.5813 108.287 26.1558 106.12 23.6197 105.787C19.3908 105.248 15.0948 105.704 11.0723 107.119C7.02522 108.513 4.35439 111.177 3.65394 115.489C2.69434 121.167 3.24028 126.998 5.23708 132.397C6.56585 136.012 8.63494 139.075 12.0708 141.042C15.2238 142.839 18.6349 143.547 22.2283 143.431Z" fill="#003282"/>
<path id="Vector_4" d="M58.4664 142.002C57.9539 138.038 57.4319 134.075 56.9346 130.109C56.5226 126.829 56.1525 123.544 55.7444 120.264C55.3362 116.984 54.8977 113.712 54.4915 110.434C54.1422 107.623 53.8252 104.807 53.4797 101.997C53.1343 99.1877 52.766 96.3779 52.4186 93.5681C52.1282 91.2263 51.8624 88.8807 51.5758 86.5294C51.2417 83.7805 50.8943 81.0335 50.5564 78.2845C50.3268 76.4107 50.0724 74.5388 49.8921 72.6612C49.7402 71.0936 48.6848 70.2471 47.1833 70.6428C45.2091 71.164 43.2412 71.7144 41.2797 72.294C40.6742 72.4669 40.0489 72.5609 39.4194 72.5737C40.0857 69.7449 41.1981 67.0739 42.3788 64.4354C45.1605 58.1638 49.0542 52.4499 53.8708 47.571C61.3746 39.9863 70.395 35.101 80.7424 32.6108C86.4529 31.2192 92.3446 30.7263 98.2062 31.1498C112.27 32.1828 124.949 37.0471 135.949 45.8836C147.16 54.9007 154.328 66.5489 157.458 80.653C157.796 82.0275 158.054 83.4204 158.231 84.8249C158.257 85.0874 158.358 85.2985 157.946 85.3404C151.706 85.9492 148.55 90.1286 146.386 95.4229C144.933 98.9708 144.216 102.698 143.728 106.487C142.569 115.083 143.306 123.829 145.888 132.108C146.097 132.799 146.258 133.521 146.585 134.155C147.111 135.184 146.775 135.844 145.976 136.556C136.462 145.116 125.664 151.309 113.237 154.524C107.986 155.89 102.573 156.53 97.1489 156.426C83.1437 156.16 70.7633 151.425 59.7648 142.83C59.3719 142.51 59.0644 142.012 58.4664 142.002ZM95.1595 66.4481C94.256 64.0758 93.2613 61.9338 91.8073 60.0162C87.578 54.4537 80.3836 54.0561 75.7329 59.2552C71.9744 63.4557 70.3893 68.592 69.8047 74.0936C69.4668 77.2535 69.7325 80.3962 70.3647 83.5065C71.2284 87.7602 72.728 91.7304 75.7006 94.9949C79.3984 99.0507 84.5692 99.8858 88.9884 96.5891C91.7978 94.4965 93.4132 91.5687 94.6356 88.3728C94.7457 88.0874 94.7249 87.6955 95.1235 87.5452C96.0195 90.0982 97.1622 92.4914 98.92 94.5041C101.629 97.6182 104.96 99.26 109.159 98.3773C112.324 97.7057 114.664 95.752 116.306 93.0392C120.292 86.4666 121.782 79.3841 120.456 71.7499C119.746 67.6675 118.423 63.8266 116.065 60.4062C112.975 55.9242 107.458 54.3415 102.846 56.6243C99.9033 58.0815 97.9633 60.5508 96.5244 63.4404C96.0612 64.3745 95.6588 65.3504 95.1614 66.4481H95.1595ZM97.521 124.255C101.674 124.171 105.196 122.45 108.064 119.334C111.338 115.772 113.216 111.534 114.003 106.791C114.178 105.738 114.193 104.638 115.116 103.799C115.626 103.339 115.48 102.627 114.954 102.117C114.368 101.547 113.734 101.52 113.096 102.03C109.917 104.583 106.198 105.983 102.333 107.056C96.7864 108.593 91.1922 108.958 85.5316 107.714C82.8706 107.107 80.2837 106.21 77.8172 105.039C76.9155 104.623 76.2321 104.876 75.8278 105.677C75.4614 106.409 75.6816 107.071 76.5378 107.55C77.3298 107.998 78.146 108.4 78.9827 108.757C79.2763 108.866 79.5415 109.04 79.7587 109.267C79.9759 109.493 80.1395 109.765 80.2374 110.063C81.223 112.902 82.7153 115.537 84.6414 117.84C87.9842 121.788 92.1565 124.09 97.521 124.255Z" fill="#C5E6F0"/>
<path id="Vector_5" d="M154.121 127.282C153.411 124.232 152.924 121.133 152.663 118.012C152.323 114.201 152.455 110.363 153.058 106.584C153.785 102.038 155.023 97.6624 157.424 93.6788C157.647 93.2989 157.959 92.979 158.333 92.7467C164.554 88.8316 170.59 84.6407 176.557 80.3452C179.73 78.0623 182.821 75.6521 185.957 73.3217C186.739 72.7395 187.574 72.2278 188.392 71.6971C189.303 71.1073 189.468 70.4719 188.869 69.5588C187.143 66.924 186.526 64.0305 186.78 60.9164C186.849 60.0679 186.828 59.2157 186.982 58.3691C187.162 57.3742 186.902 56.4668 186.431 55.5593C185.429 53.6323 184.446 51.6937 183.54 49.721C182.635 47.7483 182.908 46.2378 184.263 45.1877C185.723 44.0558 187.87 44.1376 189.415 45.3779C191.289 46.8998 192.158 49.0304 192.872 51.2353C193.178 52.1936 193.428 53.1693 193.618 54.1573C193.66 54.4345 193.765 54.6984 193.924 54.9291C194.084 55.1598 194.293 55.3513 194.537 55.489C197.302 57.1611 198.903 59.5847 199.244 62.8321C199.326 63.6044 199.148 64.3406 199.079 65.0921C199.058 65.3108 198.988 65.5258 198.967 65.7446C198.897 66.4599 198.982 67.0895 199.856 67.255C200.615 67.3996 201.222 66.9754 201.429 66.1136C202.314 62.4611 201.429 59.1909 199.269 56.2061C199.064 55.9265 198.889 55.5803 198.608 55.4053C197.361 54.6234 197.47 53.6151 197.787 52.3386C199.218 46.506 200.501 40.6391 202.183 34.8693C202.526 33.6917 202.942 32.5389 203.701 31.5364C204.708 30.218 206.014 29.7196 207.498 30.1609C208.812 30.5528 209.673 31.757 209.797 33.3208C209.987 35.83 209.307 38.2136 208.747 40.6068C208.001 43.7952 207.152 46.9588 206.348 50.1319C206.08 51.1896 206.336 51.8574 207.126 52.1769C207.976 52.5213 208.644 52.2397 209.203 51.26C211.236 47.6284 213.233 43.9778 215.294 40.3633C216.169 38.8414 217.054 37.291 218.369 36.0678C219.028 35.4552 219.768 34.9834 220.683 34.8845C223.324 34.6011 224.873 36.6499 224.1 39.4254C223.392 41.9461 221.938 44.1014 220.641 46.3291C218.867 49.3729 217.035 52.3938 215.226 55.4262C215.095 55.641 214.977 55.864 214.875 56.0939C214.569 56.8035 214.609 57.4674 215.254 57.9544C215.869 58.411 216.572 58.4909 217.173 57.9829C218.692 56.697 220.161 55.352 221.668 54.0527C223.99 52.0571 226.205 49.9303 228.703 48.1554C229.527 47.5675 230.395 47.0672 231.45 47.0273C233.394 46.9531 234.622 48.4845 234.161 50.3944C233.827 51.7794 232.929 52.8047 231.98 53.7768C229.039 56.7902 225.816 59.4972 222.678 62.2861C222.207 62.7046 221.71 63.0946 221.226 63.496C220.598 64.0153 220.307 64.7021 220.681 65.4269C221.072 66.1878 221.807 66.2354 222.58 65.9748C225.731 64.9151 228.83 63.6919 232.029 62.7807C233.113 62.4687 234.193 62.0939 235.357 62.2252C237.354 62.4516 238.204 64.1028 237.223 65.8587C236.587 66.9906 235.514 67.6089 234.396 68.1415C231.714 69.3897 228.933 70.4135 226.082 71.2024C223.234 71.99 220.994 73.3597 219.058 75.7148C216.499 78.8366 213.162 81.0414 208.998 81.5798C206.267 81.9466 203.489 81.5999 200.932 80.5735C200.051 80.2215 199.413 80.4023 198.717 81.0357C196.422 83.1169 193.903 84.9242 191.425 86.7752C181.697 94.0498 171.646 100.843 161.131 106.94C160.137 107.54 159.097 108.06 158.022 108.496C157.248 108.793 156.855 109.491 157.073 110.224C157.314 111.051 157.965 111.264 158.715 111.123C159.227 111.026 159.711 110.779 160.353 110.553C159.277 116.484 157.555 122.072 154.121 127.282Z" fill="#C5E6F0"/>
<path id="Vector_7" d="M54.2898 42.9863C54.4796 41.1905 55.1858 39.6001 55.9242 38.0401C59.7491 29.9665 65.7021 23.976 73.707 20.0724C78.8561 17.5521 84.4667 16.1179 90.1913 15.8586C93.5835 15.695 96.9244 15.9994 100.267 16.4674C100.472 16.4959 100.774 16.4255 100.818 16.7033C100.839 16.8384 100.66 17.0324 100.531 17.158C97.3155 20.3286 93.9834 23.3787 90.5349 26.3083C90.1562 26.5935 89.7984 26.9057 89.4643 27.2424C88.1716 28.7186 86.3455 28.574 84.6674 28.827C75.9564 30.1587 67.8755 33.1016 60.5749 38.1029C58.39 39.6001 56.3646 41.3008 54.2898 42.9863Z" fill="#00A7CD"/>
<path id="Vector_11" d="M71.7035 153.552C75.5437 155.264 79.4009 156.664 83.4176 157.593C84.1141 157.781 84.8208 157.929 85.5342 158.036C86.06 158.095 86.1283 158.279 86.06 158.763C85.4905 162.758 84.9571 166.752 84.4199 170.747C84.3477 171.272 84.101 171.554 83.5524 171.493C79.1162 171 74.6591 170.711 70.2419 170.044C69.6344 169.95 69.3896 169.591 69.4579 169.079C69.8224 166.304 70.2172 163.532 70.6215 160.76C70.9689 158.378 71.3372 155.987 71.7035 153.552Z" fill="#C5E6F0"/>
<path id="Vector_14" d="M129.935 7.60228C129.95 9.34674 128.718 10.6746 127.215 10.5871C126.494 10.5452 126.368 10.9676 126.178 11.4108C125.303 13.4996 124.47 15.5922 123.196 17.4945C122.238 18.908 122.238 18.9156 120.632 18.5466C119.254 18.2232 118.071 18.4838 117.122 19.5871C116.949 19.7888 116.799 19.9676 116.492 19.8592C114.899 19.3056 113.367 18.6264 112.316 17.2472C111.393 16.0488 111.535 14.5421 112.566 13.6651C113.597 12.7881 115.051 12.9422 116.121 14.0056C117.192 15.069 118.38 14.8503 118.986 13.5015C119.641 12.0405 120.239 10.5547 120.909 9.10134C121.121 8.64097 120.956 8.48117 120.58 8.32518C120.081 8.13747 119.592 7.92087 119.117 7.67647C118.455 7.33033 117.95 6.74296 117.707 6.03523C117.463 5.3275 117.5 4.55324 117.809 3.87175C118.426 2.49825 119.806 1.93135 121.363 2.46781C123.771 3.28461 126.118 4.27319 128.386 5.42598C129.367 5.9225 129.876 6.71959 129.935 7.60228Z" fill="white"/>
<path id="Vector_15" d="M142.228 16.5589C142.228 20.4911 138.777 24.0694 134.956 24.1056C134.424 24.1056 134.143 24.0713 134.069 23.3846C133.788 20.8202 130.852 19.207 128.511 20.3484C127.894 20.6471 127.621 20.5386 127.372 19.9908C127.318 19.8772 127.254 19.7684 127.182 19.6655C126.216 18.2368 125.804 16.7948 127.015 15.2786C127.157 15.069 127.262 14.8368 127.326 14.5919C127.706 13.4257 128.276 12.5449 129.616 12.1683C130.755 11.8506 131.387 10.7605 131.763 9.66666C131.992 8.99513 132.332 8.78206 133.004 8.6508C136.793 7.91649 142.203 11.1885 142.228 16.5589ZM131.408 16.6084C131.406 16.9721 131.477 17.3324 131.616 17.6683C131.755 18.0043 131.96 18.3091 132.218 18.5651C132.475 18.8212 132.781 19.0232 133.118 19.1595C133.454 19.2959 133.814 19.3637 134.177 19.3592C135.755 19.3763 137.118 17.902 137.131 16.1651C137.131 14.6623 135.889 13.3344 134.42 13.2926C132.902 13.2488 131.406 14.8962 131.402 16.6084H131.408Z" fill="white"/>
<path id="Vector_16" d="M149.783 27.7675C150.744 29.4226 150.607 30.9026 149.297 32.2095C148.796 32.7004 148.161 33.0311 147.472 33.1594C146.783 33.2878 146.072 33.2081 145.428 32.9305C145.199 32.8312 145.01 32.656 144.893 32.434C143.618 30.252 141.666 28.928 139.305 28.2146C138.422 27.9502 138.403 27.2368 138.285 26.5919C138.175 25.9869 138.475 25.5646 139.085 25.2602C142.017 23.8506 143.667 21.4403 144.322 18.2976C144.472 17.5861 145.476 17.0592 146.379 17.3122C146.827 17.4577 147.256 17.6577 147.655 17.9076C149.404 18.9269 151.001 20.1872 152.401 21.6515C153.306 22.5836 153.991 23.647 153.752 25.03C153.452 26.7631 152.308 27.6933 150.525 27.7181C150.309 27.7276 150.1 27.7466 149.783 27.7675ZM145.495 28.5608C146.036 28.5608 146.332 28.0491 146.099 27.4841C145.801 26.765 145.111 26.4511 144.553 26.0021C144.364 25.8557 144.147 25.5931 143.927 25.9261C143.707 26.259 143.272 26.5443 143.283 27.0161C143.291 27.2558 145.216 28.5532 145.495 28.557V28.5608ZM148.876 24.0199C148.876 23.5538 147.475 22.148 147.059 22.1613C146.605 22.1784 146.562 22.6616 146.3 22.9222C146.11 23.1125 146.11 23.3179 146.323 23.4777C146.827 23.8411 147.251 24.3205 147.858 24.543C148.466 24.7656 148.737 24.4612 148.876 24.0161V24.0199Z" fill="white"/>
<path id="Vector_17" d="M83.8472 174.769C83.5549 176.907 83.2777 178.94 82.9987 180.974C82.8886 181.788 82.7728 182.601 82.6798 183.417C82.6134 184.001 82.4786 184.332 81.8085 183.909C78.012 181.518 73.7865 180.565 69.3712 180.282C69.0883 180.263 68.8017 180.204 68.5265 180.175C68.0576 180.128 67.9038 179.939 67.9893 179.424C68.3082 177.521 68.5853 175.619 68.8397 173.717C68.9232 173.089 69.1927 172.956 69.7888 173.037C73.1297 173.465 76.4668 173.937 79.8362 174.095C80.9372 174.148 82.0382 174.202 83.1411 174.225C83.5928 174.249 83.8871 174.35 83.8472 174.769Z" fill="white"/>
<path id="Vector_18" d="M133.771 179.532C133.952 180.168 133.481 180.276 132.758 180.303C128.202 180.472 123.851 181.421 119.85 183.676C119.221 184.029 119.157 183.828 119.104 183.232C118.883 180.782 118.625 178.336 118.363 175.889C118.215 174.512 118.274 174.449 119.622 174.367C123.798 174.135 127.989 173.943 132.08 172.918C132.557 172.798 133.054 172.727 133.13 173.452C133.331 175.406 133.54 177.352 133.771 179.532Z" fill="white"/>
<path id="Vector_21" d="M130.861 26.5481C134.658 26.1923 135.607 29.8163 134.42 32.0649C133.661 33.5202 132.712 34.8119 130.945 35.1563C129.367 35.4663 127.942 34.7549 127.304 33.2843C127.114 32.8582 127.055 32.6851 126.533 32.9419C126.011 33.1987 125.428 32.9191 124.944 32.5843C124.633 32.3674 124.585 32.1429 124.823 31.8005C126.245 29.7526 127.168 27.3992 127.518 24.9292C127.636 24.1093 128.141 23.4073 128.739 22.8366C129.451 22.146 130.32 22.0756 131.064 22.595C131.417 22.8438 131.674 23.2054 131.794 23.6203C131.914 24.0352 131.89 24.4787 131.725 24.8778C131.503 25.4181 131.186 25.926 130.861 26.5481ZM129.823 31.7263C130.017 31.718 130.208 31.6704 130.383 31.5865C130.559 31.5025 130.716 31.3838 130.844 31.2376C130.973 31.0914 131.071 30.9206 131.132 30.7356C131.194 30.5505 131.217 30.355 131.201 30.1607C131.127 29.4682 130.821 28.9584 130.009 28.9907C129.238 29.0231 128.68 29.6965 128.725 30.5487C128.758 31.3002 129.143 31.6997 129.823 31.7263Z" fill="white"/>
<path id="Vector_22" d="M125.178 25.6042C124.833 27.3658 124.11 29.0312 123.06 30.4856C122.42 31.3493 120.526 31.0563 120.083 30.0271C119.812 29.3956 119.5 29.4032 118.956 29.4564C116.568 29.6866 114.912 27.7443 115.708 25.6783C115.915 25.1081 116.313 24.6277 116.835 24.3189C117.356 24.0101 117.968 23.8922 118.567 23.9852C119.45 24.0869 120.283 24.4498 120.96 25.0277C121.082 25.1324 121.19 25.3797 121.408 25.1837C121.57 25.043 121.551 24.866 121.465 24.6682C121.377 24.4314 121.231 24.2205 121.04 24.0544C120.85 23.8883 120.622 23.7724 120.376 23.717C119.913 23.6224 119.46 23.4881 119.02 23.3156C118.261 22.9884 118.202 22.3017 118.363 21.6282C118.525 20.9548 119.085 20.58 119.723 20.7284C121.163 21.0613 122.621 21.4152 123.809 22.3797C124.671 23.0816 125.271 23.9434 125.178 25.6042ZM120.824 26.8274C120.655 26.3822 120.241 26.2433 119.859 26.2281C119.407 26.2091 119.1 26.5059 119.1 26.9891C119.1 27.5255 119.48 27.6929 119.92 27.6625C120.408 27.6359 120.685 27.303 120.824 26.8274Z" fill="white"/>
<path id="Vector_23" d="M143.566 35.3767C143.592 35.8644 143.467 36.3481 143.208 36.7616C142.444 38.0707 141.537 39.2901 140.503 40.397C140.017 40.924 139.404 41.158 138.703 40.9126C137.944 40.6577 137.308 40.2411 137.295 39.3412C137.295 38.8428 136.991 38.9227 136.682 38.8656C135.543 38.6545 134.481 38.2949 133.997 37.0679C133.823 36.6247 133.83 36.3298 134.238 36.0102C135.021 35.4139 135.646 34.633 136.055 33.7369C136.336 33.1015 136.765 33.0958 137.283 33.3032C138.058 33.6132 138.661 34.1744 139.275 34.7204C139.43 34.8593 139.529 35.2588 139.844 34.9658C140.068 34.7642 139.967 34.515 139.844 34.2753C139.656 33.9068 139.355 33.6092 138.984 33.4268C138.699 33.2919 138.423 33.1401 138.156 32.9721C137.46 32.487 137.207 31.6766 137.606 31.0888C138.081 30.383 138.766 30.2251 139.504 30.6018C140.833 31.279 142.033 32.1446 142.912 33.385C143.348 33.9556 143.579 34.6577 143.566 35.3767ZM138.671 36.6836C138.627 36.1757 138.242 35.9722 137.849 35.9018C137.357 35.8162 137.071 36.1605 137.048 36.6209C137.025 37.0812 137.359 37.3133 137.765 37.3476C138.223 37.3837 138.536 37.1383 138.671 36.6798V36.6836Z" fill="white"/>
<path id="Vector_24" d="M227.677 61.6302C227.58 61.6969 227.475 61.7523 227.385 61.6302C227.374 61.6168 227.473 61.5176 227.521 61.4565L227.677 61.6302Z" fill="white"/>
<path id="Vector_25" d="M220.35 51.8932L220.314 51.9693L220.216 51.9008C220.238 51.878 220.259 51.838 220.282 51.838C220.305 51.838 220.329 51.8742 220.35 51.8932Z" fill="white"/>
<path id="Vector_26" d="M210.707 43.4679L210.621 43.5963L210.598 43.4871H210.72L210.707 43.4679Z" fill="white"/>
<path id="Vector_27" d="M35.0526 115.657C34.5439 115.723 34.3901 115.377 34.3445 114.976C34.0769 112.634 33.8396 110.288 33.5625 107.946C33.2853 105.605 32.9588 103.272 32.6798 100.932C32.3912 98.4975 32.1388 96.0567 31.8578 93.6198C31.6566 91.8715 31.4269 90.1252 31.2219 88.375C30.9865 86.3775 30.7625 84.3801 30.5348 82.3788C30.4095 81.2849 30.2766 80.193 30.1551 79.0991C30.0887 78.4903 30.2481 78.1669 30.9619 77.9919C35.8973 76.7687 40.8327 75.4903 45.7682 74.1872C46.5028 73.997 46.797 74.0959 46.8844 74.9044C47.1558 77.4688 47.4842 80.0256 47.8031 82.5823C48.1562 85.4206 48.5358 88.2571 48.8775 91.0954C49.111 93.032 49.2951 94.9743 49.5077 96.9128C49.7108 98.7581 49.914 100.601 50.1304 102.445C50.3562 104.381 50.6049 106.314 50.8327 108.249C50.9922 109.622 51.0833 111.007 51.3054 112.371C51.4041 112.992 51.2294 113.132 50.6695 113.222C47.6019 113.682 44.5381 114.173 41.4706 114.66C39.3293 114.999 37.19 115.331 35.0526 115.657Z" fill="#EADDC7"/>
<path id="Vector_28" d="M57.6218 156.129C57.692 156.749 57.3807 156.791 56.8758 156.635C54.1974 155.817 51.5113 155.016 48.8272 154.21C46.3177 153.456 43.85 152.608 41.314 151.992C39.7555 151.611 39.6606 150.493 39.4765 149.302C38.5273 143.184 37.5611 137.069 36.6291 130.952C35.9647 126.635 35.3743 122.305 34.6511 117.998C34.5163 117.188 34.8941 117.102 35.38 117.047C37.2783 116.857 39.1765 116.562 41.0653 116.267C44.2562 115.767 47.4548 115.327 50.6438 114.818C51.388 114.7 51.6898 114.92 51.7828 115.643C52.3276 119.532 52.899 123.416 53.4513 127.305C53.9734 130.976 54.4688 134.65 55.006 138.319C55.6059 142.423 56.2456 146.519 56.8549 150.622C57.1264 152.456 57.3674 154.293 57.6218 156.129Z" fill="#EADDC7"/>
<path id="Vector_29" d="M32.6245 115.506C31.497 114.256 30.06 113.623 28.3098 113.413C28.8471 112.707 29.2311 111.896 29.4371 111.033C29.643 110.169 29.6664 109.272 29.5057 108.399C29.0293 105.482 26.6849 103.527 23.494 103.135C20.9029 102.815 18.3345 103.002 15.7586 103.213C15.3562 100.698 14.9386 98.185 14.557 95.6663C14.1128 92.7462 13.7009 89.8203 13.2681 86.8983C13.1163 85.871 12.9283 84.8514 12.8543 83.8108C12.8296 83.4474 12.7708 83.2857 13.2188 83.1602C18.1276 81.7854 23.0314 80.3904 27.9302 78.975C28.3934 78.8418 28.587 78.9655 28.6382 79.4125C28.8913 81.6307 29.1444 83.8501 29.3975 86.0708C29.688 88.5705 29.9879 91.0664 30.2783 93.5642C30.4947 95.438 30.6921 97.3156 30.918 99.1895C31.1686 101.282 31.4438 103.375 31.7077 105.467L32.6188 112.67C32.7441 113.598 33.0479 114.551 32.6245 115.506Z" fill="#EADDC7"/>
<path id="Vector_30" d="M19.7417 146.121C22.3613 146.254 24.9733 146.218 27.5587 145.698C30.7477 145.059 32.5511 143.303 32.9003 140.372C33.0902 138.7 32.5833 137.189 31.3817 135.837C33.7147 134.796 34.9068 132.983 35.1156 130.51C35.4231 132.266 35.7553 134.016 36.0344 135.776C36.581 139.251 37.0974 142.731 37.6308 146.208C37.8491 147.635 38.0788 149.062 38.3085 150.487C38.4432 151.316 38.1471 151.818 37.3498 152.199C32.72 154.352 28.1111 156.553 23.4926 158.743C22.4942 159.217 22.2018 159.097 22.0196 158.153C21.3438 154.668 20.6548 151.185 19.979 147.7C19.8746 147.178 19.8138 146.648 19.7417 146.121Z" fill="#EADDC7"/>
<path id="Vector_31" d="M14.2211 103.496C12.6322 103.865 11.0676 104.331 9.53621 104.893C8.77691 104.119 8.79209 103.059 8.5738 102.112C7.54684 97.6638 6.59392 93.199 5.61253 88.7418C4.76591 84.9085 3.9174 81.0772 3.00244 76.9471C4.3426 77.9497 5.47016 78.7734 6.56925 79.6104C7.51837 80.3371 8.37448 81.1989 9.44699 81.7487C10.9314 82.5096 11.2086 83.8508 11.3946 85.3365C11.7287 88.017 12.1653 90.686 12.5829 93.3569C13.0537 96.3664 13.5491 99.3741 14.0351 102.384C14.0939 102.755 14.1584 103.126 14.2211 103.496Z" fill="#EADDC7"/>
<path id="Vector_32" d="M6.56549 64.8503C7.66267 68.7209 8.75859 72.5891 9.85325 76.4547C10.2006 77.6931 10.5157 78.9391 10.8441 80.1814C10.8821 80.326 11.0207 80.482 10.865 80.617C10.7094 80.7521 10.5138 80.6494 10.3639 80.5314C7.99107 78.6722 5.62016 76.8104 3.25115 74.9461C2.99678 74.7444 2.83353 74.5295 2.9778 74.1376C4.11675 71.0405 5.21773 67.934 6.3339 64.8293L6.56549 64.8503Z" fill="#EADDC7"/>
<path id="Vector_33" d="M34.4943 127.312C33.7749 126.239 32.9985 125.22 31.6204 124.753C32.6777 123.993 33.3041 123.041 33.7768 121.965C34.1204 123.734 34.5323 125.492 34.4943 127.312Z" fill="#EADDC7"/>
<path id="Vector_34" d="M34.6886 127.736C34.621 127.683 34.567 127.614 34.531 127.536C34.4951 127.458 34.4781 127.372 34.4817 127.286C34.6962 127.367 34.6905 127.554 34.6886 127.736Z" fill="#EADDC7"/>
<path id="Vector_35" d="M22.2284 143.431C18.635 143.555 15.2239 142.847 12.0728 141.044C8.63506 139.077 6.56787 136.018 5.23909 132.399C3.24765 127.009 2.70178 121.189 3.65595 115.522C4.35641 111.207 7.02724 108.544 11.0743 107.151C15.0968 105.737 19.3928 105.281 23.6217 105.82C26.1578 106.145 27.5834 108.312 26.8943 110.766C26.5374 112.035 25.4877 112.668 23.747 112.875C21.2793 113.165 18.8116 113.421 16.3913 114.017C15.9657 114.123 15.5564 114.286 15.1745 114.502C14.5272 114.865 14.2254 115.453 14.4437 116.184C14.662 116.914 15.2637 117.243 15.9794 117.173C18.3598 116.941 20.725 116.667 23.1092 116.383C24.8309 116.178 26.5488 115.929 28.2876 116.094C30.2979 116.284 31.5355 117.715 31.5241 119.808C31.5127 121.931 30.3852 123.114 28.2591 123.337C24.7588 123.704 21.2356 123.989 17.7808 124.651C16.9304 124.813 16.2812 125.467 16.3476 126.125C16.4236 126.886 17.1468 127.362 18.1111 127.303C21.2812 127.113 24.4513 126.902 27.6232 126.713C28.1288 126.679 28.6362 126.679 29.1418 126.713C31.1881 126.869 32.4657 128.148 32.5245 130.071C32.5833 132.049 31.3855 133.518 29.3468 133.76C26.6893 134.073 24.0184 134.283 21.3533 134.53C20.5067 134.61 19.6582 134.675 18.8097 134.734C17.9137 134.798 17.3727 135.281 17.367 136.04C17.3612 136.232 17.3952 136.423 17.4667 136.601C17.5383 136.779 17.6459 136.94 17.7827 137.074C17.9195 137.208 18.0826 137.312 18.2617 137.38C18.4407 137.448 18.6318 137.477 18.8229 137.467C21.2147 137.353 23.616 137.344 25.9983 137.043C27.1145 136.902 28.2402 136.897 29.2253 137.5C30.985 138.59 30.7895 141.46 28.9121 142.505C27.6973 143.182 26.3248 143.283 24.9866 143.431C24.0678 143.505 23.1434 143.431 22.2284 143.431Z" fill="#C5E6F0"/>
<path id="Vector_36" d="M95.1612 66.4482C95.6586 65.3505 96.061 64.3746 96.5299 63.433C97.9687 60.5433 99.9087 58.074 102.851 56.6168C107.464 54.334 112.98 55.9167 116.07 60.3987C118.428 63.8229 119.751 67.66 120.461 71.7425C121.79 79.3766 120.29 86.4591 116.311 93.0318C114.67 95.7445 112.325 97.6983 109.165 98.3698C104.966 99.2601 101.634 97.6088 98.9254 94.4966C97.1677 92.4763 96.0249 90.0907 95.129 87.5378C94.7303 87.688 94.7493 88.0799 94.6411 88.3653C93.4186 91.5612 91.8032 94.4852 88.9938 96.5816C84.5709 99.8784 79.4001 99.0432 75.7061 94.9874C72.7334 91.7229 71.2338 87.7584 70.3701 83.499C69.738 80.3887 69.4722 77.246 69.8101 74.0862C70.3948 68.5922 71.9798 63.4558 75.7384 59.2478C80.3891 54.0486 87.5834 54.4462 91.8127 60.0087C93.2668 61.9339 94.2577 64.076 95.1612 66.4482ZM116.991 83.7254L116.173 84.4959C113.185 87.3342 109.358 87.2885 106.477 84.3798C102.724 80.5922 103.029 73.3462 107.088 69.8972C109.783 67.6143 113.326 67.7209 115.888 70.1521C116.488 70.7228 116.972 71.3924 117.665 72.2219C116.999 67.8179 115.632 64.0113 112.684 60.9295C111.291 59.4742 109.586 58.5686 107.528 58.4754C104.89 58.3537 102.819 59.5502 101.171 61.4621C98.1851 64.9263 96.957 69.1324 96.359 73.5668C95.9034 76.9568 96.2413 80.3145 96.9285 83.636C97.5967 86.8396 98.7166 89.8548 100.814 92.4401C104.256 96.6843 109.227 96.8498 112.878 92.7997C115.18 90.2448 116.435 87.1801 117.128 83.8586C117.128 83.7749 117.177 83.6379 117.141 83.6132C117.031 83.5295 117.014 83.6512 116.985 83.7254H116.991ZM93.318 71.674C93.3046 70.7389 93.1661 69.8099 92.9061 68.9118C92.1259 65.7729 90.911 62.8508 88.4965 60.5851C85.7193 57.9789 82.1753 57.7677 79.1115 60.0144C77.5246 61.1787 76.3705 62.7215 75.4916 64.4583C71.9665 71.4229 71.585 78.6347 73.9084 86.0292C74.8576 89.073 76.2376 91.8961 78.7623 93.9887C81.6096 96.3533 85.0265 96.3152 87.8112 93.905C89.5346 92.4049 90.8748 90.5133 91.7197 88.3881C92.3165 86.9287 92.7216 85.3978 92.9251 83.8339C92.3556 84.357 91.9076 84.8079 91.416 85.196C88.9805 87.1154 85.7706 87.0489 83.3997 85.0476C78.8724 81.2238 78.9179 73.4622 83.5307 69.7298C85.4593 68.1698 87.6385 67.7684 89.9847 68.7558C91.3382 69.3303 92.3044 70.3633 93.318 71.674Z" fill="#003282"/>
<path id="Vector_37" d="M97.52 124.255C92.1556 124.09 87.9833 121.782 84.6404 117.841C82.7143 115.537 81.2221 112.902 80.2365 110.064C80.1386 109.765 79.975 109.493 79.7578 109.267C79.5406 109.041 79.2753 108.866 78.9818 108.757C78.1451 108.4 77.3289 107.998 76.5368 107.551C75.6807 107.071 75.4605 106.409 75.8269 105.677C76.2312 104.876 76.9146 104.623 77.8162 105.04C80.2828 106.21 82.8697 107.107 85.5307 107.714C91.1913 108.949 96.7854 108.593 102.332 107.056C106.197 105.983 109.916 104.583 113.095 102.03C113.733 101.52 114.367 101.551 114.954 102.118C115.479 102.627 115.626 103.339 115.115 103.799C114.185 104.638 114.177 105.738 114.003 106.792C113.215 111.548 111.345 115.773 108.063 119.334C105.195 122.45 101.673 124.172 97.52 124.255ZM97.5865 121.339C101.438 121.124 104.728 119.416 107.159 116.109C107.996 114.968 107.919 114.698 106.575 114.139C104.43 113.241 102.199 113.056 99.9156 113.412C96.5083 113.945 93.7767 115.577 91.8443 118.461C91.1571 119.486 91.3166 119.874 92.484 120.363C94.0425 121.037 95.6712 121.295 97.5865 121.339Z" fill="#003282"/>
<path id="Vector_38" d="M131.402 16.6083C131.402 14.8962 132.902 13.2487 134.415 13.2925C135.884 13.3343 137.135 14.6622 137.125 16.165C137.112 17.9019 135.749 19.3762 134.172 19.3591C133.809 19.3636 133.449 19.2958 133.112 19.1595C132.776 19.0231 132.47 18.8211 132.212 18.5651C131.954 18.309 131.75 18.0042 131.611 17.6682C131.472 17.3323 131.401 16.972 131.402 16.6083Z" fill="#003282"/>
<path id="Vector_39" d="M145.494 28.5571C145.223 28.5571 143.29 27.2559 143.283 27.0124C143.271 26.5406 143.693 26.2743 143.926 25.9224C144.16 25.5704 144.37 25.852 144.553 25.9985C145.111 26.4474 145.8 26.7594 146.098 27.4804C146.331 28.0454 146.035 28.5648 145.494 28.5571Z" fill="#003282"/>
<path id="Vector_40" d="M148.876 24.0161C148.737 24.4613 148.46 24.7485 147.868 24.5317C147.275 24.3148 146.837 23.8297 146.332 23.4664C146.11 23.3066 146.121 23.1011 146.309 22.9109C146.562 22.6578 146.605 22.1747 147.068 22.1499C147.475 22.1442 148.879 23.5501 148.876 24.0161Z" fill="#003282"/>
<path id="Vector_42" d="M129.823 31.7259C129.144 31.6993 128.758 31.2998 128.726 30.5484C128.688 29.6961 129.238 29.0265 130.009 28.9903C130.814 28.958 131.127 29.4678 131.201 30.1603C131.217 30.3546 131.194 30.5502 131.133 30.7352C131.072 30.9203 130.974 31.091 130.845 31.2373C130.716 31.3835 130.559 31.5021 130.384 31.5861C130.208 31.6701 130.018 31.7176 129.823 31.7259Z" fill="#003282"/>
<path id="Vector_43" d="M120.823 26.8278C120.684 27.3034 120.407 27.6363 119.919 27.6705C119.475 27.701 119.099 27.5336 119.099 26.9971C119.099 26.5063 119.407 26.2095 119.859 26.2362C120.24 26.2457 120.654 26.3826 120.823 26.8278Z" fill="#003282"/>
<path id="Vector_44" d="M138.67 36.6797C138.536 37.1381 138.223 37.3835 137.765 37.3436C137.359 37.3093 137.025 37.0658 137.047 36.6169C137.07 36.1679 137.357 35.8122 137.849 35.8978C138.241 35.9682 138.627 36.1717 138.67 36.6797Z" fill="#003282"/>
<path id="Vector_45" d="M117.122 83.8513C116.429 87.1804 115.174 90.2451 112.872 92.7924C109.221 96.8425 104.25 96.677 100.808 92.4328C98.7109 89.8475 97.5814 86.8323 96.9227 83.6287C96.228 80.3072 95.8901 76.9495 96.3533 73.5595C96.9512 69.1251 98.1794 64.919 101.165 61.4548C102.813 59.5429 104.884 58.3463 107.523 58.4681C109.58 58.5613 111.285 59.4668 112.678 60.9221C115.626 64.004 116.993 67.8106 117.659 72.2145C116.966 71.3851 116.482 70.7155 115.882 70.1448C113.325 67.7174 109.776 67.6108 107.08 69.8975C103.022 73.3426 102.714 80.5925 106.469 84.3801C109.351 87.2888 113.177 87.3345 116.165 84.4962L116.985 83.7257L117.122 83.8513Z" fill="white"/>
<path id="Vector_46" d="M93.3174 71.6742C92.3038 70.3635 91.3375 69.3305 89.9841 68.7617C87.6379 67.7744 85.4587 68.1758 83.5301 69.7357C78.9173 73.4681 78.8718 81.2298 83.3991 85.0535C85.77 87.0548 88.9799 87.1214 91.4154 85.2019C91.907 84.8214 92.3493 84.363 92.9245 83.8398C92.721 85.4038 92.3159 86.9346 91.7191 88.3941C90.8742 90.5192 89.534 92.4109 87.8106 93.9109C85.0278 96.3212 81.6128 96.3592 78.7617 93.9946C76.237 91.902 74.8665 89.0827 73.9078 86.0351C71.5844 78.6407 71.9659 71.4288 75.491 64.4643C76.3699 62.7274 77.524 61.1846 79.1109 60.0204C82.1747 57.7718 85.7187 57.9829 88.4959 60.5911C90.9104 62.8568 92.1253 65.7788 92.9055 68.9177C93.165 69.814 93.3035 70.7411 93.3174 71.6742Z" fill="white"/>
<path id="Vector_47" d="M116.985 83.7258C117.014 83.6514 117.031 83.535 117.141 83.6056C117.177 83.6304 117.141 83.7678 117.128 83.8518L116.985 83.7258Z" fill="white"/>
<path id="Vector_48" d="M97.5864 121.339C95.6787 121.295 94.0424 121.036 92.4839 120.372C91.3165 119.874 91.1552 119.486 91.8442 118.47C93.7729 115.577 96.5082 113.944 99.9156 113.412C102.193 113.056 104.43 113.241 106.575 114.138C107.903 114.698 107.996 114.972 107.159 116.109C104.728 119.416 101.438 121.124 97.5864 121.339Z" fill="#ED8297"/>
<rect x="162" y="99" width="35" height="68" rx="6" fill="white"/>
</g>
<defs>
<clipPath id="clip0_176_1825">
<rect width="240" height="240" fill="white" transform="translate(0 -11.0005)"/>
</clipPath>
</defs>
</svg>