<svg preserveAspectRatio="none" width="100%" height="100%" overflow="visible" style="display: block;" viewBox="0 0 250.998 240" fill="none" xmlns="http://www.w3.org/2000/svg">
<g id="Layer 3">
<path id="Vector" d="M67.9311 38.9776C53.8909 37.5698 40.208 45.9116 31.9479 57.3421C23.6877 68.7727 20.0095 82.8718 17.6975 96.7818C15.3855 110.692 14.2295 124.875 10.194 138.386C7.73486 146.643 4.2038 154.607 2.64845 163.075C1.0931 171.543 1.76569 180.935 6.99923 187.785C11.0876 193.021 16.0682 197.496 21.712 201.002C30.0581 205.834 39.2686 208.989 48.8255 210.289C58.0713 211.571 67.4499 211.571 76.6957 210.289C110.619 205.897 143.134 193.794 173.926 178.771C180.806 175.812 187.187 171.807 192.842 166.899C198.265 161.751 202.216 154.607 201.901 147.148C201.586 139.688 197.403 133.406 192.086 128.573C186.518 124.015 180.472 120.077 174.052 116.827C136.072 95.6051 102.989 67.0497 69.9488 38.6624" fill="var(--fill-0, #F6AE52)"/>
<path id="Vector_2" d="M67.9302 37.0235C50.2328 35.3846 34.5742 47.6766 26.3982 62.4481C16.8138 79.8461 15.5107 99.8916 12.421 119.055C11.5803 124.16 10.6135 129.266 9.31034 134.267C8.00721 139.268 6.2627 144.122 4.58124 148.976C1.53359 157.885 -1.00961 167.088 0.39861 176.502C0.974906 180.74 2.55277 184.781 5.0016 188.289C7.48304 191.681 10.3463 194.776 13.535 197.514C20.2908 203.168 28.1716 207.322 36.655 209.701C56.0128 215.5 76.2324 213.231 95.6742 209.112C115.379 204.764 134.622 198.537 153.138 190.517C162.302 186.629 171.466 182.553 180.273 177.909C188.323 173.707 196.183 168.223 200.534 160.007C202.618 156.2 203.652 151.907 203.53 147.569C203.409 143.23 202.135 139.002 199.841 135.318C195.048 127.312 187.061 122.206 179.096 117.668C161.737 107.845 145.04 96.8951 129.114 84.889C113.056 72.786 97.5869 59.8426 82.4117 46.7731L71.3351 37.2546C69.4435 35.6157 66.6691 38.3683 68.5817 40.0072C97.692 65.1376 126.97 90.3521 159.738 110.797C167.641 115.735 176.006 119.958 183.825 125.001C191.013 129.645 197.907 136.053 199.609 144.815C201.312 153.577 196.352 161.436 190.193 166.836C183.194 172.971 174.219 176.754 165.875 180.62C148.435 188.878 130.357 195.715 111.816 201.065C102.405 203.721 92.8462 205.826 83.1894 207.368C73.5744 209.096 63.7805 209.611 54.0371 208.902C45.0443 208.179 36.2499 205.874 28.0586 202.094C20.5947 198.614 14.0403 193.449 8.91099 187.008C3.71949 180.431 3.06793 171.501 4.5392 163.516C6.30473 153.872 10.5084 144.836 13.0726 135.318C17.9488 116.617 18.117 96.9919 23.876 78.5854C28.8573 62.5111 39.1772 46.8361 56.1389 42.0244C59.9666 40.9273 63.966 40.5567 67.9302 40.9318C70.4313 41.1629 70.4103 37.2547 67.9302 37.0235Z" fill="var(--fill-0, #003282)"/>
<path id="Vector_3" d="M42.8134 155.49C50.9925 150.393 60.5048 147.847 70.1371 148.178C72.6593 148.178 72.6593 144.353 70.1371 144.269C59.842 143.942 49.6813 146.677 40.9428 152.128C38.8409 153.452 40.7536 156.834 42.8975 155.49H42.8134Z" fill="var(--fill-0, #003282)"/>
<path id="Vector_4" d="M180.42 211.108C169.722 175.723 149.943 163.894 139.75 160.027C139.215 159.822 138.75 159.471 138.406 159.013C138.063 158.556 137.855 158.011 137.807 157.441C137.759 156.871 137.872 156.299 138.134 155.79C138.395 155.281 138.795 154.856 139.287 154.564C142.23 152.799 146.013 150.572 150.07 148.261C150.595 147.97 151.194 147.838 151.793 147.883C155.723 148.261 171.424 151.328 192.842 176.018" fill="var(--fill-0, #C5E6F0)"/>
<path id="Vector_5" d="M180.421 213.063C180.001 213.063 179.593 212.928 179.256 212.678C178.919 212.428 178.672 212.077 178.55 211.676C168.146 177.405 149.356 165.743 139.057 161.793C138.177 161.463 137.409 160.89 136.84 160.141C136.272 159.393 135.928 158.499 135.846 157.563C135.765 156.626 135.95 155.686 136.381 154.851C136.811 154.016 137.469 153.319 138.279 152.842C142.041 150.594 145.677 148.471 149.124 146.538C149.989 146.039 150.99 145.825 151.983 145.929C156.418 146.349 172.581 149.669 194.314 174.716C194.499 174.906 194.645 175.132 194.74 175.38C194.835 175.629 194.879 175.894 194.868 176.16C194.858 176.425 194.793 176.686 194.678 176.926C194.563 177.166 194.4 177.38 194.2 177.554C193.999 177.729 193.765 177.861 193.511 177.942C193.258 178.023 192.991 178.052 192.726 178.026C192.461 178 192.204 177.921 191.971 177.792C191.738 177.664 191.534 177.489 191.371 177.279C187.63 173.077 168.125 151.371 151.605 149.816C151.4 149.797 151.195 149.841 151.016 149.942C147.611 151.812 143.996 153.893 140.276 156.246C140.101 156.351 139.959 156.504 139.866 156.686C139.773 156.868 139.733 157.072 139.751 157.275C139.769 157.479 139.843 157.673 139.965 157.837C140.088 158 140.253 158.126 140.444 158.2C151.415 162.402 171.446 174.674 182.27 210.541C182.348 210.787 182.375 211.045 182.351 211.301C182.328 211.558 182.253 211.807 182.131 212.034C182.01 212.261 181.844 212.461 181.645 212.624C181.445 212.786 181.214 212.906 180.967 212.978C180.791 213.036 180.606 213.064 180.421 213.063Z" fill="var(--fill-0, #003282)"/>
<path id="Vector_6" d="M180.421 211.108C176.876 198.434 170.711 186.645 162.324 176.501C161.964 176.096 161.718 175.602 161.611 175.07C161.504 174.539 161.54 173.988 161.714 173.475C162.8 170.125 164.799 167.144 167.488 164.868C170.176 162.592 173.447 161.112 176.932 160.595C182.591 165.416 187.907 170.626 192.842 176.186" fill="var(--fill-0, white)"/>
<path id="Vector_7" d="M180.419 213.062C180 213.062 179.592 212.927 179.255 212.678C178.918 212.428 178.67 212.077 178.549 211.675C175.081 199.241 169.053 187.669 160.851 177.699C160.268 177.03 159.872 176.22 159.702 175.349C159.532 174.479 159.595 173.579 159.885 172.74C161.087 169.047 163.299 165.763 166.27 163.26C169.242 160.758 172.854 159.136 176.699 158.578C177.729 158.431 177.96 158.41 184.245 164.398C186.578 166.625 191.013 170.954 194.375 174.904C194.561 175.094 194.706 175.321 194.802 175.569C194.897 175.817 194.941 176.082 194.93 176.348C194.92 176.614 194.855 176.875 194.74 177.115C194.625 177.354 194.462 177.568 194.261 177.743C194.061 177.918 193.827 178.05 193.573 178.131C193.32 178.212 193.053 178.24 192.788 178.215C192.523 178.189 192.266 178.109 192.033 177.981C191.8 177.852 191.596 177.678 191.433 177.468C186.735 172.285 181.746 167.374 176.489 162.759C173.509 163.333 170.739 164.702 168.475 166.722C166.21 168.742 164.535 171.337 163.626 174.232C163.565 174.418 163.554 174.617 163.594 174.809C163.635 175.001 163.726 175.179 163.857 175.324C172.426 185.703 178.721 197.765 182.332 210.73C182.409 210.975 182.437 211.234 182.413 211.49C182.389 211.746 182.315 211.995 182.193 212.222C182.072 212.45 181.906 212.65 181.706 212.812C181.506 212.974 181.276 213.095 181.029 213.167C180.821 213.169 180.614 213.134 180.419 213.062Z" fill="var(--fill-0, #003282)"/>
<path id="Vector_8" d="M196.206 209.49C206.19 192.681 220.839 185.642 236.33 173.328C238.999 171.785 241.892 170.665 244.905 170.009C245.283 170.009 245.62 169.441 246.019 169.357C248.247 168.916 248.836 167.256 248.394 165.155C247.295 160.838 244.618 157.09 240.891 154.649C223.614 144.29 207.829 160.07 199.695 171.795C199.239 172.451 198.547 172.905 197.763 173.062C196.979 173.219 196.165 173.066 195.491 172.635L193.39 171.248C192.144 170.455 190.679 170.078 189.205 170.172C187.731 170.267 186.326 170.828 185.192 171.774C179.252 176.676 174.604 182.96 171.657 190.075C171.072 191.572 170.919 193.202 171.215 194.782C172.476 201.211 177.29 219.198 192.696 223.232C192.599 222.99 192.535 222.735 192.507 222.476C192.441 217.878 193.727 213.363 196.206 209.49Z" fill="var(--fill-0, #003282)"/>
<path id="Vector_9" d="M192.652 225.081H192.168C186.745 223.653 173.672 217.895 169.258 195.097C168.882 193.166 169.071 191.166 169.805 189.34C172.849 181.897 177.687 175.321 183.887 170.198C185.335 168.975 187.139 168.25 189.031 168.129C190.923 168.008 192.803 168.497 194.396 169.526L196.498 170.912C196.618 170.991 196.752 171.045 196.893 171.072C197.034 171.099 197.179 171.097 197.32 171.068C197.46 171.039 197.594 170.982 197.712 170.901C197.831 170.821 197.933 170.717 198.011 170.597C217.453 142.567 235.129 148.871 241.813 152.905C246.023 155.621 249.032 159.847 250.22 164.714C250.893 168.118 249.527 170.534 246.563 171.228C246.214 171.515 245.815 171.736 245.386 171.879H244.966C242.345 172.5 239.831 173.506 237.504 174.863C233.301 178.14 229.328 181.04 225.419 183.835C214.447 191.651 204.989 198.417 197.843 210.478C195.563 213.962 194.357 218.039 194.375 222.203C194.366 222.28 194.366 222.357 194.375 222.434C194.528 222.781 194.576 223.165 194.512 223.538C194.449 223.912 194.277 224.258 194.018 224.535C193.643 224.876 193.158 225.07 192.652 225.081ZM189.583 172.005C188.416 172.008 187.286 172.416 186.388 173.161C180.705 177.857 176.26 183.874 173.441 190.685C172.979 191.831 172.855 193.085 173.084 194.299C174.071 199.321 178.086 215.311 190.508 220.354C190.911 216.146 192.285 212.089 194.522 208.503C202.089 195.707 212.346 188.394 223.191 180.641C227.058 177.888 231.073 175.031 235.108 171.816C237.829 170.143 240.814 168.942 243.936 168.265H244.23C244.631 167.91 245.116 167.664 245.639 167.55C246.248 167.424 246.816 167.319 246.479 165.449C245.5 161.651 243.139 158.355 239.858 156.204C222.603 145.866 207.133 164.378 201.29 172.803C200.555 173.89 199.421 174.643 198.134 174.899C196.848 175.154 195.512 174.892 194.417 174.169L192.315 172.803C191.5 172.281 190.551 172.003 189.583 172.005Z" fill="var(--fill-0, #003282)"/>
<path id="Vector_10" d="M192.464 222.37C192.511 217.775 193.695 213.263 195.911 209.238C205.223 191.335 219.746 178.014 229.099 170.786C233.064 167.622 237.573 165.209 242.404 163.663C243.245 163.452 244.103 163.318 244.968 163.263C245.818 163.218 246.655 163.483 247.323 164.009C247.992 164.534 248.447 165.285 248.604 166.121C250.181 173.853 248.079 186.187 233.891 203.943C233.891 203.943 214.239 228.275 192.843 223.064C192.78 223.169 192.486 223.001 192.464 222.37Z" fill="var(--fill-0, #00A7CD)"/>
<path id="Vector_11" d="M198.854 225.837C196.659 225.844 194.47 225.583 192.338 225.06C192.162 225.023 191.992 224.959 191.834 224.871C191.417 224.613 191.075 224.25 190.843 223.819C190.61 223.387 190.495 222.902 190.51 222.412C190.575 217.491 191.838 212.659 194.188 208.334C204.024 189.423 219.536 175.723 227.817 169.231C232.036 165.917 236.822 163.397 241.941 161.792C242.901 161.558 243.878 161.403 244.863 161.33C246.177 161.269 247.47 161.681 248.507 162.49C249.544 163.299 250.257 164.453 250.517 165.743C252.051 173.202 250.643 186.124 235.342 205.287C231.544 209.752 227.218 213.739 222.457 217.159C214.386 222.896 206.4 225.837 198.854 225.837ZM194.419 221.53C213.945 225.228 232.126 203.039 232.252 202.829C246.607 184.843 248.016 173.139 246.649 166.499C246.588 166.126 246.391 165.789 246.096 165.553C245.801 165.316 245.429 165.197 245.052 165.217C244.293 165.258 243.54 165.37 242.803 165.554C238.228 167.036 233.957 169.328 230.192 172.32C222.058 178.623 207.072 191.882 197.551 210.141C195.672 213.657 194.602 217.548 194.419 221.53Z" fill="var(--fill-0, #003282)"/>
<path id="Vector_12" d="M189.163 219.954C188.992 219.938 188.826 219.889 188.675 219.808C188.524 219.727 188.39 219.617 188.283 219.484C188.175 219.35 188.095 219.197 188.048 219.032C188 218.868 187.986 218.695 188.007 218.525C188.482 214.166 189.803 209.941 191.895 206.086C201.668 187.175 217.117 173.643 225.524 167.193C229.639 163.935 234.31 161.451 239.312 159.859C240.335 159.581 241.385 159.412 242.444 159.355C242.789 159.336 243.129 159.454 243.387 159.685C243.645 159.915 243.801 160.239 243.82 160.584C243.84 160.93 243.721 161.269 243.491 161.527C243.26 161.785 242.936 161.941 242.591 161.961C241.688 161.999 240.792 162.14 239.922 162.381C235.274 163.894 230.933 166.22 227.1 169.252C218.945 175.555 203.833 188.919 194.291 207.284C192.344 210.848 191.116 214.761 190.676 218.798C190.655 218.975 190.599 219.145 190.512 219.3C190.424 219.454 190.306 219.589 190.164 219.697C190.023 219.805 189.862 219.883 189.69 219.927C189.517 219.971 189.338 219.98 189.163 219.954Z" fill="var(--fill-0, #00A7CD)"/>
<path id="Vector_13" d="M193.2 186.377C192.916 186.375 192.64 186.282 192.413 186.112C192.186 185.942 192.02 185.703 191.939 185.431C191.045 181.871 191.11 178.137 192.128 174.61C192.239 174.284 192.472 174.015 192.778 173.858C193.084 173.701 193.439 173.669 193.768 173.769C193.932 173.819 194.085 173.902 194.217 174.012C194.348 174.122 194.457 174.258 194.535 174.411C194.614 174.564 194.661 174.731 194.673 174.902C194.686 175.073 194.664 175.246 194.608 175.408C193.755 178.446 193.704 181.653 194.461 184.717C194.552 185.048 194.507 185.402 194.338 185.701C194.169 186 193.888 186.22 193.557 186.314L193.2 186.377Z" fill="var(--fill-0, #00A7CD)"/>
<path id="Vector_14" d="M200.114 182.342C199.874 182.344 199.638 182.277 199.433 182.151C199.229 182.025 199.064 181.843 198.958 181.628C198.028 179.568 197.494 177.351 197.382 175.093C197.37 174.922 197.393 174.751 197.449 174.588C197.504 174.426 197.591 174.276 197.704 174.147C197.817 174.019 197.954 173.913 198.108 173.838C198.262 173.762 198.429 173.718 198.601 173.706C198.772 173.695 198.943 173.718 199.106 173.773C199.268 173.829 199.418 173.915 199.547 174.029C199.675 174.142 199.781 174.279 199.856 174.433C199.932 174.587 199.977 174.754 199.988 174.925C200.075 176.839 200.517 178.72 201.291 180.472C201.438 180.783 201.459 181.138 201.349 181.463C201.24 181.789 201.008 182.059 200.702 182.216C200.518 182.3 200.317 182.343 200.114 182.342Z" fill="var(--fill-0, #00A7CD)"/>
<path id="Vector_15" d="M204.843 176.501C204.624 176.501 204.408 176.446 204.217 176.339C204.026 176.232 203.865 176.078 203.75 175.892C202.793 174.42 202.083 172.802 201.648 171.101C201.61 170.934 201.604 170.761 201.632 170.592C201.661 170.423 201.722 170.261 201.813 170.116C201.903 169.971 202.022 169.845 202.161 169.745C202.301 169.645 202.459 169.574 202.626 169.536C202.793 169.497 202.966 169.492 203.135 169.52C203.304 169.548 203.466 169.609 203.611 169.7C203.756 169.791 203.882 169.909 203.982 170.049C204.082 170.188 204.153 170.346 204.191 170.513C204.574 171.932 205.184 173.281 205.999 174.505C206.152 174.702 206.246 174.938 206.268 175.187C206.291 175.435 206.242 175.685 206.127 175.906C206.012 176.127 205.835 176.311 205.619 176.435C205.403 176.559 205.155 176.619 204.906 176.606L204.843 176.501Z" fill="var(--fill-0, #00A7CD)"/>
<path id="Vector_16" d="M140.822 225.27C130.124 189.886 101.203 168.201 90.8197 162.234C90.3029 162.011 89.8562 161.652 89.5274 161.196C89.1986 160.739 88.9998 160.202 88.9524 159.641C88.9049 159.08 89.0105 158.517 89.2579 158.012C89.5053 157.506 89.8853 157.077 90.3573 156.771C93.2998 155.006 97.0831 152.779 101.14 150.467C101.665 150.176 102.264 150.045 102.863 150.089C106.794 150.467 131.826 165.575 153.307 190.264" fill="var(--fill-0, #C5E6F0)"/>
<path id="Vector_17" d="M140.821 227.224C140.401 227.224 139.993 227.089 139.656 226.84C139.319 226.59 139.072 226.239 138.95 225.837C129.282 193.857 103.534 171.815 89.8304 163.894C88.9908 163.42 88.287 162.738 87.7865 161.914C87.286 161.09 87.0055 160.151 86.9719 159.187C86.9559 158.338 87.1678 157.501 87.5855 156.762C88.0032 156.023 88.6115 155.409 89.347 154.985C93.0882 152.737 96.7454 150.635 100.192 148.681C101.049 148.225 102.024 148.041 102.988 148.156C108.242 148.66 133.864 164.966 154.651 189.003C154.821 189.194 154.951 189.416 155.033 189.657C155.116 189.899 155.15 190.154 155.132 190.409C155.114 190.664 155.046 190.912 154.931 191.14C154.816 191.367 154.656 191.57 154.461 191.735C154.269 191.905 154.045 192.036 153.802 192.119C153.559 192.202 153.301 192.236 153.045 192.218C152.789 192.2 152.538 192.132 152.309 192.016C152.079 191.901 151.875 191.741 151.708 191.546C130.858 167.508 106.098 152.4 102.609 152.043C102.405 152.024 102.2 152.068 102.021 152.169C98.616 154.039 95.0009 156.119 91.3017 158.473C91.1579 158.535 91.0354 158.637 90.9495 158.768C90.8635 158.899 90.8179 159.052 90.8182 159.208C90.8459 159.495 90.945 159.77 91.1066 160.009C91.2681 160.248 91.487 160.442 91.7431 160.574C105.93 168.832 132.602 191.672 142.607 224.829C142.684 225.073 142.712 225.33 142.688 225.585C142.664 225.84 142.589 226.087 142.467 226.313C142.346 226.538 142.18 226.737 141.98 226.897C141.78 227.057 141.55 227.176 141.304 227.245C141.143 227.261 140.98 227.254 140.821 227.224Z" fill="var(--fill-0, #003282)"/>
<path id="Vector_18" d="M140.822 225.271C137.288 212.567 131.122 200.748 122.725 190.58C122.365 190.174 122.119 189.681 122.012 189.149C121.905 188.618 121.941 188.067 122.116 187.554C123.201 184.203 125.2 181.222 127.889 178.947C130.578 176.671 133.848 175.191 137.333 174.674C142.992 179.495 148.309 184.705 153.244 190.265" fill="var(--fill-0, white)"/>
<path id="Vector_19" d="M140.822 227.224C140.402 227.224 139.994 227.089 139.657 226.84C139.32 226.59 139.073 226.239 138.951 225.837C135.483 213.403 129.455 201.831 121.254 191.861C120.689 191.203 120.303 190.411 120.134 189.561C119.964 188.711 120.017 187.831 120.287 187.007C121.492 183.315 123.704 180.033 126.675 177.53C129.646 175.028 133.257 173.405 137.102 172.845C138.11 172.698 138.342 172.677 144.626 178.665C146.938 180.704 151.331 185.116 154.715 189.108C154.885 189.299 155.015 189.521 155.098 189.763C155.18 190.004 155.214 190.259 155.196 190.514C155.179 190.769 155.11 191.017 154.995 191.245C154.88 191.472 154.72 191.675 154.526 191.84C154.333 192.01 154.109 192.141 153.866 192.224C153.623 192.307 153.366 192.341 153.109 192.323C152.853 192.305 152.603 192.237 152.373 192.121C152.143 192.006 151.939 191.846 151.772 191.651C147.075 186.468 142.085 181.557 136.828 176.942C133.88 177.505 131.137 178.846 128.882 180.826C126.628 182.807 124.944 185.355 124.007 188.205C123.946 188.391 123.935 188.59 123.976 188.782C124.016 188.974 124.107 189.152 124.238 189.297C132.81 199.716 139.091 211.823 142.671 224.829C142.749 225.073 142.776 225.33 142.752 225.585C142.728 225.84 142.653 226.087 142.531 226.313C142.41 226.538 142.244 226.737 142.044 226.897C141.845 227.057 141.615 227.176 141.368 227.245C141.186 227.267 141.002 227.26 140.822 227.224Z" fill="var(--fill-0, #003282)"/>
<path id="Vector_20" d="M156.607 223.652C166.591 206.843 181.241 199.804 196.731 187.491C199.401 185.947 202.294 184.827 205.307 184.171C205.685 184.066 206.021 183.603 206.421 183.519C208.649 183.078 209.237 181.418 208.796 179.317C207.696 175 205.019 171.252 201.292 168.811C184.015 158.452 168.231 174.232 160.096 185.957C159.644 186.618 158.951 187.075 158.166 187.233C157.38 187.39 156.565 187.233 155.893 186.797L153.791 185.432C152.55 184.629 151.085 184.245 149.609 184.335C148.134 184.426 146.727 184.987 145.594 185.936C139.651 190.845 135.004 197.136 132.058 204.258C131.468 205.746 131.315 207.372 131.617 208.944C132.878 215.374 137.691 233.36 153.097 237.415C153.002 237.165 152.939 236.904 152.908 236.638C152.842 232.041 154.129 227.525 156.607 223.652Z" fill="var(--fill-0, #003282)"/>
<path id="Vector_21" d="M153.054 239.244H152.571C147.148 237.836 134.075 232.057 129.661 209.28C129.304 207.311 129.531 205.281 130.312 203.439C133.363 196.011 138.2 189.45 144.394 184.339C145.845 183.119 147.647 182.396 149.538 182.275C151.43 182.154 153.31 182.642 154.904 183.667L157.005 185.053C157.245 185.214 157.539 185.274 157.823 185.219C158.106 185.163 158.357 184.998 158.519 184.759C177.961 156.708 195.637 163.033 202.321 167.046C206.525 169.769 209.532 173.992 210.728 178.855C211.401 182.259 210.034 184.696 207.071 185.39C206.722 185.677 206.323 185.898 205.894 186.041H205.473C202.827 186.686 200.292 187.72 197.949 189.109C193.745 192.387 189.773 195.286 185.863 198.081C174.892 205.897 165.434 212.663 158.288 224.745C156.005 228.221 154.799 232.292 154.82 236.449C154.809 236.519 154.809 236.589 154.82 236.659C154.936 236.956 154.978 237.277 154.942 237.594C154.906 237.911 154.793 238.215 154.613 238.478C154.432 238.741 154.19 238.956 153.908 239.104C153.625 239.252 153.31 239.329 152.991 239.328L153.054 239.244ZM150.006 186.167C148.833 186.168 147.696 186.577 146.791 187.323C141.101 192.021 136.655 198.047 133.843 204.868C133.376 206.005 133.252 207.254 133.486 208.461C134.474 213.483 138.488 229.473 150.91 234.516C151.323 230.33 152.697 226.296 154.925 222.728C162.491 209.953 172.727 202.62 183.593 194.887C187.461 192.05 191.475 189.109 195.469 185.978C198.19 184.305 201.175 183.104 204.296 182.427H204.591C204.991 182.072 205.476 181.827 205.999 181.713C206.608 181.586 207.176 181.481 206.84 179.611C205.83 175.828 203.476 172.541 200.219 170.366C183.005 160.028 167.536 178.603 161.693 187.008C160.958 188.094 159.824 188.847 158.537 189.103C157.25 189.359 155.914 189.096 154.82 188.373L152.718 187.008C151.914 186.473 150.972 186.181 150.006 186.167Z" fill="var(--fill-0, #003282)"/>
<path id="Vector_22" d="M152.866 236.533C152.912 231.938 154.097 227.426 156.313 223.4C165.624 205.498 180.148 192.176 189.501 184.906C193.469 181.749 197.977 179.335 202.805 177.783C203.653 177.57 204.518 177.437 205.39 177.384C206.236 177.344 207.068 177.611 207.733 178.136C208.397 178.662 208.849 179.409 209.006 180.241C210.582 187.995 208.48 200.308 194.293 218.063C194.293 218.063 174.641 242.395 153.244 237.184C153.181 237.436 152.887 237.163 152.866 236.533Z" fill="var(--fill-0, #00A7CD)"/>
<path id="Vector_23" d="M159.255 240C157.061 240.004 154.874 239.75 152.739 239.244C152.562 239.199 152.392 239.128 152.235 239.034C151.815 238.779 151.471 238.417 151.238 237.985C151.005 237.552 150.892 237.066 150.911 236.575C150.977 231.654 152.239 226.822 154.589 222.497C164.426 203.586 179.937 189.886 188.218 183.394C192.415 180.089 197.17 177.563 202.258 175.934C203.218 175.7 204.195 175.545 205.18 175.472C206.494 175.411 207.787 175.822 208.824 176.632C209.861 177.441 210.574 178.595 210.834 179.885C212.368 187.344 210.96 200.266 195.659 219.429C191.897 223.905 187.598 227.899 182.859 231.322C174.83 237.058 166.801 240 159.255 240ZM154.862 235.693C174.388 239.391 192.569 217.223 192.695 216.992C207.051 199.006 208.459 187.323 207.093 180.662C207.031 180.289 206.834 179.952 206.539 179.716C206.244 179.479 205.873 179.36 205.495 179.38C204.736 179.428 203.983 179.548 203.246 179.738C198.672 181.212 194.401 183.497 190.635 186.482C182.501 192.786 167.515 206.045 157.994 224.304C156.1 227.816 155.016 231.707 154.82 235.693H154.862Z" fill="var(--fill-0, #003282)"/>
<path id="Vector_24" d="M149.586 234.116H149.46C149.289 234.1 149.124 234.051 148.972 233.97C148.821 233.889 148.688 233.779 148.58 233.646C148.472 233.513 148.392 233.359 148.345 233.195C148.298 233.03 148.284 232.857 148.304 232.687C148.783 228.329 150.104 224.104 152.192 220.248C161.966 201.337 177.414 187.806 185.822 181.355C189.936 178.098 194.608 175.613 199.609 174.022C200.632 173.74 201.682 173.571 202.741 173.517C203.087 173.498 203.426 173.616 203.684 173.847C203.942 174.077 204.098 174.401 204.118 174.747C204.137 175.092 204.019 175.431 203.788 175.689C203.558 175.947 203.234 176.103 202.888 176.123C201.985 176.16 201.09 176.301 200.219 176.543C195.572 178.056 191.231 180.382 187.398 183.414C179.243 189.718 164.131 203.081 154.588 221.446C152.638 225.017 151.41 228.936 150.973 232.981C150.926 233.31 150.758 233.609 150.501 233.819C150.244 234.029 149.918 234.135 149.586 234.116Z" fill="var(--fill-0, #00A7CD)"/>
<path id="Vector_25" d="M153.601 200.539C153.318 200.537 153.042 200.444 152.815 200.274C152.588 200.104 152.421 199.865 152.34 199.593C151.446 196.033 151.512 192.299 152.53 188.772C152.64 188.447 152.873 188.177 153.179 188.02C153.485 187.863 153.84 187.831 154.169 187.932C154.333 187.982 154.486 188.064 154.618 188.174C154.75 188.284 154.858 188.42 154.937 188.573C155.015 188.726 155.062 188.893 155.075 189.064C155.087 189.236 155.065 189.408 155.01 189.57C154.153 192.607 154.095 195.813 154.842 198.879C154.893 199.042 154.91 199.213 154.893 199.383C154.876 199.552 154.825 199.717 154.742 199.866C154.66 200.015 154.548 200.146 154.413 200.251C154.278 200.356 154.124 200.432 153.959 200.476C153.844 200.517 153.723 200.538 153.601 200.539Z" fill="var(--fill-0, #00A7CD)"/>
<path id="Vector_26" d="M160.516 196.505C160.275 196.506 160.04 196.44 159.835 196.314C159.631 196.187 159.466 196.006 159.36 195.791C158.43 193.73 157.895 191.514 157.783 189.256C157.774 189.085 157.798 188.914 157.854 188.752C157.911 188.59 157.999 188.441 158.113 188.313C158.227 188.186 158.365 188.081 158.52 188.007C158.674 187.933 158.842 187.889 159.013 187.88C159.184 187.87 159.355 187.894 159.517 187.951C159.679 188.007 159.828 188.095 159.956 188.209C160.084 188.323 160.188 188.462 160.262 188.616C160.337 188.77 160.38 188.938 160.39 189.109C160.473 191.023 160.915 192.905 161.693 194.656C161.84 194.966 161.861 195.322 161.751 195.647C161.641 195.973 161.409 196.243 161.104 196.4C160.918 196.477 160.717 196.513 160.516 196.505Z" fill="var(--fill-0, #00A7CD)"/>
<path id="Vector_27" d="M165.244 190.748C165.028 190.747 164.815 190.692 164.625 190.59C164.434 190.487 164.272 190.339 164.151 190.16C163.198 188.679 162.488 187.054 162.05 185.348C162.011 185.181 162.006 185.008 162.034 184.839C162.062 184.67 162.123 184.508 162.214 184.363C162.305 184.217 162.423 184.091 162.563 183.992C162.702 183.892 162.86 183.821 163.027 183.782C163.194 183.744 163.367 183.738 163.536 183.767C163.705 183.795 163.867 183.856 164.012 183.947C164.158 184.038 164.284 184.156 164.383 184.295C164.483 184.435 164.554 184.593 164.593 184.76C164.975 186.179 165.586 187.528 166.4 188.752C166.554 188.949 166.647 189.185 166.67 189.434C166.692 189.682 166.643 189.932 166.528 190.153C166.413 190.374 166.237 190.558 166.02 190.682C165.804 190.806 165.557 190.865 165.307 190.853L165.244 190.748Z" fill="var(--fill-0, #00A7CD)"/>
<path id="Vector_28" d="M173.863 97.6429C173.863 97.6429 188.576 105.375 180.169 129.518C180.169 129.518 152.13 122.122 155.662 148.954C155.662 148.954 151.458 159.944 162.471 160.7C162.471 160.7 163.375 170.765 173.149 164.146C173.149 164.146 175.377 176.522 185.613 167.655C185.613 167.655 190.237 174.736 196.962 166.184C196.962 166.184 206.904 151.602 196.962 137.482C196.962 137.482 207.471 102.539 179.706 81.0014L173.863 97.6429Z" fill="var(--fill-0, #C5E6F0)"/>
<path id="Vector_29" d="M157.636 148.892C156.529 146.127 156.367 143.074 157.177 140.208C157.987 137.342 159.722 134.825 162.113 133.049C164.7 131.19 167.731 130.047 170.901 129.733C174.071 129.42 177.267 129.947 180.168 131.263C180.666 131.392 181.196 131.322 181.644 131.067C182.091 130.812 182.422 130.392 182.564 129.897C184.409 124.626 185.167 119.037 184.792 113.465C184.585 110.438 183.724 107.492 182.27 104.829C180.666 102.31 178.745 100.008 176.553 97.9794C174.766 96.2144 172.013 98.967 173.778 100.732C175.666 102.466 177.338 104.42 178.76 106.552C180.091 108.969 180.812 111.674 180.861 114.432C181.023 119.339 180.275 124.233 178.655 128.867L181.072 127.501C177.521 125.999 173.635 125.464 169.81 125.951C165.985 126.438 162.357 127.93 159.297 130.275C156.411 132.541 154.322 135.666 153.331 139.198C152.341 142.731 152.502 146.486 153.79 149.921C154.694 152.254 158.477 151.245 157.573 148.892H157.636Z" fill="var(--fill-0, #003282)"/>
<path id="Vector_30" d="M161.839 158.306C161.069 158.599 160.218 158.603 159.445 158.317C158.672 158.031 158.029 157.475 157.635 156.751C157.179 155.837 156.917 154.839 156.866 153.819C156.815 152.799 156.977 151.779 157.341 150.825C158.762 147.158 160.663 143.696 162.995 140.529C164.34 138.428 160.893 136.432 159.611 138.554C157.026 142.757 153.831 146.959 153.095 151.792C152.808 153.261 152.847 154.776 153.211 156.228C153.574 157.681 154.252 159.035 155.197 160.197C156.134 161.174 157.323 161.872 158.633 162.213C159.943 162.554 161.322 162.525 162.617 162.13C163.1 162.004 163.517 161.697 163.782 161.273C164.047 160.849 164.138 160.339 164.039 159.85C163.939 159.36 163.656 158.927 163.247 158.64C162.837 158.352 162.334 158.233 161.839 158.306Z" fill="var(--fill-0, #003282)"/>
<path id="Vector_31" d="M173.296 160.112C172.576 161.705 171.539 163.135 170.248 164.314C169.78 164.708 169.236 165.001 168.651 165.176H168.293H167.705H167.453L166.927 165.029L166.528 164.777C166.696 164.945 166.233 164.588 166.528 164.777L166.044 164.293C165.939 164.293 165.687 163.831 165.876 164.125L165.624 163.726L165.372 163.306C165.383 163.229 165.383 163.151 165.372 163.075C165.372 163.348 165.246 162.823 165.372 163.075C165.372 162.802 165.183 162.444 165.119 162.129C165.109 162.045 165.109 161.961 165.119 161.877C165.119 161.877 165.119 162.213 165.119 162.003C165.119 161.793 165.119 161.625 165.119 161.436C165.119 161.247 165.119 160.868 165.119 161.037C165.119 161.205 165.119 160.911 165.119 160.911C165.108 160.813 165.108 160.714 165.119 160.616C165.174 160.248 165.251 159.883 165.351 159.524C165.429 159.196 165.528 158.873 165.645 158.557C165.477 158.872 165.645 158.263 165.645 158.557C165.813 158.242 165.792 158.263 165.876 158.137C166.275 157.38 166.759 156.687 167.221 156.036C167.372 155.815 167.476 155.565 167.527 155.302C167.577 155.039 167.573 154.768 167.515 154.507C167.456 154.245 167.345 153.999 167.187 153.782C167.029 153.566 166.828 153.384 166.597 153.249C166.366 153.113 166.11 153.026 165.844 152.994C165.578 152.961 165.308 152.984 165.052 153.06C164.795 153.136 164.556 153.264 164.351 153.436C164.146 153.609 163.978 153.821 163.858 154.061C162.862 155.406 162.088 156.903 161.567 158.494C160.978 160.368 160.978 162.378 161.567 164.251C162.175 166.121 163.486 167.681 165.225 168.601C166.266 169.083 167.414 169.29 168.559 169.202C169.703 169.114 170.806 168.733 171.761 168.097C173.895 166.599 175.592 164.561 176.68 162.192C176.909 161.734 176.963 161.208 176.831 160.712C176.7 160.217 176.392 159.787 175.965 159.503C175.515 159.249 174.983 159.182 174.485 159.316C173.986 159.449 173.559 159.773 173.296 160.217V160.112Z" fill="var(--fill-0, #003282)"/>
<path id="Vector_32" d="M184.519 163.894L184.267 164.545C184.477 164.041 184.267 164.545 184.267 164.672C184.134 164.969 183.979 165.257 183.805 165.533L183.048 166.773C182.901 166.983 182.775 167.193 182.607 167.403L182.312 167.739C182.141 167.925 181.958 168.1 181.766 168.265C181.577 168.412 181.598 168.412 181.766 168.265L181.451 168.454C181.308 168.558 181.153 168.643 180.988 168.706C181.366 168.538 180.778 168.706 180.694 168.706C180.61 168.706 179.958 168.706 180.463 168.706H179.118C178.886 168.706 178.886 168.706 179.118 168.706H178.802L178.193 168.517C178.676 168.685 178.193 168.517 177.983 168.37C177.772 168.223 177.331 167.907 177.667 168.181C177.491 168.051 177.329 167.903 177.184 167.739L176.974 167.508C177.121 167.697 177.1 167.697 176.974 167.508L176.553 167.298V166.983C176.553 167.151 176.553 167.109 176.553 166.983L176.301 166.205C176.301 165.953 176.175 165.701 176.133 165.428C176.133 165.827 176.133 165.092 176.133 165.008C176.112 164.763 176.112 164.517 176.133 164.272C176.133 164.041 176.133 164.041 176.133 164.272V163.915C176.341 162.956 176.726 162.044 177.268 161.226C177.398 161.003 177.482 160.758 177.517 160.503C177.552 160.248 177.536 159.989 177.471 159.74C177.405 159.492 177.292 159.258 177.136 159.053C176.98 158.848 176.786 158.676 176.564 158.547C176.342 158.417 176.096 158.332 175.841 158.297C175.586 158.263 175.327 158.278 175.078 158.344C174.829 158.409 174.596 158.523 174.391 158.678C174.186 158.834 174.014 159.028 173.884 159.25C172.726 161.063 172.12 163.173 172.139 165.323C172.217 167.478 173.102 169.526 174.62 171.059C175.352 171.736 176.213 172.259 177.152 172.594C178.091 172.93 179.089 173.073 180.084 173.013C181.107 172.944 182.103 172.657 183.006 172.172C183.908 171.686 184.697 171.013 185.318 170.198C186.589 168.645 187.59 166.891 188.281 165.008C188.418 164.509 188.354 163.977 188.102 163.525C187.851 163.073 187.432 162.738 186.936 162.591C186.436 162.486 185.915 162.567 185.47 162.818C185.025 163.07 184.687 163.475 184.519 163.957V163.894Z" fill="var(--fill-0, #003282)"/>
<path id="Vector_33" d="M183.363 167.697C183.66 168.678 184.165 169.584 184.845 170.352C185.524 171.12 186.362 171.731 187.301 172.145C188.24 172.558 189.257 172.763 190.282 172.746C191.308 172.729 192.317 172.49 193.242 172.046C197.698 170.218 200.115 165.428 201.817 161.225C203.51 156.874 203.961 152.139 203.12 147.546C202.553 143.785 201.019 138.763 197.971 136.305L198.475 138.196C201.903 128.086 202.151 117.169 199.186 106.913C196.221 96.6581 190.186 87.5565 181.892 80.833C179.958 79.2781 177.184 82.0097 179.139 83.6066C186.953 89.8307 192.646 98.3224 195.435 107.914C198.224 117.505 197.972 127.724 194.713 137.166C194.614 137.497 194.609 137.849 194.698 138.183C194.787 138.517 194.967 138.819 195.218 139.057C197.572 140.78 198.517 144.373 199.085 147.084C199.866 150.491 199.838 154.033 199.002 157.427C198.166 160.82 196.546 163.971 194.272 166.625C193.732 167.279 193.055 167.807 192.288 168.17C191.522 168.533 190.685 168.723 189.837 168.726C189.21 168.751 188.595 168.553 188.099 168.169C187.603 167.785 187.258 167.238 187.125 166.625C186.963 166.157 186.628 165.768 186.19 165.537C185.751 165.306 185.241 165.25 184.763 165.381C184.284 165.512 183.874 165.82 183.614 166.242C183.354 166.664 183.265 167.169 183.363 167.655V167.697Z" fill="var(--fill-0, #003282)"/>
<path id="Vector_34" d="M112.026 115.167C140.385 115.167 163.374 92.1848 163.374 63.8347C163.374 35.4845 140.385 12.5022 112.026 12.5022C83.668 12.5022 60.679 35.4845 60.679 63.8347C60.679 92.1848 83.668 115.167 112.026 115.167Z" fill="var(--fill-0, #00A7CD)"/>
<path id="Vector_35" d="M112.028 117.121C101.485 117.125 91.1774 114.003 82.4091 108.151C73.6408 102.298 66.8057 93.9773 62.7681 84.2408C58.7306 74.5044 57.672 63.7896 59.7263 53.4516C61.7806 43.1136 66.8555 33.6169 74.3091 26.1625C81.7628 18.7082 91.2603 13.631 101.6 11.5733C111.941 9.51549 122.659 10.5695 132.4 14.602C142.141 18.6345 150.467 25.4644 156.325 34.2278C162.183 42.9912 165.309 53.2944 165.309 63.8344C165.292 77.9581 159.674 91.4989 149.686 101.488C139.698 111.477 126.156 117.099 112.028 117.121ZM112.028 14.4561C102.259 14.4561 92.7094 17.3521 84.5868 22.7778C76.4642 28.2036 70.1334 35.9154 66.3949 44.9381C62.6565 53.9608 61.6784 63.8892 63.5842 73.4676C65.49 83.0461 70.1942 91.8445 77.1019 98.7501C84.0097 105.656 92.8106 110.359 102.392 112.264C111.973 114.169 121.904 113.191 130.93 109.454C139.955 105.717 147.669 99.3877 153.097 91.2675C158.524 83.1473 161.421 73.6005 161.421 63.8344C161.41 50.7419 156.202 38.1888 146.942 28.9309C137.681 19.6731 125.124 14.4672 112.028 14.4561Z" fill="var(--fill-0, #003282)"/>
<path id="Vector_36" d="M102.233 30.509C118.648 26.6428 127.475 7.77393 144.038 4.20189C149.028 3.08853 154.202 3.08853 159.192 4.20189C162.098 4.90625 164.917 5.92798 167.599 7.24863C175.397 11.0518 180.21 19.4987 181.261 28.1136C182.312 36.7285 179.411 48.6214 174.514 55.1141" fill="var(--fill-0, #003282)"/>
<path id="Vector_37" d="M102.757 32.3795C117.701 28.7234 125.709 14.1411 139.14 7.83744C143.441 5.99428 148.091 5.10731 152.769 5.23792C157.447 5.36853 162.04 6.51359 166.232 8.59387C169.874 10.4673 172.987 13.2246 175.285 16.6131C177.584 20.0015 178.995 23.9127 179.389 27.988C179.829 32.6124 179.452 37.2781 178.276 41.7719C177.3 46.1676 175.472 50.3295 172.895 54.0219C171.403 56.1231 174.786 57.9722 176.258 55.9761C181.206 48.6499 183.728 39.955 183.467 31.1188C183.5 26.7556 182.577 22.4381 180.761 18.4702C178.945 14.5024 176.282 10.9805 172.958 8.15262C164.908 1.849 153.6 0.126015 143.827 2.20621C135.966 3.86616 129.555 8.90905 123.67 14.099C117.07 19.9194 110.513 26.4751 101.706 28.6184C101.226 28.7734 100.824 29.1084 100.585 29.553C100.346 29.9977 100.288 30.5175 100.424 31.0037C100.56 31.4899 100.879 31.9046 101.314 32.1611C101.748 32.4175 102.266 32.4958 102.757 32.3795Z" fill="var(--fill-0, #003282)"/>
<path id="Vector_38" d="M118.92 167.761C157.366 167.761 188.533 136.604 188.533 98.169C188.533 59.7345 157.366 28.5771 118.92 28.5771C80.4745 28.5771 49.308 59.7345 49.308 98.169C49.308 136.604 80.4745 167.761 118.92 167.761Z" fill="var(--fill-0, #C5E6F0)"/>
<path id="Vector_39" d="M118.921 169.714C104.762 169.714 90.9211 165.515 79.1497 157.649C67.3783 149.783 58.2054 138.602 52.7918 125.523C47.3782 112.443 45.967 98.0525 48.737 84.1711C51.507 70.2897 58.3335 57.5416 68.3529 47.5399C78.3722 37.5382 91.1341 30.7324 105.024 27.9837C118.913 25.2349 133.306 26.6668 146.382 32.098C159.457 37.5293 170.627 46.7159 178.478 58.4954C186.329 70.2749 190.509 84.1179 190.488 98.2728C190.438 117.223 182.879 135.381 169.465 148.771C156.051 162.161 137.877 169.692 118.921 169.714ZM118.921 30.5299C105.54 30.5299 92.4588 34.4968 81.3325 41.929C70.2063 49.3611 61.5345 59.9247 56.4136 72.2839C51.2928 84.6431 49.9529 98.2428 52.5635 111.363C55.1741 124.484 61.6178 136.536 71.0799 145.995C80.542 155.454 92.5975 161.896 105.722 164.506C118.846 167.116 132.45 165.776 144.813 160.657C157.175 155.538 167.742 146.868 175.176 135.745C182.611 124.622 186.579 111.545 186.579 98.1677C186.557 80.2359 179.421 63.0449 166.738 50.3652C154.054 37.6854 136.858 30.5522 118.921 30.5299Z" fill="var(--fill-0, #003282)"/>
<path id="Vector_40" d="M176.764 31.3292C176.656 30.6406 176.405 29.9821 176.028 29.3961C176.603 29.518 177.197 29.518 177.773 29.3961C178.562 29.2423 179.262 28.7909 179.727 28.1353C180.023 27.7716 180.238 27.349 180.358 26.8956C180.43 26.4926 180.43 26.0799 180.358 25.6769C180.274 25.0081 180.02 24.3718 179.622 23.8279C178.651 22.6246 177.536 21.5449 176.301 20.613C175.525 20.0052 174.718 19.4371 173.884 18.911C173.264 18.419 172.474 18.1915 171.687 18.2781C170.9 18.3646 170.179 18.7582 169.681 19.3733C167.703 21.5465 165.89 23.8643 164.258 26.3073C163.81 26.9504 163.618 27.7371 163.719 28.514C163.82 29.291 164.207 30.0024 164.804 30.5097C165.582 31.2241 166.486 32.0436 167.411 32.758C168.468 33.5768 169.609 34.2811 170.816 34.8592C171.473 35.1685 172.191 35.3265 172.917 35.3215C173.505 35.3332 174.087 35.211 174.62 34.9642C175.132 34.7053 175.584 34.34 175.944 33.8926C176.264 33.554 176.504 33.1478 176.646 32.7041C176.787 32.2604 176.828 31.7905 176.764 31.3292ZM173.085 23.3446L174.347 24.3322C175.397 25.1726 175.061 25.5929 174.935 25.761C174.452 26.3493 173.695 25.761 173.422 25.5298L172.14 24.5423L173.085 23.3446ZM172.14 29.9214C172.068 30.0131 171.975 30.0859 171.869 30.1335C171.763 30.1811 171.646 30.2021 171.53 30.1945C171.164 30.1239 170.823 29.9571 170.542 29.7112L169.029 28.5346L170.059 27.2108L171.593 28.4085C171.899 28.6181 172.139 28.9093 172.287 29.249C172.32 29.3596 172.326 29.4767 172.304 29.5902C172.282 29.7036 172.233 29.8101 172.161 29.9003L172.14 29.9214Z" fill="var(--fill-0, white)"/>
<path id="Vector_41" d="M172.014 18.2804C172.681 18.3078 173.329 18.5186 173.884 18.8897C174.756 19.4332 175.597 20.0224 176.406 20.6547C177.641 21.5866 178.756 22.6663 179.727 23.8696C180.126 24.4135 180.379 25.0499 180.463 25.7186C180.535 26.1216 180.535 26.5343 180.463 26.9373C180.343 27.3907 180.128 27.8133 179.832 28.1771C179.367 28.8326 178.667 29.284 177.878 29.4378C177.654 29.4594 177.429 29.4594 177.205 29.4378C176.844 29.4373 176.484 29.395 176.133 29.3117C176.511 29.8978 176.761 30.5562 176.869 31.2448C176.922 31.6815 176.883 32.1245 176.752 32.5447C176.622 32.9648 176.404 33.3526 176.112 33.6822C175.752 34.1295 175.301 34.4949 174.788 34.7538C174.289 34.9906 173.743 35.1127 173.191 35.111C172.464 35.1161 171.746 34.9581 171.089 34.6488C169.883 34.0707 168.741 33.3663 167.684 32.5476C166.759 31.8331 165.855 31.0137 165.078 30.2993C164.48 29.792 164.094 29.0805 163.992 28.3036C163.891 27.5266 164.083 26.7399 164.531 26.0969C166.164 23.6538 167.976 21.3361 169.954 19.1629C170.239 18.8437 170.584 18.5845 170.97 18.4005C171.356 18.2165 171.775 18.1114 172.203 18.0913M174.452 26.0548C174.553 26.0565 174.653 26.0345 174.744 25.9908C174.835 25.947 174.915 25.8826 174.977 25.8027C175.103 25.6346 175.44 25.2144 174.389 24.3739L173.128 23.3863L172.161 24.626L173.443 25.6136C173.718 25.8679 174.061 26.0359 174.431 26.0969M171.635 30.2993C171.742 30.3038 171.848 30.2811 171.944 30.2333C172.039 30.1855 172.121 30.1142 172.182 30.0261C172.254 29.9358 172.303 29.8294 172.325 29.7159C172.347 29.6025 172.341 29.4854 172.308 29.3747C172.16 29.0351 171.92 28.7439 171.614 28.5343L170.059 27.3156L169.029 28.6393L170.542 29.816C170.823 30.0619 171.164 30.2287 171.53 30.2993M171.951 16.0321C170.521 16.0592 169.157 16.6391 168.146 17.65C166.001 20.0177 164.04 22.5466 162.282 25.2144C161.618 26.3019 161.353 27.5868 161.533 28.8483C161.714 30.1099 162.328 31.2692 163.27 32.1273C164.069 32.8417 165.036 33.7032 166.023 34.4807C167.204 35.4264 168.487 36.2369 169.849 36.8971C170.79 37.3376 171.815 37.567 172.854 37.5694H173.023C173.923 37.5764 174.813 37.3826 175.629 37.0021C176.448 36.5813 177.166 35.986 177.731 35.2581C178.642 34.2254 179.143 32.8949 179.139 31.518C180.107 31.1278 180.949 30.4813 181.577 29.6479C182.086 29.0358 182.452 28.318 182.649 27.5467C182.821 26.8601 182.863 26.1477 182.775 25.4455C182.659 24.3857 182.26 23.3767 181.619 22.5248C180.52 21.1611 179.248 19.9462 177.836 18.9107C176.932 18.2173 176.007 17.545 175.124 16.9986C174.196 16.3974 173.12 16.063 172.014 16.0321H171.951Z" fill="var(--fill-0, #003282)"/>
<path id="Vector_42" d="M168.145 18.2594C168.227 17.1956 168.106 16.126 167.788 15.1076C167.442 14.079 166.908 13.124 166.211 12.292C164.688 10.5227 162.56 9.38414 160.242 9.09814C159.157 8.97115 158.057 9.05679 157.005 9.35028C155.972 9.62852 155.006 10.1147 154.168 10.7791C153.306 11.4623 152.591 12.3129 152.066 13.2795C151.552 14.2526 151.231 15.3156 151.12 16.4103C150.985 17.4786 151.056 18.5628 151.33 19.6042C151.676 20.6328 152.21 21.5877 152.907 22.4198C153.658 23.2881 154.572 24.0018 155.597 24.521C156.613 25.077 157.726 25.4337 158.876 25.5716C159.961 25.6795 161.057 25.5941 162.113 25.3194C163.141 25.0278 164.104 24.5428 164.95 23.8906C165.817 23.2043 166.533 22.3458 167.052 21.3692C167.629 20.4201 168.001 19.3608 168.145 18.2594ZM162.176 18.9108C161.982 19.2804 161.718 19.6087 161.398 19.8773C161.114 20.1458 160.778 20.3532 160.41 20.4867C160.043 20.6338 159.649 20.6984 159.254 20.6758C158.834 20.6452 158.425 20.5233 158.056 20.3186C157.672 20.1277 157.34 19.8465 157.089 19.4991C156.853 19.1809 156.688 18.8153 156.606 18.4275C156.532 18.0317 156.532 17.6256 156.606 17.2298C156.669 16.8172 156.804 16.4188 157.005 16.0531C157.196 15.6873 157.452 15.3596 157.762 15.0866C158.051 14.8252 158.386 14.6188 158.75 14.4772C159.121 14.3482 159.513 14.2912 159.906 14.3091C160.325 14.3291 160.735 14.444 161.104 14.6453C161.479 14.8497 161.808 15.1286 162.071 15.4648C162.299 15.7875 162.463 16.1514 162.554 16.5364C162.628 16.9322 162.628 17.3382 162.554 17.7341C162.495 18.1448 162.367 18.5427 162.176 18.9108Z" fill="var(--fill-0, white)"/>
<path id="Vector_43" d="M159.212 9.03503C159.541 9.01416 159.871 9.01416 160.2 9.03503C162.518 9.32103 164.646 10.4596 166.169 12.2289C166.866 13.0609 167.4 14.0159 167.746 15.0445C168.086 16.0801 168.222 17.172 168.145 18.2593C168.05 19.3571 167.728 20.4232 167.199 21.3901C166.68 22.3667 165.965 23.2252 165.097 23.9116C164.251 24.5638 163.288 25.0487 162.26 25.3404C161.526 25.5352 160.77 25.634 160.011 25.6345H159.023C157.873 25.4966 156.76 25.14 155.744 24.5839C154.719 24.0648 153.806 23.3511 153.054 22.4827C152.298 21.6441 151.713 20.6663 151.33 19.6041C151.012 18.5857 150.891 17.516 150.973 16.4523C151.084 15.3576 151.405 14.2945 151.919 13.3215C152.444 12.3548 153.159 11.5043 154.021 10.8211C154.859 10.1567 155.825 9.67047 156.858 9.39223C157.589 9.18034 158.346 9.0742 159.107 9.07705M159.296 20.6127C159.642 20.6149 159.984 20.5507 160.305 20.4236C160.673 20.2901 161.009 20.0827 161.293 19.8142C161.644 19.5744 161.944 19.2673 162.176 18.9107C162.367 18.5426 162.495 18.1448 162.554 17.734C162.628 17.3382 162.628 16.9322 162.554 16.5363C162.464 16.1513 162.299 15.7874 162.071 15.4647C161.808 15.1285 161.479 14.8497 161.104 14.6452C160.735 14.4439 160.325 14.329 159.906 14.3091H159.738C159.395 14.3137 159.055 14.3703 158.729 14.4771C158.365 14.6187 158.03 14.8252 157.741 15.0865C157.431 15.3595 157.175 15.6872 156.984 16.0531C156.783 16.4188 156.648 16.8171 156.585 17.2297C156.511 17.6255 156.511 18.0316 156.585 18.4274C156.667 18.8153 156.832 19.1808 157.068 19.499C157.319 19.8464 157.651 20.1276 158.035 20.3185C158.404 20.5232 158.813 20.6451 159.233 20.6757H159.38M159.191 6.80775C158.219 6.80521 157.25 6.9324 156.312 7.18597C154.99 7.55896 153.755 8.18715 152.675 9.03503C151.536 9.9041 150.598 11.0076 149.922 12.2709C149.218 13.569 148.795 15.0009 148.682 16.4733C148.615 17.7851 148.801 19.0975 149.228 20.3395C149.69 21.6553 150.404 22.8686 151.33 23.9116C152.265 25.0303 153.407 25.9578 154.693 26.6431C155.993 27.3541 157.423 27.7971 158.897 27.9459C159.31 27.9764 159.724 27.9764 160.137 27.9459C161.11 27.9413 162.079 27.8071 163.016 27.5466C164.342 27.1785 165.584 26.5578 166.674 25.7186C167.802 24.8352 168.732 23.7259 169.406 22.4617C170.094 21.2019 170.516 19.8146 170.646 18.3854C170.769 17.0093 170.612 15.6226 170.184 14.3091C169.722 12.9869 169.008 11.7667 168.082 10.716C167.142 9.60853 166.001 8.68884 164.719 8.00544C163.422 7.28394 161.992 6.83357 160.515 6.68168C160.102 6.66076 159.688 6.66076 159.275 6.68168L159.191 6.80775ZM159.38 18.3224C159.318 18.3393 159.253 18.3393 159.191 18.3224L159.002 18.1963C158.99 18.1267 158.99 18.0557 159.002 17.9862C158.991 17.8674 158.991 17.7478 159.002 17.629C159.032 17.4897 159.082 17.3553 159.149 17.2297C159.219 17.0899 159.312 16.9622 159.422 16.8515C159.496 16.787 159.582 16.7371 159.675 16.7044H159.864H160.095C160.12 16.737 160.141 16.7722 160.158 16.8095C160.174 16.8715 160.174 16.9366 160.158 16.9986C160.19 17.1155 160.19 17.2389 160.158 17.3558C160.141 17.4985 160.09 17.6352 160.011 17.755C159.948 17.9053 159.855 18.0411 159.738 18.1543L159.485 18.3013L159.38 18.3224Z" fill="var(--fill-0, #003282)"/>
<path id="Vector_44" d="M155.134 9.56111C155.284 9.1917 155.358 8.79625 155.353 8.39778C155.349 7.99932 155.264 7.6058 155.106 7.24014C154.948 6.87447 154.718 6.54397 154.431 6.26786C154.143 5.99175 153.804 5.77556 153.432 5.63186C153.432 5.63186 151.666 4.74935 149.565 3.88786C147.463 3.02637 145.802 2.52208 145.781 2.52208C145.037 2.22115 144.204 2.22808 143.465 2.54135C142.726 2.85463 142.141 3.44857 141.84 4.19253C141.539 4.9365 141.546 5.76953 141.86 6.50838C142.173 7.24723 142.767 7.83137 143.511 8.13229C143.511 8.13229 144.478 8.61557 145.613 9.16188L145.025 10.9899L143.595 14.52C143.525 14.7284 143.412 14.92 143.263 15.0828C143.115 15.2455 142.935 15.3758 142.734 15.4655C142.276 15.6546 141.762 15.6546 141.304 15.4655C141.035 15.3669 140.796 15.2004 140.611 14.9822C140.303 14.5848 139.897 14.2736 139.434 14.0787C138.815 13.8574 138.139 13.8574 137.521 14.0787C137.107 14.2064 136.732 14.4343 136.427 14.7423C136.123 15.0502 135.899 15.4286 135.777 15.8437C135.644 16.2714 135.619 16.7251 135.703 17.1648C135.788 17.6044 135.979 18.0167 136.26 18.3652C136.689 18.9219 137.199 19.4106 137.773 19.815C138.431 20.2559 139.136 20.6223 139.875 20.9076C140.813 21.3091 141.819 21.5301 142.839 21.559C143.751 21.5705 144.654 21.3841 145.487 21.0127C146.35 20.6619 147.12 20.1152 147.736 19.4158C149.128 17.4639 150.272 15.3464 151.141 13.1121C151.288 12.7339 151.498 12.1456 151.729 11.3681C152.419 11.5137 153.137 11.4125 153.76 11.0822C154.382 10.7519 154.869 10.2135 155.134 9.56111Z" fill="var(--fill-0, white)"/>
<path id="Vector_45" d="M144.732 2.33234C145.111 2.33555 145.487 2.39939 145.846 2.52145C145.846 2.52145 147.506 3.04675 149.629 3.88723C151.752 4.72771 153.433 5.61022 153.433 5.63123C153.799 5.781 154.132 6.00158 154.413 6.28031C154.694 6.55905 154.917 6.89045 155.069 7.25551C155.221 7.62057 155.3 8.0121 155.301 8.40765C155.301 8.80319 155.224 9.19496 155.073 9.56048C154.852 10.1209 154.467 10.6015 153.968 10.939C153.469 11.2765 152.88 11.4552 152.277 11.4516H151.668C151.436 12.229 151.226 12.8174 151.079 13.1956C150.21 15.4299 149.066 17.5473 147.674 19.4992C147.058 20.1986 146.289 20.7453 145.425 21.0961C144.613 21.4362 143.741 21.6077 142.861 21.6004H142.735C141.715 21.5715 140.709 21.3505 139.771 20.949C139.032 20.6637 138.327 20.2973 137.669 19.8564C137.095 19.452 136.585 18.9632 136.156 18.4066C135.875 18.0581 135.684 17.6458 135.6 17.2061C135.515 16.7665 135.54 16.3128 135.673 15.8851C135.796 15.47 136.019 15.0916 136.323 14.7837C136.628 14.4757 137.003 14.2478 137.417 14.1201C137.697 14.0356 137.987 13.9931 138.279 13.994C138.638 13.9939 138.994 14.0579 139.33 14.1831C139.793 14.378 140.199 14.6892 140.507 15.0867C140.693 15.3049 140.931 15.4714 141.201 15.5699C141.44 15.6692 141.698 15.7192 141.957 15.717C142.187 15.7177 142.416 15.6749 142.63 15.5909C142.831 15.5012 143.011 15.3709 143.159 15.2082C143.308 15.0455 143.421 14.8539 143.492 14.6454L145.026 10.9893L145.761 9.16125C144.563 8.61494 143.66 8.13166 143.66 8.13166C142.916 7.83186 142.319 7.25275 141.997 6.51833C141.674 5.78392 141.653 4.9526 141.936 4.20241C142.156 3.64466 142.542 3.16803 143.042 2.83723C143.542 2.50644 144.132 2.3375 144.732 2.35335M144.732 0.0210121C143.665 0.00294802 142.618 0.308543 141.729 0.897483C140.839 1.48642 140.15 2.33104 139.75 3.3199C139.235 4.5998 139.231 6.02886 139.739 7.31159C140.248 8.59433 141.23 9.63265 142.483 10.2119L142.756 10.3589L141.747 12.8174C141.316 12.4388 140.826 12.1335 140.297 11.9138C139.683 11.6635 139.026 11.535 138.363 11.5356C137.279 11.5358 136.223 11.8825 135.349 12.5251C134.476 13.1677 133.831 14.0726 133.508 15.1077C133.289 15.9022 133.266 16.7382 133.442 17.5434C133.617 18.3487 133.986 19.0992 134.517 19.7303C135.118 20.4749 135.826 21.1264 136.619 21.6634C137.409 22.2001 138.255 22.6509 139.141 23.0082C140.353 23.4959 141.64 23.773 142.945 23.8277H142.924C144.123 23.8266 145.31 23.5837 146.413 23.1133C147.591 22.6593 148.648 21.9403 149.503 21.0121C151.054 18.8827 152.332 16.5673 153.307 14.1201L153.433 13.6788C154.542 13.451 155.55 12.8783 156.313 12.0427C157.076 11.207 157.554 10.1514 157.68 9.02706C157.806 7.90272 157.573 6.76736 157.014 5.78366C156.455 4.79997 155.599 4.01843 154.568 3.55104C154.337 3.42496 152.592 2.58448 150.512 1.72299C148.431 0.861494 146.875 0.378217 146.56 0.294169C145.969 0.104519 145.352 0.00534123 144.732 0V0.0210121Z" fill="var(--fill-0, #003282)"/>
<path id="Vector_46" d="M169.301 38.4099C169.466 37.9455 169.516 37.4482 169.448 36.9601C169.353 36.3593 169.115 35.79 168.754 35.3001C168.297 34.6526 167.736 34.0847 167.094 33.6192C166.444 33.12 165.739 32.697 164.992 32.3585C164.628 32.2113 164.221 32.2113 163.857 32.3585C163.677 32.4303 163.513 32.5382 163.376 32.6755C163.238 32.8127 163.13 32.9766 163.059 33.1569C162.935 33.4498 162.912 33.7749 162.992 34.0824C163.071 34.3899 163.25 34.6627 163.5 34.8589L163.773 35.006C164.159 35.1857 164.525 35.4039 164.866 35.6573C165.21 35.8719 165.47 36.1984 165.602 36.5819C165.641 36.8557 165.574 37.1343 165.413 37.3593L165.286 37.2122L164.929 36.813C164.793 36.6556 164.645 36.5081 164.488 36.3718L163.941 35.9725C163.242 35.3779 162.358 35.0437 161.44 35.027C161.024 35.0407 160.616 35.1525 160.251 35.3533C159.886 35.5541 159.573 35.8383 159.338 36.1826C159.067 36.514 158.873 36.9016 158.771 37.3173C158.677 37.6825 158.677 38.0657 158.771 38.4309C158.833 38.8111 158.984 39.1711 159.212 39.4815C159.443 39.8321 159.735 40.1381 160.074 40.3851C160.487 40.7076 160.969 40.9306 161.482 41.0364C161.844 41.0992 162.214 41.0992 162.575 41.0364C162.51 41.3695 162.548 41.7144 162.683 42.0256C162.818 42.3369 163.044 42.6 163.332 42.7804L163.71 43.0746C164.107 43.3561 164.597 43.4738 165.079 43.4034C165.56 43.3329 165.996 43.0797 166.295 42.6964C167.497 41.4184 168.509 39.9749 169.301 38.4099ZM164.215 38.9562C164.034 39.2264 163.755 39.4151 163.437 39.4815C163.31 39.5111 163.177 39.5114 163.05 39.4823C162.922 39.4531 162.803 39.3954 162.701 39.3134C162.637 39.2526 162.586 39.1793 162.551 39.098C162.516 39.0167 162.498 38.9292 162.498 38.8407C162.498 38.7522 162.516 38.6646 162.551 38.5834C162.586 38.5021 162.637 38.4288 162.701 38.3679C162.763 38.2781 162.844 38.2033 162.939 38.1488C163.033 38.0943 163.139 38.0615 163.248 38.0527C163.378 38.0375 163.51 38.0523 163.634 38.096C163.758 38.1397 163.87 38.2112 163.962 38.3049C164.081 38.379 164.187 38.4711 164.278 38.578L164.446 38.7881L164.215 38.9562Z" fill="var(--fill-0, white)"/>
<path id="Vector_47" d="M164.341 32.2323C164.544 32.2339 164.744 32.2768 164.93 32.3584C165.676 32.6969 166.381 33.1199 167.032 33.6191C167.67 34.0719 168.231 34.6255 168.692 35.258C169.053 35.748 169.29 36.3172 169.386 36.918C169.454 37.4061 169.403 37.9034 169.238 38.3678C168.44 39.965 167.414 41.4373 166.191 42.7383C165.785 43.1726 165.229 43.4357 164.635 43.4738C164.263 43.4677 163.902 43.3425 163.606 43.1166L163.227 42.8224C162.94 42.642 162.714 42.3789 162.579 42.0676C162.444 41.7563 162.406 41.4115 162.471 41.0784H162.134C161.883 41.1094 161.629 41.1094 161.378 41.0784C160.864 40.9725 160.382 40.7496 159.969 40.427C159.63 40.1801 159.338 39.874 159.108 39.5235C158.88 39.2131 158.728 38.853 158.666 38.4729C158.572 38.1077 158.572 37.7245 158.666 37.3593C158.769 36.9436 158.963 36.5559 159.234 36.2246C159.468 35.8802 159.781 35.596 160.146 35.3952C160.512 35.1944 160.919 35.0826 161.336 35.0689C162.23 35.1064 163.088 35.4389 163.774 36.0145L164.236 36.3927C164.394 36.5291 164.541 36.6765 164.677 36.8339L165.035 37.2332L165.161 37.3803C165.322 37.1552 165.39 36.8767 165.35 36.6028C165.218 36.2193 164.959 35.8928 164.614 35.6783C164.273 35.4249 163.907 35.2066 163.521 35.0269L163.248 34.8798C162.998 34.6837 162.82 34.4109 162.74 34.1034C162.66 33.7959 162.684 33.4707 162.807 33.1779C162.879 32.9975 162.987 32.8337 163.124 32.6964C163.261 32.5591 163.425 32.4513 163.606 32.3794C163.78 32.3123 163.965 32.2767 164.152 32.2743M163.059 39.5445H163.248C163.566 39.478 163.846 39.2894 164.026 39.0192L164.173 38.8091L164.005 38.599C163.915 38.4921 163.808 38.3999 163.69 38.3258C163.515 38.1714 163.292 38.0823 163.059 38.0737C162.95 38.0824 162.845 38.1152 162.75 38.1697C162.656 38.2242 162.575 38.2991 162.513 38.3888C162.448 38.4497 162.397 38.523 162.362 38.6043C162.327 38.6856 162.309 38.7731 162.309 38.8616C162.309 38.9501 162.327 39.0376 162.362 39.1189C162.397 39.2002 162.448 39.2735 162.513 39.3344C162.669 39.4555 162.861 39.522 163.059 39.5235M164.152 29.921C163.669 29.9159 163.19 30.0089 162.744 30.1941C162.266 30.3789 161.833 30.6612 161.471 31.023C161.109 31.3848 160.827 31.8182 160.642 32.2953C160.57 32.465 160.514 32.6408 160.474 32.8206C159.18 33.0756 158.04 33.8307 157.3 34.9219C156.844 35.5086 156.508 36.1799 156.312 36.897C156.161 37.5893 156.161 38.3059 156.312 38.9982C156.438 39.6954 156.718 40.3558 157.132 40.9313C157.503 41.4814 157.965 41.9646 158.498 42.3601C159.126 42.8354 159.84 43.185 160.6 43.3897C160.911 43.9519 161.333 44.4451 161.84 44.8395L162.239 45.1337C162.939 45.6696 163.796 45.9579 164.677 45.9532C165.882 45.9249 167.029 45.4273 167.872 44.5664C169.362 42.9773 170.589 41.1616 171.508 39.1873C171.785 38.4063 171.865 37.569 171.74 36.7499C171.603 35.7705 171.228 34.8396 170.647 34.0393C170.055 33.2378 169.347 32.5295 168.545 31.9381C167.738 31.3399 166.871 30.826 165.96 30.4043C165.475 30.1951 164.953 30.0878 164.425 30.0891L164.152 29.921Z" fill="var(--fill-0, #003282)"/>
<path id="Vector_48" d="M160.137 32.8839C160.242 32.3143 160.242 31.7306 160.137 31.1609C160.049 30.6212 159.848 30.1059 159.549 29.6481C159.256 29.1972 158.86 28.8226 158.393 28.5554C158.12 28.3983 157.831 28.2715 157.531 28.1772C157.27 28.1127 157.002 28.0775 156.733 28.0722C156.495 28.0504 156.256 28.0504 156.018 28.0722H155.745L156.69 26.5173C156.966 26.0484 157.049 25.4911 156.922 24.9624C156.778 24.4544 156.447 24.0193 155.997 23.7437C155.534 23.4942 154.995 23.427 154.485 23.5553C153.976 23.6837 153.533 23.9983 153.243 24.4371C152.655 25.1305 149.25 30.9928 148.872 31.8333C148.73 32.0404 148.633 32.275 148.588 32.5219C148.543 32.7688 148.55 33.0225 148.61 33.2663C148.669 33.5102 148.779 33.7388 148.933 33.9372C149.087 34.1356 149.281 34.2994 149.502 34.4178L149.902 34.6489C150.192 34.8296 150.527 34.9254 150.868 34.9254C151.21 34.9254 151.545 34.8296 151.835 34.6489C151.932 34.9917 152.066 35.3229 152.235 35.6365C152.529 36.1505 152.967 36.5669 153.496 36.8342C153.95 37.1071 154.46 37.2724 154.988 37.3175C155.524 37.3545 156.062 37.2756 156.564 37.0863C157.121 36.8822 157.634 36.5757 158.078 36.1828C158.584 35.7401 159.01 35.2142 159.339 34.6279C159.694 34.0917 159.964 33.5033 160.137 32.8839ZM155.934 32.7789C155.756 33.1119 155.454 33.3612 155.093 33.4723C154.936 33.55 154.764 33.5905 154.589 33.5905C154.414 33.5905 154.241 33.55 154.084 33.4723C153.939 33.3753 153.811 33.2545 153.706 33.1151C153.604 32.9797 153.539 32.8205 153.517 32.6528C153.475 32.4731 153.475 32.2862 153.517 32.1065C153.548 31.9215 153.612 31.7436 153.706 31.5812C153.884 31.2481 154.186 30.9988 154.547 30.8878C154.714 30.835 154.891 30.8189 155.065 30.8407C155.239 30.8624 155.406 30.9215 155.555 31.0139C155.707 31.0994 155.839 31.2171 155.94 31.3586C156.042 31.5002 156.111 31.6622 156.144 31.8333C156.208 32.2042 156.133 32.5856 155.934 32.9049V32.7789Z" fill="var(--fill-0, white)"/>
<path id="Vector_49" d="M155.051 23.6177C155.399 23.6161 155.741 23.7107 156.039 23.8909C156.489 24.1665 156.819 24.6016 156.964 25.1096C157.091 25.6382 157.008 26.1956 156.732 26.6645L155.787 28.2193H156.06C156.298 28.1975 156.537 28.1975 156.774 28.2193C157.044 28.2247 157.312 28.2599 157.573 28.3244C157.873 28.4186 158.162 28.5455 158.435 28.7026C158.902 28.9698 159.298 29.3444 159.591 29.7953C159.89 30.2531 160.091 30.7684 160.179 31.3081C160.284 31.8777 160.284 32.4615 160.179 33.0311C160.031 33.6686 159.783 34.2786 159.444 34.8381C159.115 35.4244 158.689 35.9503 158.183 36.393C157.739 36.786 157.226 37.0924 156.669 37.2966C156.255 37.4627 155.813 37.5483 155.366 37.5487H155.093C154.565 37.5037 154.055 37.3383 153.601 37.0654C153.072 36.7982 152.634 36.3817 152.34 35.8677C152.171 35.5541 152.037 35.223 151.94 34.8802C151.656 35.0936 151.308 35.2047 150.952 35.1953C150.62 35.1988 150.293 35.1116 150.007 34.9432L149.607 34.7121C149.386 34.5958 149.193 34.4341 149.039 34.2376C148.886 34.0411 148.775 33.8142 148.716 33.572C148.656 33.3298 148.649 33.0777 148.694 32.8323C148.739 32.587 148.835 32.354 148.977 32.1486C149.355 31.2871 152.76 25.4247 153.348 24.7313C153.545 24.4418 153.808 24.2032 154.115 24.0351C154.422 23.8671 154.764 23.7744 155.114 23.7648M154.799 33.6194H155.177C155.538 33.5084 155.84 33.2591 156.018 32.926C156.217 32.6067 156.292 32.2253 156.228 31.8544C156.195 31.6833 156.126 31.5213 156.024 31.3797C155.923 31.2382 155.791 31.1205 155.639 31.035C155.451 30.9153 155.232 30.8499 155.009 30.8459C154.884 30.8258 154.756 30.8258 154.631 30.8459C154.27 30.9569 153.967 31.2062 153.79 31.5393C153.696 31.7017 153.632 31.8796 153.601 32.0646C153.559 32.2442 153.559 32.4312 153.601 32.6109C153.623 32.7786 153.688 32.9378 153.79 33.0731C153.895 33.2126 154.023 33.3334 154.168 33.4303C154.362 33.535 154.578 33.5925 154.799 33.5984M155.051 21.3274C154.332 21.3013 153.618 21.4503 152.97 21.7614C152.322 22.0726 151.76 22.5366 151.331 23.1134C149.659 25.6396 148.116 28.2484 146.707 30.9299C146.442 31.3972 146.271 31.9124 146.206 32.4456C146.141 32.9789 146.182 33.5199 146.326 34.0373C146.471 34.5548 146.716 35.0386 147.048 35.4609C147.381 35.8832 147.793 36.2357 148.262 36.4981L148.661 36.7292C149.215 37.0488 149.832 37.2425 150.469 37.2966C150.954 37.9297 151.561 38.4586 152.256 38.8514C153.015 39.3101 153.872 39.5836 154.757 39.6499H155.219C155.936 39.6442 156.647 39.5163 157.321 39.2717C158.09 38.9499 158.8 38.5025 159.423 37.9479C160.818 36.7048 161.794 35.0608 162.218 33.2412C162.386 32.3879 162.386 31.5101 162.218 30.6567C162.077 29.8 161.755 28.9833 161.272 28.2614C160.787 27.5104 160.132 26.8841 159.36 26.4333L159.023 26.2442C159.175 25.3727 159.055 24.4757 158.679 23.6749C158.303 22.8742 157.689 22.2086 156.922 21.7686C156.287 21.3836 155.562 21.1733 154.82 21.1593L155.051 21.3274Z" fill="var(--fill-0, #003282)"/>
<path id="Vector_50" d="M149.902 26.7696C149.94 26.2817 149.861 25.7918 149.671 25.3407C149.445 24.7729 149.076 24.2733 148.599 23.8909C147.961 23.401 147.253 23.0113 146.497 22.7352C145.742 22.413 144.952 22.1803 144.143 22.0418C143.952 22.0122 143.757 22.0211 143.569 22.068C143.382 22.1149 143.205 22.1989 143.05 22.315C142.89 22.4257 142.754 22.569 142.653 22.7355C142.552 22.9021 142.486 23.0881 142.462 23.2816C142.419 23.5988 142.482 23.9213 142.642 24.1988C142.802 24.4762 143.049 24.6931 143.345 24.8154H143.639C144.056 24.8828 144.465 24.9955 144.858 25.1516C145.241 25.2732 145.568 25.5263 145.783 25.866C145.841 25.9911 145.871 26.1273 145.871 26.2653C145.871 26.4032 145.841 26.5395 145.783 26.6645L145.636 26.5594L145.194 26.2653L144.648 25.9501L144.101 25.6979C143.276 25.3067 142.341 25.2103 141.453 25.4248C141.052 25.5387 140.685 25.747 140.381 26.0322C140.078 26.3173 139.847 26.6711 139.708 27.0637C139.543 27.4495 139.45 27.8628 139.435 28.2824C139.431 28.6682 139.518 29.0495 139.687 29.3961C139.855 29.7413 140.091 30.0488 140.381 30.2996C140.697 30.5625 141.051 30.7751 141.432 30.9299C141.914 31.1448 142.439 31.2455 142.966 31.2241C143.331 31.1987 143.691 31.1281 144.038 31.014C144.064 31.3515 144.189 31.6737 144.399 31.9394C144.609 32.2051 144.893 32.4024 145.215 32.5058L145.657 32.695C146.115 32.8592 146.619 32.8445 147.067 32.6536C147.515 32.4627 147.875 32.1098 148.074 31.6654C148.917 30.1305 149.533 28.4814 149.902 26.7696ZM145.026 28.5766C144.926 28.8797 144.716 29.1344 144.438 29.291C144.32 29.3485 144.19 29.3785 144.059 29.3785C143.928 29.3785 143.799 29.3485 143.681 29.291C143.595 29.2644 143.516 29.2184 143.45 29.1565C143.384 29.0945 143.334 29.0183 143.303 28.9338C143.23 28.7589 143.23 28.5624 143.303 28.3875C143.345 28.2835 143.408 28.189 143.487 28.1096C143.566 28.0302 143.661 27.9675 143.765 27.9252C143.885 27.8755 144.013 27.8499 144.143 27.8499C144.273 27.8499 144.402 27.8755 144.522 27.9252L144.9 28.1353L145.11 28.2824L145.026 28.5766Z" fill="var(--fill-0, white)"/>
<path id="Vector_51" d="M143.889 21.9991H144.142C144.951 22.1375 145.741 22.3703 146.496 22.6925C147.251 22.9686 147.96 23.3583 148.597 23.8482C149.074 24.2305 149.444 24.7301 149.669 25.298C149.859 25.749 149.939 26.2389 149.901 26.7268C149.541 28.4748 148.925 30.16 148.072 31.7277C147.907 32.0559 147.66 32.3352 147.354 32.538C147.048 32.7408 146.694 32.8598 146.327 32.8833C146.098 32.8783 145.871 32.8357 145.655 32.7573L145.213 32.5682C144.891 32.4647 144.607 32.2675 144.397 32.0017C144.188 31.736 144.062 31.4138 144.036 31.0763C143.689 31.1904 143.329 31.261 142.965 31.2864H142.796C142.326 31.2755 141.863 31.1757 141.43 30.9923C141.05 30.8374 140.695 30.6248 140.379 30.3619C140.089 30.1111 139.853 29.8036 139.686 29.4584C139.516 29.1118 139.43 28.7305 139.433 28.3447C139.448 27.9251 139.541 27.5118 139.707 27.126C139.845 26.7334 140.076 26.3796 140.38 26.0945C140.683 25.8093 141.051 25.601 141.451 25.4871C141.723 25.4011 142.007 25.3586 142.292 25.361C142.915 25.3686 143.531 25.5045 144.1 25.7603L144.646 26.0124L145.192 26.3276L145.634 26.6218L145.781 26.7268C145.839 26.6018 145.869 26.4655 145.869 26.3276C145.869 26.1896 145.839 26.0534 145.781 25.9284C145.567 25.5886 145.239 25.3355 144.856 25.2139C144.463 25.0578 144.054 24.9451 143.637 24.8778H143.343C143.047 24.7554 142.8 24.5385 142.64 24.2611C142.481 23.9836 142.417 23.6611 142.46 23.3439C142.485 23.1505 142.55 22.9644 142.651 22.7979C142.753 22.6313 142.888 22.488 143.049 22.3773C143.29 22.1909 143.585 22.0877 143.889 22.0831M144.121 29.4164C144.259 29.4086 144.395 29.3729 144.52 29.3113C144.771 29.1344 144.95 28.8735 145.024 28.5759V28.3447L144.814 28.1977L144.436 27.9875C144.282 27.9247 144.118 27.8891 143.952 27.8825H143.679C143.575 27.9247 143.481 27.9874 143.401 28.0668C143.322 28.1462 143.259 28.2407 143.217 28.3447C143.144 28.5197 143.144 28.7161 143.217 28.8911C143.248 28.9756 143.299 29.0518 143.364 29.1137C143.43 29.1757 143.509 29.2217 143.595 29.2483C143.712 29.2795 143.835 29.2795 143.952 29.2483M143.721 19.5197C142.919 19.5182 142.137 19.7761 141.493 20.2551C141.079 20.551 140.73 20.9298 140.47 21.3675C140.209 21.8051 140.042 22.2921 139.98 22.7976C139.97 22.9795 139.97 23.1619 139.98 23.3439C138.806 23.8954 137.894 24.8829 137.437 26.0964C137.144 26.7589 136.986 27.4734 136.974 28.1977C136.964 28.9244 137.122 29.6435 137.437 30.2989C137.744 30.9412 138.181 31.5134 138.719 31.9798C139.806 32.9106 141.177 33.4441 142.607 33.4927C143.054 33.9594 143.59 34.331 144.184 34.5853L144.646 34.7744C145.141 34.9717 145.668 35.0784 146.201 35.0896C146.973 35.067 147.725 34.8415 148.382 34.4357C149.039 34.0299 149.577 33.4583 149.943 32.7783C150.973 30.8686 151.683 28.8031 152.044 26.6638C152.109 25.8467 151.98 25.0258 151.666 24.2684C151.277 23.3579 150.68 22.5517 149.922 21.9151C149.118 21.2773 148.226 20.7605 147.273 20.3812C146.35 19.9875 145.384 19.7053 144.394 19.5407H143.763L143.721 19.5197Z" fill="var(--fill-0, #003282)"/>
<path id="Vector_52" d="M157.215 103.8C165.12 103.8 171.529 92.7369 171.529 79.0899C171.529 65.4428 165.12 54.3797 157.215 54.3797C149.31 54.3797 142.902 65.4428 142.902 79.0899C142.902 92.7369 149.31 103.8 157.215 103.8Z" fill="var(--fill-0, white)"/>
<path id="Vector_53" d="M157.216 105.754C148.094 105.754 140.948 94.05 140.948 79.0895C140.948 64.1289 148.094 52.5302 157.216 52.5302C166.338 52.5302 173.484 64.255 173.484 79.1945C173.484 94.1341 166.338 105.754 157.216 105.754ZM157.216 56.3334C150.511 56.3334 144.857 66.8394 144.857 79.0895C144.857 91.3395 150.511 101.867 157.216 101.867C163.921 101.867 169.575 91.3605 169.575 79.0895C169.575 66.8184 163.942 56.3334 157.216 56.3334Z" fill="var(--fill-0, #003282)"/>
<path id="Vector_54" d="M163.144 93.4202C167.346 93.4202 170.752 89.2527 170.752 84.1118C170.752 78.971 167.346 74.8035 163.144 74.8035C158.941 74.8035 155.535 78.971 155.535 84.1118C155.535 89.2527 158.941 93.4202 163.144 93.4202Z" fill="var(--fill-0, #003282)"/>
<path id="Vector_55" d="M163.143 95.353C157.868 95.353 153.58 90.3101 153.58 84.1116C153.58 77.913 157.784 72.8491 163.143 72.8491C168.503 72.8491 172.707 77.892 172.707 84.1116C172.707 90.3311 168.419 95.353 163.143 95.353ZM163.143 76.7573C160.012 76.7573 157.489 80.0562 157.489 84.1116C157.489 88.1669 160.012 91.4448 163.143 91.4448C166.275 91.4448 168.797 88.2509 168.797 84.0485C168.797 79.8461 166.254 76.7573 163.143 76.7573Z" fill="var(--fill-0, #003282)"/>
<path id="Vector_56" d="M130.839 103.8C138.744 103.8 145.152 92.7369 145.152 79.0899C145.152 65.4428 138.744 54.3797 130.839 54.3797C122.933 54.3797 116.525 65.4428 116.525 79.0899C116.525 92.7369 122.933 103.8 130.839 103.8Z" fill="var(--fill-0, white)"/>
<path id="Vector_57" d="M130.838 105.754C121.716 105.754 114.57 94.05 114.57 79.0895C114.57 64.1289 121.716 52.5302 130.838 52.5302C139.96 52.5302 147.127 64.1499 147.127 79.0895C147.127 94.029 139.96 105.754 130.838 105.754ZM130.838 56.3334C124.134 56.3334 118.48 66.8394 118.48 79.0895C118.48 91.3395 124.134 101.867 130.838 101.867C137.543 101.867 143.197 91.3605 143.197 79.0895C143.197 66.8184 137.543 56.3334 130.838 56.3334Z" fill="var(--fill-0, #003282)"/>
<path id="Vector_58" d="M136.765 93.4202C140.967 93.4202 144.373 89.2527 144.373 84.1118C144.373 78.971 140.967 74.8035 136.765 74.8035C132.563 74.8035 129.156 78.971 129.156 84.1118C129.156 89.2527 132.563 93.4202 136.765 93.4202Z" fill="var(--fill-0, #003282)"/>
<path id="Vector_59" d="M136.766 95.353C131.49 95.353 127.202 90.3101 127.202 84.1116C127.202 77.913 131.406 72.8491 136.766 72.8491C142.125 72.8491 146.329 77.892 146.329 84.1116C146.329 90.3311 142.041 95.353 136.766 95.353ZM136.766 76.7573C133.634 76.7573 131.091 80.0562 131.091 84.1116C131.091 88.1669 133.634 91.4448 136.766 91.4448C139.897 91.4448 142.42 88.2509 142.42 84.0485C142.42 79.8461 139.876 76.7573 136.766 76.7573Z" fill="var(--fill-0, #003282)"/>
<path id="Vector_60" d="M176.552 136.411L116.251 159.104C113.897 160.007 112.488 162.402 114.99 164.399L150.573 186.062C155.134 188.584 157.047 186.987 159.653 186.062L224.936 156.645C227.542 155.658 227.038 153.851 223.57 152.611L187.313 136.894C183.859 135.64 180.104 135.472 176.552 136.411Z" fill="var(--fill-0, white)"/>
<path id="Vector_61" d="M154.968 189.361C153.083 189.302 151.244 188.759 149.629 187.785L113.982 165.995L113.772 165.848C113.041 165.376 112.457 164.708 112.085 163.921C111.714 163.133 111.57 162.258 111.67 161.393C111.874 160.422 112.332 159.521 112.996 158.783C113.661 158.045 114.508 157.496 115.454 157.191L175.692 134.498C179.708 133.398 183.966 133.567 187.882 134.981L224.244 150.677C227.649 151.938 228.448 153.682 228.448 154.88C228.448 155.741 228.069 157.338 225.547 158.284L160.391 187.701L159.235 188.184C157.912 188.874 156.458 189.276 154.968 189.361ZM116.126 162.801L151.605 184.402C152.49 185.041 153.542 185.408 154.633 185.457C155.723 185.505 156.804 185.233 157.742 184.675C158.142 184.507 158.562 184.318 158.982 184.171L223.992 154.754C223.64 154.566 223.274 154.405 222.899 154.27L186.537 138.679C183.529 137.625 180.278 137.472 177.184 138.238L116.946 160.931C116.659 161.012 116.392 161.153 116.164 161.346C115.936 161.538 115.751 161.776 115.622 162.045C115.601 162.255 115.853 162.549 116.126 162.801Z" fill="var(--fill-0, #003282)"/>
<path id="Vector_62" d="M231.2 157.443L157.405 187.701C154.336 188.961 152.214 187.554 152.655 184.549L160.537 131.325C160.926 129.643 161.697 128.072 162.791 126.735C163.884 125.398 165.27 124.33 166.842 123.614L239.607 99.3029C242.655 98.0422 244.799 99.45 244.358 102.434L237.506 149.732C237.122 151.417 236.354 152.99 235.259 154.328C234.165 155.666 232.776 156.733 231.2 157.443Z" fill="var(--fill-0, white)"/>
<path id="Vector_63" d="M155.325 190.096C154.254 190.11 153.209 189.762 152.361 189.108C151.675 188.513 151.162 187.745 150.874 186.884C150.585 186.023 150.533 185.1 150.722 184.212L158.624 130.989C159.081 128.984 160.001 127.115 161.311 125.531C162.622 123.947 164.286 122.693 166.17 121.869L238.956 97.5165C239.849 97.0755 240.844 96.88 241.837 96.9501C242.831 97.0203 243.788 97.3536 244.61 97.9158C245.299 98.5037 245.816 99.2677 246.105 100.126C246.393 100.985 246.443 101.906 246.249 102.791L239.376 150.068C238.932 152.09 238.017 153.979 236.706 155.581C235.395 157.184 233.725 158.455 231.831 159.292L158.141 189.507C157.249 189.885 156.293 190.085 155.325 190.096ZM241.709 100.857C241.245 100.873 240.788 100.981 240.364 101.173L167.515 125.463C166.277 126.055 165.184 126.911 164.312 127.971C163.441 129.031 162.812 130.269 162.471 131.598L154.589 184.906C154.589 185.62 154.589 186.019 154.778 186.145C155.089 186.248 155.418 186.285 155.744 186.252C156.07 186.22 156.385 186.119 156.67 185.956L230.339 155.699C231.61 155.119 232.734 154.26 233.629 153.188C234.524 152.115 235.166 150.855 235.509 149.5L242.403 102.223C242.403 101.488 242.403 101.11 242.214 100.984C242.062 100.893 241.886 100.849 241.709 100.857Z" fill="var(--fill-0, #003282)"/>
<path id="Vector_64" d="M81.1086 118.592C81.1086 118.592 75.4337 137.02 102.127 150.11C102.127 150.11 119.173 120.862 138.404 145.908C138.404 145.908 151.015 151.413 142.482 161.205C142.482 161.205 150.048 170.282 136.513 172.887C136.513 172.887 144.92 184.927 129.135 186.062C129.135 186.062 131.237 195.706 118.626 194.215C118.626 194.215 98.3856 190.369 94.8755 170.576C94.8755 170.576 57.337 150.426 62.4864 109.641L81.1086 118.592Z" fill="var(--fill-0, #C5E6F0)"/>
<path id="Vector_65" d="M140.507 145.32C138.783 141.276 135.676 137.977 131.743 136.012C127.885 133.942 123.452 133.204 119.132 133.91C114.812 134.654 110.761 136.51 107.378 139.295C103.994 142.081 101.395 145.7 99.8371 149.795L102.696 148.619C97.5487 146.167 92.8909 142.799 88.9496 138.68C86.95 136.576 85.411 134.079 84.4307 131.347C83.562 128.017 83.2146 124.572 83.4008 121.135C83.4008 120.617 83.1949 120.12 82.8283 119.753C82.4617 119.387 81.9645 119.181 81.4461 119.181C80.9277 119.181 80.4305 119.387 80.0639 119.753C79.6974 120.12 79.4914 120.617 79.4914 121.135C79.3159 124.825 79.6841 128.521 80.5844 132.103C81.6436 135.302 83.3378 138.253 85.5657 140.781C89.8313 145.518 94.9784 149.379 100.72 152.149C100.984 152.275 101.272 152.344 101.565 152.353C101.858 152.361 102.149 152.308 102.42 152.197C102.691 152.087 102.936 151.92 103.139 151.709C103.342 151.498 103.499 151.247 103.599 150.972C104.942 147.608 107.122 144.642 109.932 142.354C112.742 140.067 116.089 138.535 119.657 137.903C123.215 137.297 126.873 137.904 130.044 139.627C133.216 141.349 135.716 144.087 137.144 147.4C138.153 149.69 141.516 147.694 140.507 145.425V145.32Z" fill="var(--fill-0, #003282)"/>
<path id="Vector_66" d="M143.28 162.318C144.763 161.522 145.963 160.287 146.715 158.782C147.468 157.277 147.736 155.577 147.484 153.913C147.176 152.277 146.529 150.723 145.584 149.351C144.639 147.98 143.418 146.821 141.998 145.95C137.332 142.987 131.783 142.125 126.487 140.928C124.028 140.36 122.998 144.143 125.436 144.689C127.874 145.235 130.627 145.782 133.192 146.454C135.013 146.909 136.776 147.571 138.446 148.429C140.636 149.405 142.372 151.178 143.301 153.388C143.751 154.422 143.783 155.59 143.391 156.647C142.999 157.704 142.214 158.569 141.2 159.061C139.098 160.259 140.968 163.621 143.175 162.423L143.28 162.318Z" fill="var(--fill-0, #003282)"/>
<path id="Vector_67" d="M132.037 173.748C136.472 175.261 143.366 175.85 145.951 170.891C146.443 169.894 146.724 168.808 146.779 167.698C146.833 166.588 146.658 165.479 146.266 164.44C145.406 162.254 143.837 160.419 141.81 159.229C139.94 158.161 137.887 157.449 135.757 157.128C135.26 157.028 134.744 157.112 134.304 157.363C133.863 157.614 133.529 158.015 133.361 158.494C133.226 158.992 133.293 159.524 133.55 159.973C133.806 160.422 134.229 160.751 134.727 160.889C135.568 161.078 136.43 161.246 137.27 161.477C137.598 161.556 137.921 161.654 138.237 161.771C138.637 161.94 138.405 161.771 138.237 161.771L138.721 162.003C139.465 162.395 140.169 162.86 140.823 163.389C140.654 163.263 140.991 163.536 141.033 163.578C141.197 163.715 141.351 163.862 141.495 164.02L141.684 164.23C141.831 164.44 141.958 164.65 142.084 164.86L142.336 165.365L142.462 165.701C142.59 166.085 142.688 166.478 142.756 166.877C142.756 166.583 142.756 167.193 142.756 166.877C142.756 167.172 142.756 167.066 142.756 167.172V167.718C142.756 167.844 142.756 168.243 142.756 167.907C142.756 168.138 142.756 168.369 142.588 168.6C142.42 168.832 142.378 169.084 142.588 168.81C142.499 169.001 142.393 169.184 142.273 169.357L142.126 169.588L141.642 170.071C141.024 170.529 140.302 170.825 139.54 170.933H139.225H138.237C137.633 170.933 137.029 170.891 136.43 170.807C135.272 170.639 134.132 170.364 133.025 169.987C132.526 169.852 131.994 169.92 131.545 170.176C131.096 170.431 130.766 170.855 130.629 171.353C130.499 171.851 130.569 172.381 130.825 172.828C131.08 173.276 131.5 173.606 131.995 173.748H132.037Z" fill="var(--fill-0, #003282)"/>
<path id="Vector_68" d="M124.932 185.767C126.67 186.569 128.508 187.135 130.397 187.448C131.785 187.713 133.212 187.713 134.6 187.448C135.775 187.144 136.863 186.568 137.774 185.767C138.758 184.965 139.543 183.946 140.068 182.791C140.593 181.636 140.843 180.374 140.801 179.106C140.627 176.736 139.622 174.504 137.963 172.803C136.284 171.185 134.188 170.065 131.91 169.567C131.424 169.468 130.919 169.558 130.496 169.817C130.074 170.077 129.766 170.488 129.635 170.966C129.505 171.444 129.56 171.954 129.791 172.392C130.022 172.831 130.412 173.165 130.88 173.328L132.015 173.664L132.561 173.853H132.814C133.129 173.979 132.435 173.664 132.94 173.853C133.259 173.993 133.568 174.155 133.865 174.336L134.306 174.61L134.516 174.757C134.747 174.925 134.306 174.568 134.516 174.757L135.252 175.45L135.609 175.849L135.798 176.143C136.262 176.775 136.604 177.488 136.807 178.245C137.026 179.021 137.026 179.843 136.807 180.619C136.807 180.619 136.681 181.018 136.807 180.808C136.933 180.598 136.807 180.808 136.807 180.934C136.807 181.06 136.618 181.27 136.513 181.438C136.408 181.607 136.513 181.438 136.303 181.733C136.093 182.027 135.966 182.09 135.798 182.279L135.336 182.699L135.084 182.867L134.621 183.161L134.348 183.288C134.537 183.288 134.348 183.288 134.222 183.288H133.907C133.907 183.288 133.444 183.393 133.633 183.288H133.108C132.612 183.34 132.112 183.34 131.616 183.288C131.006 183.288 129.892 182.909 129.093 182.699C128.766 182.621 128.443 182.522 128.127 182.405L127.643 182.216L127.265 182.048C126.811 181.822 126.291 181.768 125.801 181.896C125.31 182.023 124.882 182.323 124.596 182.741C124.335 183.187 124.261 183.719 124.391 184.219C124.521 184.719 124.844 185.147 125.289 185.41L124.932 185.767Z" fill="var(--fill-0, #003282)"/>
<path id="Vector_69" d="M127.433 186.335C127.883 187.068 128.051 187.94 127.904 188.787C127.757 189.634 127.305 190.399 126.634 190.937C125.923 191.561 125.092 192.036 124.193 192.332C123.294 192.628 122.344 192.739 121.401 192.66C117.402 192.382 113.519 191.201 110.042 189.207C106.566 187.212 103.587 184.456 101.328 181.145C99.2266 178.225 96.8936 174.064 97.335 170.366C97.3429 170.024 97.257 169.687 97.0865 169.391C96.9161 169.094 96.6676 168.85 96.3682 168.685C85.8373 163.553 77.1534 155.288 71.5086 145.025C65.8637 134.762 63.5346 123.004 64.8408 111.364C65.1561 108.843 61.1837 108.864 60.9525 111.364C59.9806 120.943 61.2929 130.616 64.7819 139.589C68.2709 148.563 73.8373 156.583 81.0249 162.991C85.0992 166.569 89.6039 169.625 94.4345 172.089L93.4677 170.387C93.3526 172.775 93.8215 175.155 94.8338 177.321C95.9013 179.884 97.3158 182.288 99.0375 184.465C102.047 188.573 106.095 191.807 110.766 193.837C115.411 195.938 121.128 197.745 126.109 195.938C130.712 194.173 133.591 188.983 130.88 184.486C130.596 184.094 130.176 183.821 129.702 183.721C129.228 183.621 128.734 183.7 128.315 183.943C127.896 184.187 127.582 184.577 127.435 185.038C127.288 185.5 127.317 185.999 127.517 186.44L127.433 186.335Z" fill="var(--fill-0, #003282)"/>
<path id="Vector_70" d="M117.239 111.595C123.022 116.744 130.031 120.321 137.594 121.984C145.157 123.647 153.021 123.34 160.432 121.093C162.828 120.357 161.798 116.575 159.402 117.331C152.657 119.406 145.492 119.713 138.595 118.223C131.698 116.733 125.299 113.495 120.013 108.821C118.143 107.162 115.368 109.914 117.239 111.595Z" fill="var(--fill-0, #003282)"/>
<path id="Vector_71" d="M124.764 114.894C124.764 114.894 122.935 120.925 125.163 124.308C125.999 125.505 127.099 126.496 128.378 127.202C129.657 127.909 131.081 128.313 132.54 128.384C137.227 128.741 141.473 125.316 143.491 121.051C136.83 120.604 130.389 118.487 124.764 114.894Z" fill="var(--fill-0, white)"/>
<path id="Vector_72" d="M122.872 114.369C121.822 117.878 121.464 122.563 123.713 125.652C125.449 127.928 127.951 129.499 130.756 130.075C133.561 130.65 136.48 130.192 138.972 128.783C141.671 127.209 143.831 124.859 145.173 122.038C145.34 121.741 145.427 121.405 145.426 121.064C145.424 120.722 145.335 120.387 145.165 120.091C144.996 119.795 144.753 119.548 144.459 119.373C144.166 119.199 143.833 119.104 143.491 119.096C142.945 119.096 142.398 119.054 141.852 118.97H141.326L140.234 118.802C139.435 118.655 138.615 118.508 137.816 118.319C133.508 117.409 129.408 115.698 125.731 113.276C125.283 113.021 124.754 112.951 124.255 113.08C123.757 113.21 123.328 113.529 123.062 113.969C122.838 114.426 122.787 114.947 122.919 115.438C123.05 115.928 123.355 116.355 123.776 116.638C129.646 120.523 136.459 122.745 143.491 123.068L141.81 120.126C140.692 122.623 138.737 124.652 136.282 125.862C135.133 126.358 133.884 126.577 132.635 126.5C131.386 126.423 130.173 126.054 129.094 125.421C128.103 124.869 127.293 124.041 126.763 123.037C126.234 122.034 126.006 120.899 126.109 119.769C126.091 118.343 126.304 116.924 126.74 115.566C126.818 115.313 126.846 115.046 126.822 114.781C126.797 114.516 126.721 114.259 126.597 114.024C126.473 113.789 126.304 113.581 126.1 113.411C125.895 113.241 125.659 113.113 125.405 113.034C125.151 112.956 124.884 112.928 124.62 112.952C124.355 112.977 124.098 113.053 123.862 113.177C123.627 113.301 123.419 113.47 123.249 113.675C123.079 113.879 122.951 114.115 122.872 114.369Z" fill="var(--fill-0, #003282)"/>
</g>
</svg>
